<?xml version="1.0" encoding="UTF-8" standalone="no"?>
<!-- Created with Inkscape (http://www.inkscape.org/) -->

<svg
   version="1.1"
   id="svg1"
   width="360"
   height="360"
   viewBox="0 0 360 360"
   xml:space="preserve"
   xmlns="http://www.w3.org/2000/svg"
   xmlns:svg="http://www.w3.org/2000/svg"><defs
     id="defs1" /><g
     id="background"
     transform="translate(-0.01792908,66.450508)"><ellipse
       style="fill:#ffb380;fill-opacity:1;stroke:none;stroke-width:0.887886"
       id="path126"
       cx="179.11862"
       cy="113.2354"
       rx="123.928"
       ry="123.92796" /></g><g
     id="browser"
     transform="matrix(0.99788927,0,0,0.99788927,0,60)"><path
       style="display:inline;fill:#ececec;fill-opacity:1;stroke-width:0.855109"
       d="m 43.639345,140.73547 c -7.083449,-1.04309 -13.74242,-6.554 -16.628479,-13.76158 -1.892037,-4.72514 -1.775183,-1.5887 -1.775183,-47.64739 V 37.733983 l 0.737995,-2.672911 c 2.53559,-9.183535 9.263506,-15.898587 17.595547,-17.561903 1.99025,-0.397312 14.442001,-0.430228 137.091115,-0.362407 l 134.90204,0.0746 1.91544,0.642677 c 8.95115,3.003322 14.9916,10.934111 16.01203,21.022959 0.20646,2.04115 0.27312,15.292134 0.21452,42.638585 l -0.085,39.677077 -0.72276,2.61863 c -2.25785,8.18047 -7.80811,14.04689 -15.56307,16.44956 l -2.04478,0.63352 -135.03884,0.0363 c -74.27138,0.0199 -135.746121,-0.0679 -136.61055,-0.19517 z"
       id="path124" /><path
       style="display:inline;fill:#0f3539;fill-opacity:1;stroke-width:0.855109"
       d="m 43.639345,140.73547 c -7.083449,-1.04309 -13.74242,-6.554 -16.628479,-13.76158 -1.892037,-4.72514 -1.775183,-1.5887 -1.775183,-47.64739 V 37.733983 l 0.737995,-2.672911 c 2.53559,-9.183535 9.263506,-15.898587 17.595547,-17.561903 1.99025,-0.397312 14.442001,-0.430228 137.091115,-0.362407 l 134.90204,0.0746 1.91544,0.642677 c 8.95115,3.003322 14.9916,10.934111 16.01203,21.022959 0.20646,2.04115 0.27312,15.292134 0.21452,42.638585 l -0.085,39.677077 -0.72276,2.61863 c -2.25785,8.18047 -7.80811,14.04689 -15.56307,16.44956 l -2.04478,0.63352 -135.03884,0.0363 c -74.27138,0.0199 -135.746121,-0.0679 -136.61055,-0.19517 z m 271.039135,-8.31538 c 5.46514,-1.15809 10.04244,-6.11403 10.8751,-11.7747 0.183,-1.24414 0.25573,-11.84136 0.20752,-30.236673 l -0.0742,-28.321221 -35.983,-0.140494 c -28.98219,-0.11316 -36.19595,-0.211549 -37.07754,-0.505706 -4.46934,-1.491268 -8.44327,-4.990033 -10.61014,-9.341476 -2.06165,-4.140132 -2.17238,-4.788553 -2.35971,-13.818567 l -0.16465,-7.935415 -0.74712,-1.270925 c -0.84377,-1.435324 -2.11161,-2.60167 -3.42738,-3.15303 -0.74655,-0.312833 -16.24086,-0.374877 -95.63542,-0.382954 -93.573229,-0.0095 -94.763727,-0.003 -96.29653,0.529494 -3.563738,1.237979 -6.580667,4.02106 -8.436693,7.782751 -2.025395,4.104953 -1.933905,1.783085 -1.851339,46.984224 l 0.07372,40.357262 0.581934,1.51815 c 1.064919,2.77817 1.806118,3.93808 3.767139,5.89523 2.107243,2.10309 4.454985,3.43346 6.872742,3.89451 0.851088,0.1623 51.663902,0.27012 134.899257,0.28623 115.01543,0.0222 133.79076,-0.0286 135.38631,-0.36669 z"
       id="path1" /><path
       style="display:inline;fill:#ffffff;stroke-width:0.855109"
       d="m 101.03316,114.69634 c -4.030814,-0.50349 -8.296416,-2.79313 -11.269324,-6.04903 -1.044916,-1.14437 -3.983725,-5.80878 -4.074437,-6.46685 -0.01078,-0.0782 -0.257057,-0.88107 -0.54727,-1.78407 -0.42572,-1.324625 -0.524479,-2.408327 -0.511196,-5.609513 0.01469,-3.541347 0.0948,-4.20294 0.745494,-6.156787 1.012736,-3.040966 2.466,-5.406282 4.710742,-7.667144 2.266086,-2.28236 4.39991,-3.637786 7.39077,-4.69469 l 2.186454,-0.772646 81.406407,-0.0489 81.40639,-0.0489 2.46272,0.829866 c 7.82877,2.638075 12.82046,9.518222 12.97575,17.884738 0.093,5.012006 -1.10785,8.933926 -3.87353,12.650536 -2.71841,3.65306 -5.9566,5.97265 -10.36215,7.42261 l -1.8072,0.59479 -79.60839,0.0593 c -43.78461,0.0327 -80.33866,-0.0319 -81.23123,-0.14335 z"
       id="path2" /><path
       d="m 97.201678,103.37014 c -1.440815,-0.33907 -1.778627,-0.70344 -1.778627,-1.91842 0,-1.04593 0.09718,-1.22834 0.866219,-1.626029 1.129562,-0.584119 3.445736,-0.401073 3.96833,0.313609 0.59778,0.81751 0.45891,2.23489 -0.265468,2.70952 -0.721328,0.47263 -1.99012,0.70967 -2.790454,0.52132 z m 27.793222,-0.4878 c -0.30539,-0.36798 -2.34574,-5.89949 -3.22404,-8.740569 -0.36997,-1.196777 -0.36796,-1.372144 0.0203,-1.760336 0.39243,-0.392436 0.47666,-0.389952 0.93813,0.02767 0.27884,0.252351 0.85399,1.537045 1.2781,2.854877 0.85802,2.666142 1.4148,3.901049 1.75885,3.901049 0.29514,0 1.55907,-2.857467 1.81554,-4.104525 0.4131,-2.008625 0.96985,-3.009984 1.67355,-3.009984 0.36462,0 0.72875,0.171474 0.80918,0.381053 0.14998,0.390842 -2.53258,8.513315 -3.30487,10.006765 -0.46016,0.88985 -1.23323,1.08435 -1.76468,0.444 z m 54.42885,-0.31063 c -0.15352,-0.40379 -0.89518,-2.766357 -1.64813,-5.250141 -1.05624,-3.484289 -1.29742,-4.602218 -1.05567,-4.893506 0.89639,-1.080084 1.61391,-0.08527 2.5541,3.541154 0.38319,1.478033 0.81242,2.894094 0.95385,3.146802 0.32379,0.578568 0.45115,0.265292 1.68674,-4.149191 0.86642,-3.095468 0.92664,-3.213345 1.60162,-3.134766 1.17604,0.136911 1.03273,1.437228 -0.73279,6.648887 -1.49716,4.419481 -1.61343,4.656121 -2.32822,4.738361 -0.60343,0.0694 -0.80762,-0.0587 -1.0315,-0.6476 z m 46.06475,0.25688 c -1.13971,-0.56206 -1.70064,-1.20821 -2.15512,-2.48249 -0.8482,-2.378283 -0.34477,-5.063626 1.24787,-6.656269 2.58705,-2.587046 6.28321,-1.208314 7.15053,2.667272 0.46171,2.063117 0.26389,2.199343 -3.52817,2.429658 -3.10591,0.188639 -3.42228,0.329226 -2.72684,1.211738 1.08263,1.373871 2.35774,1.637291 4.46398,0.922201 1.13715,-0.38607 1.32161,-0.38839 1.68878,-0.0212 1.5191,1.5191 -3.66823,3.14861 -6.14103,1.92911 z m 4.28931,-6.45692 c 0,-0.740032 -1.46508,-2.132063 -2.24396,-2.132063 -0.8476,0 -1.76558,0.66441 -2.27257,1.644832 -0.22489,0.434888 -0.4089,0.864626 -0.4089,0.954973 0,0.09035 1.10822,0.141844 2.46272,0.114439 2.24021,-0.04533 2.46271,-0.09793 2.46271,-0.582181 z m -96.25979,6.16918 c -3.18246,-1.56857 -3.32626,-7.486462 -0.23342,-9.605709 2.40121,-1.645341 5.5469,0.105943 6.07037,3.37953 0.25429,1.590218 -0.16791,1.89003 -3.21008,2.279574 -1.40237,0.179571 -2.65916,0.435451 -2.79288,0.568621 -0.14146,0.140887 0.12093,0.606167 0.62753,1.112774 0.81599,0.81599 0.96009,0.86038 2.29538,0.70715 0.7836,-0.0899 1.73257,-0.19708 2.10882,-0.23813 0.56717,-0.0619 0.68409,0.0423 0.68409,0.60946 0,1.425 -3.53344,2.18056 -5.54981,1.18673 z m 2.06096,-5.708888 c 1.92577,-0.206487 2.15609,-0.583544 1.14309,-1.871366 -0.97463,-1.239043 -2.52333,-0.825956 -3.66359,0.977196 -0.51899,0.820712 -0.34772,1.403373 0.35445,1.205804 0.25071,-0.07054 1.22543,-0.210777 2.16605,-0.311634 z m 21.14284,5.657348 c -1.85517,-0.99494 -2.65723,-2.958771 -2.15839,-5.28479 0.54326,-2.533168 2.39713,-4.283161 4.86498,-4.592403 l 1.20613,-0.151138 0.034,-1.368174 c 0.10951,-4.415856 0.0814,-4.285966 0.90583,-4.191109 l 0.7525,0.08658 0.0756,7.524962 c 0.0743,7.399092 0.0658,7.532972 -0.50918,8.003822 -0.82657,0.67691 -3.88807,0.66047 -5.17136,-0.0278 z m 3.85574,-1.64481 c 0.0914,-0.096 0.0914,-1.528965 0,-3.184456 l -0.1662,-3.009985 -0.86235,-0.08373 c -0.64951,-0.06307 -1.10371,0.128199 -1.84038,0.775007 -2.24538,1.971468 -1.70026,5.325914 0.94416,5.809964 0.70928,0.12983 1.65197,-0.0204 1.92477,-0.3068 z m 4.16926,1.7284 c -0.0974,-0.25377 -0.18918,-2.69434 -0.20399,-5.423481 l -0.0269,-4.962074 h 0.68409 c 0.54285,0 0.70196,0.155346 0.77066,0.752496 0.0476,0.413873 0.15451,0.752496 0.23752,0.752496 0.083,0 0.57166,-0.369407 1.08589,-0.820905 1.07581,-0.944579 2.59263,-1.099909 3.93948,-0.403425 0.61947,0.320341 0.80732,0.60685 0.80732,1.231357 0,0.908349 -0.35768,1.013155 -1.7592,0.515475 -1.18559,-0.421003 -2.15935,0.02957 -3.08664,1.428226 -0.68999,1.040727 -0.77688,1.444425 -0.90049,4.183956 -0.13042,2.889999 -0.16573,3.036199 -0.75372,3.119689 -0.38471,0.0546 -0.68355,-0.0861 -0.79397,-0.37381 z m 35.05479,0.0769 c -0.073,-0.19032 -0.1,-3.655556 -0.0598,-7.700475 0.0657,-6.613758 0.12046,-7.384322 0.54433,-7.651548 0.81836,-0.515939 1.0828,0.154899 1.12799,2.861552 l 0.0425,2.544528 1.54289,-0.07144 c 1.40432,-0.06501 1.63531,0.0097 2.57188,0.832031 1.29014,1.132754 1.76838,2.260228 1.76838,4.169032 0,2.46033 -0.77753,3.80781 -2.79386,4.84184 -1.20905,0.62 -4.52649,0.74203 -4.74428,0.17448 z m 4.47196,-2.29839 c 1.97907,-1.242017 1.25156,-5.569677 -0.97277,-5.786612 -1.49513,-0.145817 -1.71473,0.159876 -1.84228,2.564397 -0.0634,1.194987 -0.0447,2.575801 0.0415,3.068475 0.15065,0.86099 0.19535,0.88902 1.15121,0.72178 0.54695,-0.0957 1.27701,-0.35131 1.62235,-0.56804 z m 15.74166,2.00459 c -0.2743,-0.35198 -0.9227,-1.52177 -1.44091,-2.59953 -0.51819,-1.07776 -1.02491,-1.959564 -1.12604,-1.959564 -0.10112,0 -0.52366,0.26728 -0.93896,0.593955 -0.70907,0.557757 -0.74522,0.688381 -0.59315,2.143329 0.17185,1.64416 -0.0708,2.1881 -0.97615,2.1881 -0.28419,0 -0.61427,-0.30235 -0.76617,-0.70186 -0.14882,-0.39142 -0.26687,-3.882832 -0.26687,-7.893 0,-6.656752 0.0377,-7.225244 0.50771,-7.650563 0.28548,-0.258356 0.70467,-0.383873 0.95772,-0.286769 0.3944,0.151348 0.45002,0.777783 0.45002,5.068844 0,2.692885 0.0726,4.896154 0.1614,4.896154 0.0888,0 1.11599,-0.86195 2.28272,-1.915445 2.11166,-1.906728 3.08644,-2.325185 3.41597,-1.466435 0.22339,0.582156 -0.38697,1.494048 -1.71362,2.560175 l -1.06165,0.853161 1.53598,3.005154 c 1.4889,2.913014 1.5197,3.017404 1.00483,3.404694 -0.7084,0.53285 -0.84854,0.50934 -1.43283,-0.2404 z m -115.72611,-0.1551 c -1.40106,-0.63628 -2.33213,-1.91397 -2.50365,-3.435684 -0.11356,-1.007547 -0.26223,-1.232862 -1.06654,-1.61641 -0.51402,-0.24512 -1.00031,-0.616951 -1.080641,-0.826292 -0.08327,-0.216994 -0.369401,-0.322213 -0.665591,-0.244758 -0.822472,0.215081 -2.919006,-0.954566 -3.554711,-1.98316 -0.852096,-1.37872 -0.945087,-2.563367 -0.284156,-3.619971 1.643108,-2.626768 5.424279,-2.620223 6.673129,0.01155 0.52142,1.0988 0.56928,1.780593 0.19423,2.767029 -0.22859,0.601253 -0.15527,0.767546 0.56434,1.279955 0.74757,0.532314 0.93941,0.557468 1.99581,0.261692 1.62555,-0.455126 3.1491,-0.01124 4.24483,1.236722 1.63136,1.858016 0.94176,4.977757 -1.35985,6.151957 -1.2985,0.66244 -1.73154,0.66482 -3.1572,0.0174 z m 2.7479,-2.549479 c 0.55013,-0.78542 0.5407,-1.54787 -0.0269,-2.175057 -0.52094,-0.575637 -1.54412,-0.659218 -1.93862,-0.158364 -0.46608,0.591738 -0.64339,1.836509 -0.34186,2.399922 0.40683,0.760178 1.75557,0.721308 2.30737,-0.0665 z m -7.6453,-6.879872 c 0.489086,-0.746439 0.202832,-1.899941 -0.542465,-2.185938 -0.547547,-0.210113 -1.784394,0.948404 -1.784394,1.671386 0,1.230504 1.622639,1.589328 2.326859,0.514552 z m 41.63105,9.349791 c -0.21889,-0.81726 -0.22819,-14.816291 -0.0103,-15.384315 0.26086,-0.679786 1.43749,-0.546629 1.61571,0.182846 0.0827,0.338624 0.11586,4.001912 0.0736,8.140641 l -0.0768,7.524958 -0.71674,0.0831 c -0.5535,0.0642 -0.75518,-0.0605 -0.88557,-0.54727 z m 5.66001,0.0861 c -3.24133,-2.03713 -2.93578,-7.704864 0.5121,-9.498789 4.51145,-2.347306 7.8814,5.492798 3.94162,9.170079 -0.99051,0.92452 -3.24138,1.09064 -4.45372,0.32871 z m 3.39574,-1.81908 c 1.67258,-1.17152 1.04077,-5.552712 -0.86992,-6.032263 -0.99006,-0.248492 -1.77182,0.106248 -2.36004,1.070926 -1.69054,2.772487 0.8292,6.642897 3.22996,4.961337 z m 23.25184,2.1641 c -0.23223,-0.23223 -0.20355,-6.063086 0.0422,-8.586453 0.16252,-1.668581 0.21556,-1.778627 0.85733,-1.778627 h 0.68409 v 5.199064 5.199056 l -0.69433,0.081 c -0.38189,0.0446 -0.78208,-0.007 -0.88932,-0.11401 z m 14.71813,-0.21641 c -1.63455,-0.72648 -2.59953,-2.381603 -2.59953,-4.458673 0,-1.160649 1.01198,-3.881027 1.74465,-4.689865 1.33659,-1.475559 3.37843,-1.842775 4.6565,-0.83745 1.41283,1.111339 2.44689,4.221471 1.66389,5.004476 -0.41376,0.413758 -3.24895,0.989628 -4.87225,0.989628 -0.82873,0 -1.00371,0.09758 -1.00371,0.559709 0,0.307839 0.30223,0.86195 0.67164,1.231355 0.7928,0.7928 2.11788,0.88544 3.62968,0.25377 0.87357,-0.365 1.05034,-0.36769 1.39681,-0.0212 0.58769,0.58769 0.20221,1.21691 -1.11058,1.81278 -1.35353,0.61436 -3.00625,0.67587 -4.1771,0.15549 z m 3.65851,-6.058812 c 0.33491,-0.319621 -0.35282,-2.10016 -0.96648,-2.50225 -0.62728,-0.411001 -0.77969,-0.417377 -1.41765,-0.0593 -0.79172,0.444381 -1.95847,2.022419 -1.95847,2.648834 0,0.336059 0.34846,0.369866 2.12067,0.205744 1.16637,-0.108016 2.16623,-0.239877 2.22193,-0.293025 z m 3.87735,6.047782 c -0.5637,-0.67923 -0.22783,-1.37307 0.70891,-1.46446 0.92952,-0.0907 1.33743,0.43667 1.04658,1.35304 -0.19419,0.61181 -1.28285,0.68091 -1.75549,0.11142 z m 14.2051,-0.17428 c -0.47945,-0.89586 -0.0791,-9.459017 0.45178,-9.662728 0.62251,-0.238881 1.20318,0.125973 1.20122,0.754775 -8.6e-4,0.322522 0.0298,2.556574 0.0684,4.964562 l 0.0702,4.378151 -0.73408,0.0848 c -0.53048,0.0613 -0.82382,-0.0829 -1.05755,-0.51957 z M 106.05485,91.859604 c -1.37078,-0.215018 -2.20207,-1.957383 -1.44772,-3.034376 0.93645,-1.336966 4.101,-1.465368 4.93007,-0.200037 1.19393,1.822152 -0.78255,3.6579 -3.48235,3.234413 z M 173.4755,90.91302 c -0.54612,-0.546123 -0.39359,-1.312579 0.32652,-1.640681 1.02357,-0.466371 1.57259,-0.119657 1.4715,0.929271 -0.0694,0.719413 -0.21811,0.906647 -0.77189,0.971363 -0.37731,0.04409 -0.83906,-0.07289 -1.02613,-0.259953 z m 36.19007,0.04284 c -0.2829,-0.457738 0.0729,-1.558587 0.5648,-1.747334 0.75171,-0.288457 1.52972,0.334906 1.43553,1.150189 -0.0695,0.601453 -0.24085,0.749239 -0.94844,0.817923 -0.475,0.04611 -0.94835,-0.05324 -1.05189,-0.220778 z"
       style="display:inline;fill:#333333;stroke-width:0.855109"
       id="path1-6" /><path
       d="m 57.296947,104.29569 c -0.816494,-0.79012 -3.161814,-3.17771 -5.211822,-5.305752 -3.042866,-3.158697 -3.727288,-4.015042 -3.727288,-4.66357 0,-0.659659 0.859919,-1.683119 5.069877,-6.03408 2.788432,-2.881823 5.308063,-5.315277 5.59918,-5.407674 0.544718,-0.172887 1.6265,0.259637 1.98237,0.792602 0.11057,0.165593 0.202922,0.647063 0.205226,1.069931 0.0034,0.619948 -0.661147,1.441369 -3.431224,4.241342 l -3.435414,3.47249 7.699168,0.136818 c 7.219106,0.128287 7.723365,0.169937 8.087209,0.667979 0.538342,0.736899 0.484888,1.895905 -0.112367,2.436413 -0.43979,0.398005 -1.401061,0.452863 -7.935414,0.452863 -4.089254,0 -7.429965,0.09235 -7.423803,0.205226 0.0062,0.112874 1.482177,1.682855 3.280033,3.488846 3.508769,3.524646 3.857685,4.206926 2.728732,5.335876 -0.908026,0.90803 -1.745095,0.68743 -3.374463,-0.88931 z"
       style="display:inline;fill:#333333;stroke-width:0.855109"
       id="path1-7" /><path
       d="m 45.900577,56.545963 c -1.27659,-0.641381 -2.120705,-1.98098 -2.33616,-3.707455 -0.09766,-0.782527 -0.136525,-4.993712 -0.08637,-9.358191 0.08445,-7.349866 0.131565,-8.003973 0.638452,-8.864533 0.300998,-0.511016 0.894716,-1.188262 1.319372,-1.504992 0.743369,-0.554443 1.109961,-0.578671 9.850859,-0.65105 8.439935,-0.06989 9.146146,-0.03904 10.036479,0.438257 0.526747,0.282388 1.234778,0.919322 1.573401,1.415408 0.609294,0.892623 0.615668,1.000153 0.614656,10.370325 -9.41e-4,8.965283 -0.02991,9.515733 -0.54477,10.360165 -0.29906,0.490498 -0.945062,1.1365 -1.43556,1.435561 -0.841532,0.513087 -1.39323,0.543779 -9.784951,0.544343 -7.921882,5.32e-4 -8.997138,-0.05166 -9.845404,-0.477838 z m 13.539476,-6.156527 c 3.913666,-2.006069 5.288042,-6.377342 2.96891,-9.442768 -0.783198,-1.035228 -2.415364,-1.943355 -3.677803,-2.046304 l -0.880968,-0.07184 -1.97198,6.080621 c -1.084589,3.344341 -1.89666,6.158574 -1.804602,6.253852 0.414699,0.4292 4.039258,-0.09327 5.366443,-0.773559 z m -3.135256,-1.231192 c 0.0063,-0.112875 0.598433,-1.990393 1.315739,-4.172262 0.897023,-2.728525 1.441832,-3.993544 1.745056,-4.051939 0.242475,-0.0467 0.850965,0.281524 1.352202,0.729379 0.855414,0.764312 0.911339,0.923246 0.911339,2.589955 0,1.576173 -0.09515,1.893817 -0.846918,2.827205 -1.00364,1.246116 -2.686221,2.272104 -3.736468,2.278387 -0.413873,0.0025 -0.7473,-0.08785 -0.74095,-0.200725 z m -3.075027,0.410452 c 0.855585,-2.305634 3.337116,-9.983932 3.337116,-10.325632 0,-0.185851 -0.347078,-0.277664 -0.856806,-0.226652 -0.8483,0.0849 -0.869157,0.124457 -2.100808,3.985044 -0.6842,2.144615 -1.32659,3.899299 -1.427533,3.899299 -0.235409,0 -0.82404,-1.340275 -2.163186,-4.92543 -0.84571,-2.26413 -1.193733,-2.891736 -1.641817,-2.960768 -0.322519,-0.04969 -0.638357,0.09414 -0.729755,0.332322 -0.40623,1.058619 3.974314,11.658401 4.818038,11.658401 0.127411,0 0.471549,-0.646463 0.764751,-1.436584 z"
       style="display:inline;fill:#d40000;stroke-width:0.855109"
       id="path1-2" /><path
       d="m 113.34614,54.152888 c -0.1505,-0.05104 -0.7306,-0.169139 -1.28912,-0.262434 -1.86954,-0.312292 -3.75622,-2.923194 -3.76559,-5.211071 -0.008,-1.98178 0.51681,-3.200491 2.03309,-4.720205 1.43334,-1.436581 1.43335,-1.436583 3.1852,-1.430191 2.48103,0.0091 4.28664,1.005751 4.94559,2.729958 0.63663,1.665827 0.62996,4.476822 -0.014,5.894472 -0.90037,1.982149 -3.53015,3.530268 -5.09518,2.999471 z m 2.0453,-3.414283 c 1.53851,-1.538507 0.6728,-4.869451 -1.39111,-5.352539 -0.52661,-0.123261 -0.92158,0.01144 -1.505,0.513275 -0.69457,0.597449 -0.791,0.864564 -0.791,2.191112 0,1.298551 0.11287,1.628528 0.80369,2.349589 0.94531,0.986686 2.07801,1.103971 2.88342,0.298563 z M 80.820083,53.399586 C 80.215072,52.435992 75.994969,39.59223 75.994969,38.714492 c 0,-0.851294 0.391998,-1.117327 1.646376,-1.117327 1.592218,0 2.096892,0.404328 2.452655,1.964983 0.971641,4.262379 2.527549,10.23938 2.714729,10.428598 0.442322,0.447136 0.793221,-0.638782 1.963464,-6.076287 0.66119,-3.072205 1.373085,-5.756748 1.581987,-5.96565 0.504713,-0.504714 2.496517,-0.352459 2.853874,0.218152 0.197146,0.314795 -0.25667,2.331407 -1.662621,7.388144 -2.614624,9.403935 -2.121229,8.460159 -4.422874,8.460159 -1.689908,0 -1.96151,-0.07262 -2.302476,-0.615678 z m 12.539386,0.101337 c -0.608223,-0.276278 -1.434491,-0.892877 -1.836148,-1.37022 -1.925115,-2.287868 -1.037323,-7.096666 1.646914,-8.920652 0.813003,-0.552451 1.346631,-0.687456 2.717267,-0.687456 1.522773,0 1.810758,0.09234 2.686808,0.861524 1.235469,1.084758 1.69564,1.972232 1.92701,3.716356 0.15712,1.184415 0.10113,1.46176 -0.39535,1.958236 -0.515323,0.515322 -0.891706,0.578394 -3.451562,0.578394 -1.816302,0 -2.873167,0.105229 -2.873167,0.286072 0,0.157341 0.31544,0.601514 0.700979,0.987053 0.658093,0.658093 0.83806,0.695 2.941576,0.60324 l 2.240597,-0.09774 v 1.082203 c 0,0.921184 -0.101785,1.110516 -0.684088,1.27249 -1.415677,0.393788 -4.484542,0.246645 -5.620836,-0.269502 z m 4.417179,-6.644987 c 0.268313,-0.43414 -1.130829,-1.596991 -1.921502,-1.596991 -0.7519,0 -2.073905,0.972013 -2.073905,1.524853 0,0.499685 3.689992,0.566309 3.995407,0.07214 z m 5.474272,6.726496 c -0.0913,-0.238058 -0.16609,-3.866229 -0.16609,-8.062605 0,-7.47692 0.0115,-7.635948 0.57608,-7.938082 0.6734,-0.360389 2.3392,-0.117931 2.51549,0.366127 0.25055,0.68799 -0.13693,15.387894 -0.41451,15.725349 -0.41732,0.507336 -2.30767,0.438986 -2.51097,-0.09079 z m 18.43066,0.0097 c -0.32686,-0.393919 -0.40611,-1.813123 -0.43329,-7.759686 -0.0204,-4.463068 0.0719,-7.409876 0.23873,-7.619638 0.38695,-0.486599 4.09913,-0.437643 6.09906,0.08043 3.66333,0.948978 4.90173,2.705963 4.90966,6.965666 0.006,3.266543 -0.20612,4.256809 -1.24996,5.832708 -1.2602,1.902553 -3.16923,2.741816 -6.5451,2.877409 -2.24849,0.09031 -2.67567,0.03698 -3.0191,-0.376894 z m 6.33431,-3.859051 c 1.53073,-1.530735 1.60136,-5.976899 0.11849,-7.459766 -0.49269,-0.492696 -1.04739,-0.692589 -2.18327,-0.786786 l -1.52275,-0.126282 v 4.720493 4.720494 l 1.39359,-0.133908 c 1.06932,-0.102748 1.57983,-0.320138 2.19394,-0.934249 z m 7.35109,3.580246 c -0.39947,-1.050685 -0.34655,-10.054362 0.0615,-10.462407 0.1806,-0.180599 0.74111,-0.328362 1.24558,-0.328362 0.77313,0 0.9622,0.12897 1.20341,0.820905 0.15739,0.451498 0.32266,0.820905 0.36727,0.820905 0.0446,0 0.47657,-0.369407 0.9599,-0.820905 1.8897,-1.765249 4.92543,-0.687219 4.92543,1.749093 0,1.356981 -1.6856,1.997143 -2.59953,0.987258 -0.74062,-0.818376 -1.64026,-0.689262 -2.37362,0.340656 -0.54881,0.770721 -0.64542,1.285431 -0.73187,3.899299 -0.0548,1.656254 -0.22469,3.165291 -0.3776,3.353415 -0.1529,0.188124 -0.75851,0.342044 -1.34581,0.342044 -0.89444,0 -1.11113,-0.113959 -1.33466,-0.701901 z m 11.27483,0.464357 c -0.28018,-0.177651 -0.35556,-1.389955 -0.33534,-5.393125 0.0144,-2.840178 0.13339,-5.271258 0.26453,-5.402399 0.48085,-0.480845 2.12074,-0.510639 2.58442,-0.04695 0.65443,0.654429 0.66966,9.997725 0.0174,10.650025 -0.45918,0.459188 -1.93348,0.571293 -2.53096,0.192454 z m 8.38654,-0.0461 c -0.46767,-0.272886 -2.76247,-7.037889 -3.22229,-9.499216 -0.27884,-1.492588 -0.11163,-1.69927 1.37996,-1.705623 1.35443,-0.0057 1.77144,0.563745 2.40784,3.288389 0.29765,1.274316 0.65949,2.624778 0.80412,3.001026 l 0.26294,0.684087 0.26867,-0.684087 c 0.14776,-0.376248 0.54103,-1.669173 0.87391,-2.873167 0.77291,-2.795488 1.16943,-3.420438 2.1702,-3.420438 1.6534,0 1.64654,0.438277 -0.0892,5.702937 -0.87621,2.657606 -1.78167,5.047497 -2.01213,5.310871 -0.46053,0.526314 -2.08546,0.637853 -2.84403,0.195221 z m 10.57075,-0.211033 c -3.23685,-1.527743 -4.06315,-5.497301 -1.84274,-8.852556 1.03115,-1.558162 2.15432,-2.145399 4.10337,-2.145399 2.6347,0 4.19618,1.353778 4.7798,4.144012 0.28206,1.348454 0.26376,1.634973 -0.14413,2.257488 -0.45641,0.696579 -0.53639,0.71301 -3.47085,0.71301 -2.46668,0 -3.00368,0.07226 -3.00368,0.404144 0,1.015513 2.32945,1.690542 4.20452,1.218391 1.50598,-0.379208 2.08909,-0.06832 2.08909,1.113815 0,1.127947 -0.54077,1.387785 -3.19465,1.535046 -1.99744,0.110836 -2.60603,0.04377 -3.52073,-0.387951 z m 4.10463,-6.594265 c 0.51121,-0.199917 0.50227,-0.243437 -0.19279,-0.93849 -0.88883,-0.888842 -2.04051,-0.950053 -3.04272,-0.16172 -0.84089,0.661444 -0.90855,0.985536 -0.24212,1.159691 0.77768,0.203229 2.89862,0.166953 3.47763,-0.05948 z m -23.37495,-5.206605 c -0.43414,-0.811194 -0.33934,-1.603727 0.26401,-2.20707 1.11459,-1.114598 3.00998,-0.287521 3.00998,1.313448 0,1.061835 -0.46277,1.422902 -1.82372,1.422902 -0.87373,0 -1.23819,-0.133012 -1.45027,-0.52928 z"
       style="display:inline;fill:#333333;stroke-width:0.855109"
       id="path1-9" /><path
       d="m 297.91292,109.72902 c -6.84181,-1.52543 -11.6341,-8.78585 -10.44966,-15.831403 1.37055,-8.152535 9.77073,-13.402316 17.49526,-10.933839 6.20774,1.98377 10.39571,8.744679 9.45625,15.265828 -1.13259,7.861734 -8.81281,13.213744 -16.50185,11.499414 z m 5.25401,-2.11104 c 1.90398,-0.39836 4.27021,-1.66494 5.54022,-2.96555 0.99184,-1.01574 1.0085,-1.06597 0.60934,-1.83787 -0.51405,-0.99407 -2.80562,-3.156371 -4.04081,-3.812881 -0.68111,-0.362009 -1.72871,-0.525649 -3.88777,-0.607287 -2.86796,-0.108442 -3.00722,-0.08625 -4.70579,0.749956 -1.8585,0.914932 -3.84993,2.874362 -4.15446,4.087702 -0.14486,0.57717 0.0266,0.86998 1.032,1.76218 2.72641,2.41948 6.13469,3.35028 9.60727,2.62375 z m -0.0558,-11.736102 c 0.66166,-0.337559 1.33812,-1.001216 1.76772,-1.73426 2.41971,-4.128937 -1.9368,-8.973177 -6.00007,-6.671808 -2.75464,1.560176 -3.35477,4.909851 -1.31414,7.335005 1.37689,1.636339 3.5978,2.065211 5.54649,1.071063 z"
       style="display:inline;fill:#999999;stroke-width:0.855109"
       id="path1-5" /><path
       style="fill:#4d4d4d;stroke-width:0.0298286"
       d="m 250.29738,105.28347 c -0.31431,-0.0178 -0.42731,-0.0665 -0.59315,-0.25536 -0.14641,-0.16677 -0.17156,-0.30006 -0.11114,-0.58916 0.0815,-0.39009 0.13287,-0.51711 0.27116,-0.67093 0.11655,-0.12961 0.1512,-0.14898 0.34839,-0.19468 0.26766,-0.062 0.59409,-0.10921 0.76119,-0.10999 0.16332,-6.4e-4 0.22261,-0.0764 0.32401,-0.41356 0.0428,-0.142 0.14269,-0.45953 0.22215,-0.70562 0.20651,-0.63951 0.29866,-0.95465 0.29866,-1.02138 0,-0.0763 -0.0813,-0.14433 -0.19889,-0.16645 -0.0925,-0.0174 -1.03204,-0.035 -3.48495,-0.0652 -0.67264,-0.009 -1.29009,-0.0231 -1.37214,-0.0329 -0.52114,-0.0623 -1.04999,-0.3638 -1.25649,-0.71615 -0.23567,-0.402141 -0.27554,-0.705885 -0.27361,-2.084417 6.3e-4,-0.590605 -4.2e-4,-1.771824 -0.003,-2.624928 -0.01,-3.285227 0.0598,-5.241537 0.21154,-5.965744 0.0746,-0.355929 0.41475,-0.770737 0.76787,-0.936363 0.16396,-0.07686 0.17402,-0.07781 0.85257,-0.07704 0.77651,6.35e-4 0.8928,0.02399 1.05651,0.210511 0.11709,0.133354 0.13317,0.206149 0.11195,0.50679 -0.019,0.270006 -0.0674,0.726032 -0.21089,0.877073 -0.1082,0.114004 -0.32648,0.09022 -0.40915,0.156404 -0.0576,0.0461 -0.20587,0.06161 -0.25945,0.55087 -0.0428,0.390163 -0.0356,0.619989 -0.0568,3.648414 -0.009,1.271444 -0.006,2.620447 0.007,2.997782 0.0262,0.787011 0.0488,0.882009 0.22676,0.956372 0.25536,0.106703 0.73844,0.119009 8.30341,0.110611 5.97035,-0.0069 5.72141,-0.03333 5.93941,-0.141631 0.16724,-0.08304 0.17006,-0.09951 0.19416,-1.130412 0.0123,-0.523723 0.0223,-2.301219 0.0223,-3.950007 l 0.0307,-2.601457 c 0.005,-0.259998 -0.0834,-0.313195 -0.31598,-0.349691 -0.28549,-0.04482 -0.40303,-0.07481 -0.53519,-0.215087 -0.11659,-0.12373 -0.19006,-0.739297 -0.18985,-0.968077 4.2e-4,-0.350514 0.11463,-0.576269 0.34292,-0.677248 0.11326,-0.05004 0.16875,-0.05321 0.55507,-0.03154 0.23607,0.0132 0.49633,0.02108 0.57836,0.01722 0.35978,-0.01645 0.70817,0.09524 0.93424,0.299476 0.15444,0.139523 0.33007,0.403069 0.38067,0.571196 0.15018,0.499 0.17768,1.497661 0.17241,6.260891 -0.004,4.103078 -0.003,4.036898 -0.18688,4.428372 -0.11532,0.24382 -0.21401,0.3666 -0.41485,0.51609 -0.20982,0.15615 -0.27563,0.19226 -0.48289,0.26492 -0.39881,0.13981 -0.58692,0.14927 -2.99779,0.15074 -2.45096,0.002 -2.43105,2.2e-4 -2.43105,0.15516 0,0.0386 0.0527,0.23615 0.11703,0.43922 0.0644,0.20305 0.18587,0.60409 0.27,0.89121 0.25402,0.86692 0.26907,0.89468 0.48546,0.8951 0.0697,1.5e-4 0.27305,0.0195 0.45183,0.0432 0.42947,0.0567 0.55659,0.13087 0.69324,0.40435 0.12799,0.25614 0.20082,0.60178 0.17328,0.82221 -0.0369,0.29541 -0.24528,0.46346 -0.62483,0.50392 -0.24002,0.0256 -8.26715,0.0413 -8.69508,0.017 z m 5.81168,-1.80772 c 0.16533,-0.068 0.16969,-0.13736 0.0397,-0.63226 -0.0636,-0.24181 -0.16531,-0.63429 -0.22619,-0.87217 -0.22827,-0.89216 -0.19117,-0.84212 -0.61609,-0.83074 -0.3113,0.009 -0.81535,0.0278 -1.19176,0.0183 -0.25888,-0.006 -0.46062,0.0375 -0.52967,0.11498 -0.0234,0.0261 -0.0766,0.16171 -0.11837,0.30117 -0.0717,0.23938 -0.11555,0.40343 -0.36541,1.3678 -0.0568,0.2191 -0.0951,0.42382 -0.0853,0.45492 0.0404,0.12734 -0.3012,0.0915 1.30406,0.10022 0.84393,0.004 0.97353,0.0157 1.08445,0.0169 0.0916,-4.7e-4 0.62142,-0.005 0.70458,-0.039 z m -1.64338,-8.497168 c -0.15186,-0.05416 -0.38691,-0.240031 -0.63386,-0.501168 -0.11278,-0.119258 -0.35452,-0.3712 -0.53719,-0.559868 -0.28896,-0.298447 -0.49693,-0.52811 -0.86419,-0.954315 -0.0494,-0.05733 -0.13465,-0.148196 -0.18949,-0.20195 -0.0548,-0.05373 -0.18078,-0.194795 -0.27988,-0.313401 -0.17968,-0.215086 -0.62993,-0.704086 -1.14497,-1.243508 -0.14946,-0.156533 -0.36445,-0.385287 -0.47777,-0.508323 -0.11333,-0.123045 -0.3736,-0.396154 -0.57838,-0.606913 -0.47127,-0.485015 -0.52239,-0.559841 -0.54706,-0.800558 -0.032,-0.31227 0.0683,-0.524125 0.29584,-0.624762 0.10599,-0.04687 0.23281,-0.05896 0.77829,-0.07447 0.35843,-0.01011 0.83946,-0.02691 1.06897,-0.03719 0.40855,-0.01834 0.41803,-0.0204 0.45325,-0.09399 0.0263,-0.05501 0.0404,-0.572036 0.0524,-1.923952 0.0187,-2.102183 0.0377,-2.814282 0.0795,-2.975143 0.0386,-0.148324 0.19008,-0.316751 0.34775,-0.386487 0.24313,-0.107552 1.26158,-0.158632 3.05315,-0.15314 1.34833,0.0043 1.42728,0.0077 1.55474,0.06376 0.20029,0.0886 0.36098,0.250229 0.45833,0.460996 l 0.0862,0.186783 0.007,1.446692 c 0.003,0.795691 0.0103,1.848989 0.0154,2.340671 l 0.009,0.893971 0.0963,0.06487 c 0.0837,0.05638 0.15371,0.06753 0.53648,0.08483 1.1948,0.05416 1.33242,0.06658 1.48888,0.13385 0.25519,0.10978 0.48806,0.401561 0.48663,0.609749 -0.002,0.209242 -0.12266,0.390617 -0.61045,0.913303 -0.11494,0.123174 -0.35664,0.384294 -0.53711,0.580254 -0.363,0.394173 -0.70385,0.76072 -0.80147,0.861905 -0.18105,0.187639 -1.47295,1.591914 -1.67682,1.822665 -0.77319,0.875153 -1.26993,1.372011 -1.46299,1.463341 -0.17511,0.08286 -0.35207,0.0934 -0.52584,0.03145 z"
       id="path122" /></g><g
     id="install"><path
       style="fill:#d40000;stroke-width:0.61133"
       d="m 209.78526,282.64015 c -8.20002,-0.24276 -12.07185,-0.91827 -16.29542,-2.84302 -5.61349,-2.55814 -9.92736,-7.76792 -11.28357,-13.6269 -0.39498,-1.70633 -0.83756,-5.53413 -1.07976,-9.33865 -0.53615,-8.42182 -0.39874,-25.8892 0.20122,-31.93171 0.32468,-3.26999 0.96622,-6.79498 1.5507,-8.52051 2.33272,-6.88677 8.7163,-11.80881 17.17725,-13.24453 3.43513,-0.58291 1.96291,-0.69922 16.86154,-0.69922 h 15.02099 l 0.57564,-0.53797 c 0.3166,-0.29589 4.15499,-4.58743 8.52978,-9.53676 4.37477,-4.94931 8.40182,-9.33003 8.94899,-9.73491 1.01992,-0.75472 3.06648,-1.51356 4.08196,-1.51356 0.91057,0 2.93471,0.92405 3.76013,1.71655 1.25274,1.20277 8.28659,8.9446 10.79308,11.87943 1.28645,1.50631 3.33998,3.86117 4.5634,5.23298 l 2.22437,2.49424 5.70092,0.0144 c 14.50836,0.0366 23.83364,0.34568 25.96314,0.66494 8.39686,1.25892 13.74996,4.79006 16.94484,11.17758 1.47018,2.93934 2.15708,6.26542 2.55603,12.37686 0.36316,5.5633 0.63527,15.07137 0.50668,23.60276 -0.19399,12.87184 -0.58228,11.94752 -1.46994,15.55826 -2.12988,8.6637 -8.59779,14.31822 -18.20573,15.9162 -3.44669,0.57325 -5.93474,0.72739 -14.67193,0.90895 -10.13731,0.21065 -75.74226,0.19815 -82.95431,-0.0153 z"
       id="path125" /><path
       d="m 237.55375,258.62439 c -1.62397,-0.36334 -3.50091,-1.18992 -4.36632,-1.92289 -1.20248,-1.01841 -1.2275,-2.9116 -0.0515,-3.90108 0.86055,-0.7241 1.53719,-0.79851 2.86075,-0.31461 0.63171,0.23096 1.72074,0.62949 2.42011,0.88561 2.81939,1.03257 5.28189,0.34582 5.28189,-1.47303 0,-1.06852 -0.5658,-1.46636 -3.7458,-2.63376 -1.5442,-0.56689 -3.1943,-1.22843 -3.66686,-1.47004 -1.27531,-0.65208 -2.68435,-2.06863 -3.29547,-3.31303 -0.45333,-0.92312 -0.54034,-1.35235 -0.54034,-2.66532 0,-1.31534 0.0867,-1.74165 0.54378,-2.67236 0.97685,-1.98914 3.05424,-3.36858 6.02807,-4.00276 3.19001,-0.68025 7.5473,0.18892 9.04518,1.80433 0.61105,0.65897 0.96419,1.8576 0.80201,2.72209 -0.14406,0.76795 -1.05456,1.65963 -1.69463,1.65963 -0.2236,0 -1.35962,-0.3081 -2.52451,-0.68468 -2.92254,-0.94479 -5.30712,-0.90175 -5.84621,0.10553 -0.33045,0.61746 -0.21908,1.46396 0.24867,1.88999 0.60905,0.55475 1.00032,0.73801 3.44584,1.61405 4.16877,1.49335 5.66773,2.52144 6.67597,4.57885 1.90838,3.89422 -0.0896,8.14327 -4.48537,9.53902 -1.72964,0.5492 -5.25578,0.67494 -7.1352,0.25446 z m 37.73839,0.0459 c -2.21779,-0.57796 -3.93144,-1.96819 -4.92825,-3.9981 -0.47839,-0.97417 -0.54926,-1.34568 -0.54926,-2.87913 0,-1.49353 0.0782,-1.92742 0.51551,-2.86004 1.02649,-2.1892 2.58647,-3.37704 5.36997,-4.08896 1.78048,-0.45535 4.64183,-0.50943 6.48784,-0.12259 l 1.22266,0.25621 v -1.14841 c 0,-2.33471 -1.1507,-3.42992 -3.79135,-3.60857 -1.4355,-0.0971 -2.14114,0.0451 -4.59345,0.92582 -1.15108,0.41339 -1.30473,0.42591 -2.04768,0.16702 -0.50886,-0.17731 -0.96689,-0.5235 -1.24977,-0.9446 -1.82561,-2.71759 2.13557,-5.32913 8.16099,-5.3804 5.43481,-0.0462 8.15995,1.83775 9.10437,6.29419 0.37594,1.77405 0.40833,15.541 0.0382,16.26489 -0.32586,0.6374 -1.32521,0.96174 -3.01841,0.97965 -1.74818,0.0185 -2.36846,-0.39601 -2.54331,-1.69953 l -0.1118,-0.83349 -0.95829,0.89639 c -1.3581,1.27034 -2.7688,1.86827 -4.62447,1.96008 -0.86172,0.0426 -1.92364,-0.0345 -2.48354,-0.18043 z m 5.84893,-5.29026 c 1.08744,-0.63727 1.88373,-1.90413 1.9377,-3.08281 0.0359,-0.78455 4.9e-4,-0.84715 -0.54847,-0.96878 -1.14966,-0.25473 -3.94004,-0.18377 -4.80743,0.12227 -1.10734,0.39069 -1.50853,0.77564 -1.75247,1.68158 -0.26297,0.97659 0.13917,1.97137 1.02169,2.52734 0.92473,0.58254 2.90565,0.44906 4.14898,-0.2796 z m -20.96088,5.05547 c -2.21258,-0.59578 -3.845,-1.82282 -4.52355,-3.40016 -0.64852,-1.50755 -0.79935,-3.2268 -0.8035,-9.15995 l -0.004,-5.52643 h -1.35665 c -1.80106,0 -2.26623,-0.19833 -2.56115,-1.09197 -0.30556,-0.92584 -0.12811,-2.74014 0.31599,-3.23088 0.41889,-0.46286 1.46378,-0.76091 2.67258,-0.76233 l 0.92923,-8.3e-4 8.2e-4,-2.78767 c 8.3e-4,-3.0829 0.19681,-4.13761 0.83025,-4.47662 0.23263,-0.1245 1.29223,-0.23557 2.35467,-0.24683 2.725,-0.0288 2.68277,-0.0951 2.68277,4.20716 v 3.30396 l 2.20079,8.3e-4 c 3.57867,0.002 4.25485,0.40219 4.25485,2.51959 0,2.19811 -0.58752,2.56559 -4.10186,2.56559 h -2.35378 l 6e-4,5.81986 c 6.1e-4,5.36588 0.0297,5.86725 0.37118,6.42737 0.42415,0.69558 1.47802,1.04818 3.18707,1.06636 2.11338,0.0224 2.88808,0.63656 2.89378,2.29385 0.005,1.25983 -0.44723,2.15732 -1.25535,2.49497 -0.88743,0.3708 -4.33476,0.36125 -5.73525,-0.0159 z m 36.14321,-0.2294 c -0.89495,-0.46909 -1.16388,-0.74131 -1.60988,-1.62965 -0.29449,-0.58658 -0.62463,-1.63871 -0.73361,-2.33807 -0.29656,-1.90284 -0.24755,-27.08893 0.0544,-27.97447 0.29574,-0.86724 1.04512,-1.14758 3.10806,-1.1627 1.31793,-0.01 1.57348,0.0477 2.05408,0.461 l 0.54887,0.47205 0.0978,13.84882 0.0978,13.84883 0.78252,0.15967 c 1.07395,0.21916 1.27155,0.56599 1.27155,2.23173 0,1.2176 -0.067,1.49675 -0.47189,1.96776 -0.44483,0.51741 -0.57665,0.55259 -2.2986,0.61354 -1.69812,0.06 -1.90234,0.025 -2.90115,-0.49851 z m 11.78166,0.31196 c -1.01688,-0.29347 -2.29782,-1.66841 -2.71131,-2.91031 -0.33099,-0.9941 -0.36284,-2.11374 -0.41879,-14.72087 -0.0422,-9.46973 0.005,-13.8889 0.1541,-14.44219 0.28036,-1.04123 0.99943,-1.35453 3.10881,-1.35453 1.36737,0 1.62829,0.0584 2.10927,0.47207 l 0.54888,0.47206 0.0978,13.85136 0.0978,13.85136 0.84138,0.16635 c 0.99455,0.19665 1.21268,0.59526 1.21268,2.21592 0,1.26127 -0.41031,2.1698 -1.09804,2.43126 -0.6157,0.23411 -3.08949,0.21372 -3.9426,-0.0325 z M 198.60689,258.3256 c -0.9088,-0.51868 -0.88032,-4.1e-4 -0.88032,-16.0142 0,-16.86973 -0.084,-15.84274 1.32625,-16.23438 0.4003,-0.11116 1.37282,-0.20263 2.16116,-0.20322 1.32606,-8.3e-4 1.4764,0.042 2.00867,0.57423 l 0.57531,0.57533 -0.0524,15.36123 c -0.0493,14.43816 -0.0735,15.38222 -0.40129,15.71051 -0.28119,0.28152 -0.73668,0.35941 -2.34751,0.40154 -1.23468,0.0323 -2.14818,-0.0331 -2.38988,-0.17104 z m 11.31832,0.0226 c -1.06802,-0.431 -1.04821,-0.21596 -1.04508,-11.34256 0.003,-7.87614 0.0605,-10.38994 0.24963,-10.7648 0.3209,-0.63604 1.28432,-0.95337 2.93611,-0.96707 1.78684,-0.0149 2.41811,0.32196 2.72015,1.45124 l 0.23077,0.86284 0.7379,-0.66665 c 1.36984,-1.23756 2.59377,-1.72012 4.60324,-1.81492 2.23321,-0.10534 3.98548,0.37108 5.44092,1.47931 0.98424,0.74942 2.05957,2.29044 2.48773,3.56509 0.15795,0.47023 0.25268,3.27353 0.29986,8.87382 0.0768,9.11492 0.10747,8.8831 -1.23351,9.32565 -1.06977,0.35306 -3.28014,0.17156 -3.94422,-0.32388 l -0.54424,-0.40599 -0.0978,-7.21736 -0.0978,-7.21736 -0.48905,-0.96796 c -0.64611,-1.27876 -1.24089,-1.6807 -2.68029,-1.81121 -1.42497,-0.12921 -2.38477,0.15543 -3.33379,0.98867 -1.38776,1.21847 -1.41059,1.36354 -1.4154,8.99261 -0.003,4.49666 -0.0761,6.94505 -0.21567,7.2058 -0.11626,0.21721 -0.50957,0.51955 -0.87404,0.67183 -0.72254,0.30189 -3.06395,0.35385 -3.73539,0.0829 z"
       style="fill:#ffffff;stroke-width:0.61133"
       id="path1-54" /></g></svg>
