<?xml version="1.0" encoding="UTF-8" standalone="no"?>
<!-- Created with Inkscape (http://www.inkscape.org/) -->

<svg
   version="1.1"
   id="svg1"
   width="360"
   height="360"
   viewBox="0 0 360 360"
   xml:space="preserve"
   xmlns="http://www.w3.org/2000/svg"
   xmlns:svg="http://www.w3.org/2000/svg"><defs
     id="defs1" /><g
     id="background2"
     transform="matrix(0.20516825,-0.99065733,0.99065733,0.20516825,75.517306,333.56988)"
     style="fill:#cd0000;fill-opacity:1"><path
       style="display:inline;fill:#cbcbcb;fill-opacity:0.678431;stroke:none"
       d="M 95.275878,119.9788 97.427716,258.12006 344.60548,152.91345 222.01404,102.28902 35.580092,-59.46513 Z"
       id="path2-1" /></g><g
     id="background"
     transform="matrix(1.0116797,0,0,1.0116797,6.037999,64.579673)"
     style="fill:#cd0000;fill-opacity:1"><path
       style="display:inline;fill:#97cbdb;fill-opacity:1;stroke:none"
       d="M 4.1287054,143.23203 96.671212,251.13018 231.72826,191.00478 189.31951,66.457758 36.434937,-4.7223566 Z"
       id="path2" /></g><g
     id="robot"><path
       id="path110"
       style="fill:#78a659;fill-opacity:1;stroke-width:0.151735"
       d="m 114.01871,201.17149 c -1.57535,0.034 -3.13672,0.24437 -4.69153,0.48643 -0.54582,4.5153 -0.15935,9.06977 0.0225,13.5957 3.78333,0.17405 7.54207,0.73831 11.32991,0.79941 1.28298,0.0252 2.7515,-0.15472 3.54736,-1.29249 0.40487,-1.23021 0.24574,-2.60973 0.32852,-3.90444 0.0179,-2.58083 0.12319,-5.17061 -0.0419,-7.74639 -0.13931,-0.52733 -0.0209,-1.25242 -0.7268,-1.34446 -1.28891,-0.69902 -2.8278,-0.45953 -4.23742,-0.59766 -1.84332,-0.0516 -3.68745,-0.0514 -5.53069,0.004 z" /><path
       d="m 89.954406,201.99599 c 0,0 -2.053853,7.79838 -0.882715,9.04501 l 7.097401,1.08367 0.405673,-9.36616 z"
       style="stroke-width:0.151735"
       id="path109" /><path
       d="m 79.684866,198.7168 c 0,0 -3.386243,7.36803 -3.386243,8.14538 0,0.59382 9.102951,4.07422 9.114497,3.69426 0.151476,-4.98387 1.404832,-9.52204 1.404832,-9.52204 z"
       style="stroke-width:0.151735"
       id="path107" /><path
       d="m 69.943077,192.84017 c 0,0 -4.878853,8.30323 -4.398548,8.89101 0.554784,0.67889 6.116345,3.95894 6.505795,4.22576 1.036977,0.71046 4.85493,-8.42912 4.85493,-8.47219 0,-0.0431 -6.962177,-4.64458 -6.962177,-4.64458 z"
       style="stroke-width:0.151735"
       id="path103" /><path
       d="m 62.468174,185.75404 c -4.244893,0.0108 -5.939303,6.53461 -5.673788,7.36785 0.332271,1.04273 5.311312,6.05505 5.455927,6.05505 0.03848,0 5.572371,-8.13037 5.572371,-8.13037 0,0 -3.416825,-4.99457 -4.471795,-5.20426 -0.305841,-0.0608 -0.599722,-0.0889 -0.882715,-0.0883 z"
       style="stroke-width:0.151735"
       id="path101" /><path
       id="path92"
       style="fill:#999999;stroke-width:0.151735"
       d="m 132.26461,146.4075 c -1.41549,1.51189 -2.96751,2.92219 -4.19927,4.58974 -0.28788,0.42115 -0.40446,0.87183 -0.25187,1.36953 -0.0808,0.37392 0.5869,1.15256 0.24604,1.16255 -2.23064,-0.33292 -4.1016,1.26447 -5.68914,2.60339 -1.07191,0.92198 -2.10944,1.88285 -3.16243,2.82625 0.12023,0.33646 0.73863,1.27132 0.58064,1.27358 -0.40797,-0.31985 -1.01118,-0.46751 -1.49489,-0.5 -1.6353,0.75676 -2.8919,2.10472 -4.31274,3.18274 -1.2102,1.00741 -2.42057,2.01464 -3.6302,3.02276 0.56878,0.58562 0.2815,0.61087 -0.36374,0.64744 -2.03305,0.5932 -3.83943,1.76948 -5.69441,2.76507 -0.91274,0.51988 -1.81647,1.05554 -2.7258,1.5814 0.54199,0.71544 -0.52193,0.27606 -0.91163,0.48384 -1.785673,0.67016 -3.359432,1.80124 -5.042,2.6883 1.814035,2.30204 3.787039,4.50587 5.29817,7.02603 0.19973,0.46998 0.27543,1.22884 0.86388,1.33643 1.00162,0.56928 2.14845,0.15062 3.09438,-0.32908 0.77371,-0.36411 1.52933,-0.76553 2.29586,-1.14445 -0.33315,-0.6936 -0.66456,-1.38805 -0.99916,-2.08096 0.91694,1.04428 2.59208,1.57533 3.78073,0.6706 2.0465,-1.26379 4.07995,-2.54866 6.15263,-3.76949 -0.15901,-1.0232 -0.39118,-2.02855 -0.95421,-2.91332 -0.10934,-0.27295 -0.91456,-1.56918 -0.50407,-1.07771 0.78514,0.85316 1.54985,1.83824 2.59431,2.35724 1.12494,0.52108 2.26716,-0.3585 3.05792,-1.10674 1.42804,-1.29009 2.72069,-2.71956 4.03784,-4.12022 -0.51777,-1.19081 -1.01973,-2.38888 -1.56259,-3.56843 0.70132,1.07649 1.82439,2.24057 3.23786,1.92319 1.06375,-0.13763 1.99641,-0.74104 2.79089,-1.43112 0.9714,0.57502 2.3109,0.53377 3.15711,-0.24416 1.38136,-0.77104 2.68162,-2.06073 2.67444,-3.74872 0.13798,-0.27027 -0.37354,-1.30695 0.13621,-0.94576 1.2028,0.6279 2.52649,-0.10208 3.38228,-0.97734 1.2222,-1.21406 2.47451,-2.47484 3.27278,-4.01738 0.42519,-0.92922 -0.0918,-1.93171 -0.80384,-2.55424 -2.32663,-2.80649 -4.55705,-5.69068 -6.82132,-8.5473 -0.51022,0.52212 -1.02044,1.04422 -1.53066,1.56634 z m -46.842099,22.54116 c -4.74733,0.24526 -9.440966,1.08015 -14.174943,1.48834 -1.414975,0.25982 -2.960585,-0.084 -4.276151,0.5962 -1.438219,0.79421 -1.50027,2.60726 -1.453182,4.05765 0,0.59073 0,1.18146 0,1.77219 7.347027,-0.12465 14.675243,-0.7264 22.00401,-1.21514 0.415297,-1.61577 1.110315,-3.22074 1.042355,-4.91503 -0.143015,-0.79119 -0.671429,-1.54293 -1.496891,-1.69704 -0.534907,-0.10105 -1.099191,-0.0871 -1.645198,-0.0871 z m -23.046364,14.88407 c -2.756751,0.009 -4.993372,2.10879 -6.163977,4.45301 -0.760255,1.58362 -1.487558,3.33096 -1.322194,5.11974 0.373139,1.45361 1.597379,2.48286 2.520729,3.60578 1.287863,1.33473 2.489602,2.78929 3.975627,3.90835 0.455465,0.23007 0.981078,0.85397 1.396041,0.85666 0.382454,-0.54771 0.76392,-1.0961 1.146976,-1.64337 -0.465114,1.01091 -0.55478,2.40353 0.431966,3.13082 2.142684,1.67909 4.551733,2.98513 6.855125,4.42672 1.13549,0.62496 2.477364,-0.0704 3.168382,-1.04235 -0.184437,0.8417 0.442227,1.67395 1.147074,2.09633 2.370491,1.35982 4.975345,2.26462 7.537748,3.19416 1.011497,0.33989 2.135573,0.78228 3.182018,0.46427 0.350817,-0.14937 0.884005,-1.25541 1.062517,-0.50288 0.365781,0.42631 0.583772,1.10299 1.261102,1.01036 3.14104,0.47992 6.282327,0.95822 9.423097,1.4399 0.190119,-4.43241 0.384039,-8.86467 0.574703,-13.29705 -3.166504,-0.36498 -6.333209,-0.72823 -9.499512,-1.09494 0.0099,-0.48838 -1.016537,-0.40703 -1.412695,-0.67218 -3.016067,-0.99843 -6.063871,-1.93296 -9.060172,-2.97119 -2.949261,-2.05743 -6.018151,-3.96744 -8.956924,-6.02132 -1.447909,-1.99991 -2.811025,-4.12583 -4.698368,-5.74526 -0.715952,-0.60979 -1.663977,-0.71798 -2.569263,-0.71556 z m 23.453915,33.13748 c -0.843896,-0.0438 -1.535369,0.44575 -2.0404,1.07505 -0.272898,0.60348 -0.03985,1.39057 0.08189,2.04351 0.573752,2.4317 1.009727,4.94745 2.118442,7.20556 0.568351,0.60981 -0.642498,0.16396 -0.347312,1.04923 -0.374349,2.96342 -0.739982,5.94393 -1.211606,8.88455 -1.299763,2.55926 -2.970339,5.162 -2.937587,8.13358 0.0063,1.00819 0.518859,1.89652 0.916519,2.79089 6.660417,0.0593 13.320856,0.11613 19.981282,0.17466 -0.0382,-2.57007 0.35577,-5.42128 -1.21133,-7.65913 -1.422313,-2.09762 -3.979411,-2.94164 -6.361237,-3.36542 0.378898,-3.17908 0.7615,-6.35772 1.138138,-9.53706 0.979738,0.0972 0.332197,-0.6444 0.128029,-1.15747 -1.446493,-3.08357 -2.890721,-6.16821 -4.338765,-9.25105 -1.969372,-0.15471 -3.938417,-0.39372 -5.916067,-0.3869 z m -22.082891,1.18509 c -1.598873,0.0663 -3.608526,0.22782 -4.463394,1.79821 -0.778427,1.77385 -0.274481,3.7713 -0.0065,5.60532 0.204402,1.07844 0.463629,2.14525 0.698659,3.21722 -1.072445,0.63722 -0.96471,1.99449 -1.354886,3.03539 -0.553055,1.91693 -1.070827,3.9144 -1.683906,5.76922 -1.382737,2.64345 -2.918079,5.27309 -3.647302,8.18858 -0.193695,0.7558 -0.129912,1.67203 0.539296,2.17154 1.017095,0.89129 2.511734,0.68515 3.774738,0.78086 5.407034,0.0303 10.807961,-0.28761 16.206264,-0.55779 -0.854281,-2.80316 -1.417481,-5.85104 -3.30924,-8.18296 -0.78742,-0.93127 -1.996826,-1.31385 -3.108283,-1.70721 1.101251,-2.1877 2.404999,-4.36991 2.786548,-6.82289 0.205731,-1.1576 -0.408469,-2.39838 -1.513185,-2.84753 1.086591,-0.089 1.78058,-1.16885 1.77201,-2.20312 0.0321,-1.98396 -0.09214,-4.00079 -0.571894,-5.931 -0.653196,-1.5042 -2.453794,-1.96278 -3.93768,-2.18586 -0.721591,-0.10419 -1.45258,-0.1386 -2.181223,-0.12798 z" /><path
       id="path86"
       style="fill:#f9f9f9;stroke-width:0.151735"
       d="m 95.057247,131.76383 c -2.572047,0.0524 -4.657854,1.90081 -6.165855,3.82009 -2.23477,2.91031 -2.583094,6.93118 -1.387137,10.33672 0.829916,2.3434 2.140562,4.72856 4.343292,6.02543 2.327476,1.09356 5.012166,0.44277 7.326118,-0.35947 2.206845,-0.637 3.704185,-2.67026 4.216785,-4.83728 0.76438,-3.23723 0.46412,-6.76205 -0.92779,-9.79062 -1.35798,-2.82041 -4.120169,-5.28234 -7.405413,-5.19487 z m -23.545943,3.21534 c -2.888568,0.025 -5.790811,1.51691 -7.198531,4.09131 -1.965073,3.52733 -1.598801,7.97577 0.112869,11.52684 1.322934,2.78944 3.939669,5.22203 7.149518,5.38107 2.474874,0.11453 4.919719,-1.00825 6.682338,-2.70262 1.838091,-1.87669 2.161022,-4.64332 2.054406,-7.15033 -0.0707,-2.95605 -0.188994,-6.20389 -2.0807,-8.64086 -1.584582,-2.02788 -4.275119,-2.58725 -6.7199,-2.50541 z m 25.551772,6.41377 c 1.152713,0.26155 1.339593,1.5786 1.416134,2.5658 0.09186,0.69751 -0.126505,1.85034 -1.048024,1.73884 -0.925978,-0.85785 -1.04698,-2.31628 -0.83892,-3.50257 0.09567,-0.24932 0.162518,-0.79896 0.47081,-0.80207 z m -21.83498,2.7796 c 0.579551,-0.0506 0.823173,0.42542 0.717842,0.93792 -0.01407,1.19347 -0.123219,2.45605 -0.725354,3.51135 -1.182869,-0.31584 -1.386685,-1.80707 -1.364385,-2.84779 -0.03826,-0.71652 0.287144,-1.60399 1.137042,-1.59591 0.07775,-0.0143 0.156543,-0.004 0.234855,-0.006 z" /><path
       id="path85"
       style="fill:#333333;stroke-width:0.151735"
       d="m 92.668283,126.50886 c -7.936769,-0.11493 -16.512226,2.0141 -23.2492,3.19092 -7.699391,1.34495 -11.401629,5.16627 -12.635966,10.50243 -1.665678,7.20092 -0.284593,17.26756 9.095716,20.22167 3.626617,1.10546 20.792155,-0.73256 30.549439,-3.20406 4.091598,-1.03639 8.710308,-4.09842 9.634738,-8.21676 1.78531,-7.95355 0.73225,-21.15056 -10.038532,-22.29887 -1.100542,-0.11734 -2.222371,-0.17891 -3.356195,-0.19533 z m 2.492261,7.17441 c 2.488944,-0.0466 4.999016,2.12383 6.056926,5.30568 1.0458,3.14539 1.12183,8.78524 -1.823652,10.41979 -0.597372,0.33149 -4.581151,1.88377 -6.656044,0.83012 -2.578305,-1.30915 -7.518708,-10.33539 -0.0037,-15.72547 0.770393,-0.55256 1.596877,-0.81462 2.426526,-0.83012 z m -22.993777,3.21533 c 0.382557,0.01 0.781758,0.0407 1.198238,0.094 4.048315,0.51704 5.029595,3.65102 5.029595,9.72863 0.05898,3.65509 -0.889418,5.75111 -4.72534,7.09177 -9.102944,2.7139 -13.36179,-17.21366 -1.502493,-16.91431 z m 24.65591,2.53922 c -0.385261,0.007 -0.720478,0.11452 -0.942815,0.32866 -2.264225,1.72701 -1.402513,7.31398 1.207629,7.83363 1.397359,0.2782 4.346009,-0.78247 2.965549,-5.68131 -0.456588,-1.6203 -2.07458,-2.50234 -3.230363,-2.48098 z m -21.850005,2.80966 c -0.993465,0.0461 -1.974983,0.51636 -2.514797,1.3898 -1.071202,1.73325 -0.724545,6.62434 2.783368,6.92837 2.727584,0.2364 2.999996,-6.4455 2.315717,-7.16688 -0.584746,-0.82121 -1.590822,-1.19744 -2.584288,-1.15129 z" /><path
       id="path84"
       style="fill:#bf4040;fill-opacity:1;stroke-width:0.151735"
       d="m 147.45481,115.7604 c -0.59576,5.17406 -1.30871,10.3388 -1.71096,15.53202 -0.002,0.62393 0.0977,1.31047 0.67806,1.66093 1.48966,1.36853 2.92806,3.32078 2.41504,5.45978 -0.42922,1.69122 -1.35404,3.30804 -2.77669,4.35185 -0.50342,0.48556 -1.20082,0.85341 -1.61006,1.38291 -1.54164,13.66029 -3.16665,27.31043 -4.56232,40.98637 0.0114,0.6276 -0.25823,1.40277 0.35257,1.82185 1.02629,1.18991 2.72909,1.31688 4.17025,1.64934 1.8547,0.28397 3.76186,0.65469 5.63404,0.33576 0.94939,-0.21879 1.70637,-1.07599 1.67759,-2.0669 2.70278,-23.28068 5.26738,-46.58334 7.92709,-69.86308 0.0269,-0.49504 -0.15015,-1.04457 -0.40292,-1.44042 -1.20881,-0.92864 -2.82097,-0.77541 -4.25089,-1.00663 -2.43664,-0.2415 -4.87658,-0.44421 -7.3173,-0.64058 -0.0745,0.61227 -0.149,1.22454 -0.2235,1.8368 z" /><path
       id="path83"
       style="fill:#cccccc;stroke-width:0.151735"
       d="m 89.15245,113.97432 c -5.442724,0.20598 -10.853356,0.89017 -16.268072,1.44404 -6.195416,0.73501 -12.42743,1.41598 -18.488347,2.94324 -2.918031,0.74658 -5.809263,1.94105 -7.987119,4.0854 -3.287686,2.80891 -5.867368,6.63896 -6.49662,10.98001 -0.308881,1.85417 -0.237876,3.746 -0.01156,5.60513 3.061474,2.68423 4.883806,6.70889 4.826422,10.78414 0.0031,2.56219 -0.853565,5.13645 -2.571972,7.06172 -0.358891,0.48295 0.196665,1.14468 0.235357,1.70559 1.098004,4.15345 3.431942,8.19632 7.236914,10.39674 4.212353,2.47633 9.274332,2.66703 14.03145,2.485 9.384303,-0.5172 18.789385,-1.27191 28.021239,-3.09772 4.013431,-0.86332 8.117824,-1.80607 11.685248,-3.9181 3.71787,-2.45227 6.54213,-6.3782 7.27337,-10.81428 0.8725,-4.99377 -0.20977,-10.03056 -0.6232,-15.01361 -0.50758,-4.66147 -1.20376,-9.37546 -2.95209,-13.75367 -1.59782,-3.39482 -3.52525,-6.94273 -6.8731,-8.89673 -3.313506,-1.93853 -7.302095,-2.06901 -11.037917,-1.9969 z m 3.474515,14.45773 c 2.657048,0.0522 5.552807,0.16788 7.723315,1.90746 2.86709,2.2326 3.9653,5.97356 4.34763,9.44508 0.20089,1.94088 0.17924,3.90199 -0.0266,5.84162 -0.0408,0.30594 -0.12774,1.05193 -0.20659,1.52315 -0.19082,1.64338 -0.78688,3.26367 -1.97388,4.45184 -2.15989,2.32041 -5.202041,3.58376 -8.268738,4.16669 -0.712568,0.15801 -1.626776,0.35298 -2.215449,0.47282 -7.033294,1.35292 -14.15965,2.31837 -21.322103,2.57445 -1.948385,0.0146 -4.006949,0.13864 -5.778608,-0.82806 -3.305387,-1.45015 -5.550089,-4.67442 -6.312056,-8.14042 -0.810253,-3.54884 -0.622713,-7.34004 0.533317,-10.79105 1.020424,-2.98586 3.56145,-5.23867 6.473659,-6.32645 3.019699,-1.18376 6.289505,-1.42496 9.432984,-2.13148 5.743994,-1.10381 11.655889,-2.22576 17.593108,-2.16565 z m 50.955175,3.7769 c -3.19614,-0.014 -5.86635,2.35881 -7.33558,5.02903 -2.24788,3.95678 -2.63148,9.23431 -0.0323,13.12483 1.22858,1.66925 2.86722,3.16714 4.85601,3.84037 1.28035,0.45279 2.93336,-0.39842 3.00954,-1.81763 0.37978,-2.43347 0.84746,-4.89418 0.71744,-7.36598 -0.18984,-0.58509 -0.23116,-0.88085 0.44135,-1.08743 2.3253,-1.52098 4.03522,-4.24181 3.90217,-7.07489 -0.0777,-2.12245 -1.77424,-3.89677 -3.7882,-4.39023 -0.57327,-0.16738 -1.17289,-0.26114 -1.77046,-0.25807 z m -48.770926,42.73653 c -9.505754,0.1904 -19.017416,0.33917 -28.508419,0.92482 -1.646612,0.17835 -3.379681,0.11482 -4.935974,0.73821 -0.551504,0.18405 -0.787472,0.7132 -1.105433,1.15227 -0.869296,-0.87484 -2.209048,-0.80882 -3.267476,-0.34732 -3.522402,1.13204 -6.204804,4.09799 -7.501924,7.5024 -1.87069,4.80995 -1.882838,10.11266 -1.360187,15.17841 0.461657,3.80666 1.152394,7.63903 2.626319,11.19651 0.787801,1.57181 1.939097,2.95474 3.189041,4.18257 2.423077,2.2658 5.897469,2.64949 9.06412,2.75459 5.688576,0.1364 11.371708,-0.28486 17.053472,-0.50846 3.967615,-0.20036 7.945247,-0.36086 11.904642,-0.6239 1.643428,-0.51257 3.286856,-1.02514 4.930285,-1.53772 -1.654232,-0.74464 -3.269006,-1.61004 -4.947958,-2.27903 -7.814177,-1.61138 -15.553014,-3.77728 -22.873112,-6.98175 -3.463589,-1.77359 -6.495876,-4.29875 -9.241676,-7.03375 -1.81153,-1.93745 -3.694011,-4.03891 -4.357991,-6.67321 -0.589016,-2.32511 0.72868,-4.63635 2.473747,-6.09197 1.509844,-1.37029 3.380704,-2.22495 5.227291,-3.03729 -0.07991,-0.29158 -0.813235,-1.68551 -0.29202,-0.96299 4.329901,5.46882 9.237612,10.72575 15.511663,13.96514 6.18316,3.27849 13.215762,4.46447 20.133011,4.87868 0.594721,-0.51393 1.051077,-1.33684 1.592185,-1.96999 0.4291,-0.62556 1.01236,-1.19835 1.34488,-1.85727 0.0344,-5.29304 0.0682,-10.58608 0.10461,-15.8791 -1.957363,-2.23472 -3.912843,-4.47108 -5.869113,-6.70675 -0.297993,0.006 -0.595988,0.0113 -0.893983,0.0169 z m 12.605916,19.46292 c -2.43234,0.093 -4.58945,1.55321 -6.01027,3.46254 -2.285898,3.02279 -3.692688,6.76912 -3.776943,10.56998 -0.06947,3.1633 1.433774,6.51258 4.343923,7.98795 1.86283,0.95594 4.1104,1.34131 6.14758,0.77047 0.56357,-0.20107 0.99238,-0.68071 1.24707,-1.19252 0.25765,-3.21311 0.16546,-6.44466 0.23685,-9.66596 0.0118,-1.54094 0.0237,-3.08189 0.0355,-4.62284 1.75953,-0.0949 3.81213,0.49797 5.30454,-0.73143 1.07918,-0.87736 0.98083,-2.60997 0.0113,-3.54076 -1.33782,-1.30728 -3.09016,-2.15209 -4.85857,-2.71419 -0.86912,-0.25163 -1.77631,-0.3721 -2.68092,-0.32324 z" /><path
       id="path82"
       style="display:inline;fill:#bf4040;fill-opacity:1;stroke-width:0.151735"
       d="m 69.422839,90.665013 c -2.667177,0.0366 -5.090449,1.936554 -5.917945,4.445501 -1.16419,3.168907 -0.138151,7.239866 2.896548,8.971606 2.039012,1.14206 4.706352,1.23559 6.773873,0.12036 2.906684,-1.7133 3.859632,-5.605155 2.947024,-8.708427 -0.658455,-2.566493 -2.980102,-4.627386 -5.650628,-4.796685 -0.347396,-0.04242 -0.699436,-0.0436 -1.048872,-0.03236 z M 38.569146,139.19179 c -2.417,-0.0256 -4.495357,1.72615 -5.448416,3.85765 -2.087315,4.22668 -1.003704,9.71757 2.368603,12.96265 1.665467,1.64659 4.349147,2.34515 6.494228,1.23966 2.298166,-1.18367 3.168416,-3.90887 3.401645,-6.31991 0.263222,-3.28292 -0.292516,-6.82096 -2.327363,-9.49571 -1.071285,-1.36986 -2.720988,-2.30277 -4.488697,-2.24434 z" /><path
       id="path120"
       style="display:inline;fill:#1a1a1a;stroke-width:0.151735"
       d="m 68.675348,89.654586 c -9.485039,0.350816 -9.90956,15.686714 0.03569,16.613814 0.568417,4.27995 0.848129,6.25698 0.612266,7.37537 -0.109223,0.51793 -4.247447,0.79632 -16.087944,3.12894 -6.603483,1.30092 -12.006139,4.64343 -14.36759,14.02201 -1.173955,4.66241 0.408219,6.76709 -0.792564,7.00725 -2.237868,0.44758 -9.305799,4.17948 -6.744315,13.88492 1.780985,6.74813 5.511756,8.02734 9.758691,7.68526 2.649596,5.50011 4.984283,10.7759 11.629296,12.43875 2.657892,0.76371 7.485255,1.0877 11.238647,1.26773 v 1.97578 c -6.423776,0.26974 -9.587507,0.81324 -13.28016,3.50457 -9.70701,7.07478 -3.808782,31.08041 -1.977655,34.23055 3.547106,6.10221 8.162346,6.12098 8.907905,7.36221 0.600473,0.99965 1.110479,7.51156 0.589728,8.75578 -6.009791,14.35879 -7.488503,15.88959 -6.793146,19.63382 0.623806,3.35895 21.890351,0.63662 23.115854,0.33994 1.225504,-0.29666 0.374952,-8.87481 -5.516027,-11.46402 0,0 1.768036,-2.89574 2.556116,-5.96114 0.553362,-2.15244 0.389533,-8.75474 -0.90713,-11.87157 -0.08049,-0.19348 11.614271,-0.60288 11.614271,-0.60288 0,0 2.617039,11.1326 1.660255,14.31125 -1.390428,4.61933 -4.90359,7.53207 -3.523346,15.37989 3.392574,1.7363 20.72087,1.08179 21.11566,1.08179 2.1444,0 2.49851,-3.06205 2.2913,-4.83239 -1.03164,-8.81386 -7.327474,-8.21745 -7.099277,-9.12765 1.531733,-6.10968 2.402431,-8.50687 -2.537335,-18.00549 1.648963,-1.16887 3.940288,-2.63124 3.940288,-2.63124 0,0 3.405354,3.37671 6.141434,3.78252 2.73608,0.40583 7.41966,0.76316 9.54834,-1.29965 0.80478,-0.77988 1.4538,-0.74389 2.65003,-0.7212 2.24373,0.0484 5.99968,-0.0712 8.87222,-0.19533 0.77083,-1.89686 1.43732,-14.94937 0.64231,-16.15555 -0.47089,-0.7145 -7.95573,-0.59167 -8.03458,-0.76439 -3.9502,-8.6513 -13.36834,-6.29049 -14.84463,-5.06528 -0.51989,0.43147 -0.22025,0.20394 -0.49957,-5.47659 -0.14567,-2.96227 -0.24033,-4.22376 0.51648,-4.85493 2.08883,-1.74212 10.50733,-4.48407 18.82248,-10.13055 6.94243,-4.71435 20.08088,-16.64387 19.82351,-15.61842 -0.0701,0.27947 -3.87455,29.64043 -3.87455,29.64043 0,0 12.21332,2.10392 14.4521,2.01334 0.53948,-0.0218 4.77971,-38.20783 5.18548,-38.55585 2.03536,-1.74563 4.06244,-8.32742 1.08931,-12.32983 -0.0798,-0.10748 2.48475,-25.67573 2.48475,-25.67573 -0.21577,-0.18062 -12.79252,-1.92962 -14.00887,-1.10809 -1.01421,0.68502 -1.25561,5.29237 -1.94948,9.88265 -1.15595,7.64733 -0.47525,8.15924 -1.55321,8.30127 -5.29237,0.69742 -10.5529,3.97917 -10.83485,13.70649 0,0 -14.91469,14.41787 -23.34311,20.39447 -11.380935,8.07025 -19.558696,8.95298 -19.558696,8.95298 l 0.843274,-3.73181 c 8.686005,-1.31843 17.953222,-4.64718 21.132552,-15.71421 1.14845,-3.99766 -0.7555,-20.85969 -2.03023,-26.38941 -0.59467,-2.57968 -2.29277,-13.28559 -12.406838,-15.25782 -5.473705,-1.06737 -23.866671,1.28683 -24.062425,0.32117 -0.847285,-4.17968 -1.010427,-7.37725 -1.010427,-7.37725 6.09003,-1.65301 8.792766,-15.324647 -2.685706,-16.061649 -0.324781,-0.02086 -0.640602,-0.02633 -0.946571,-0.01503 z m 0.794444,2.933618 c 0.203983,-0.0098 0.415424,-0.0098 0.632925,0.0038 5.917905,0.369868 5.613274,9.691856 0.828249,10.387866 -7.597554,1.10509 -7.784654,-10.08653 -1.461174,-10.391622 z M 92.15368,115.91253 c 7.298683,0.3165 9.85114,2.92709 12.96839,9.31922 0.56672,1.16207 2.22835,5.53211 3.0388,14.16099 0.83875,8.93889 2.90757,16.42098 -4.85306,22.74587 -7.09346,5.78114 -35.193273,7.16243 -39.755963,7.40728 -9.500504,0.38918 -16.721532,-1.29603 -19.46104,-12.02933 4.075372,-4.97344 3.287214,-14.05709 -2.343889,-19.36337 -0.980315,-8.25457 4.161854,-12.72264 6.443817,-14.71693 3.16156,-2.76298 7.581549,-4.54299 34.886009,-7.1312 3.684495,-0.34926 6.644041,-0.49803 9.076936,-0.39253 z m 57.21118,0.0789 c 0,0 8.18011,0.65043 8.35949,0.89962 l 0.002,0.002 v 0.002 0.002 c -2e-5,4.8e-4 -5e-5,0.005 0,0.006 -0.0434,0.13024 -7.82842,69.59737 -7.94819,70.02932 -0.18702,0.67451 -7.52725,-0.38608 -7.99889,-1.14002 -0.15146,-0.24211 4.50184,-40.72882 4.50184,-40.72882 0,0 2.10165,-1.6413 2.54672,-2.27441 2.72385,-3.87444 3.06106,-7.38263 -1.14752,-11.29123 -0.19592,-0.18196 1.68467,-15.50573 1.68467,-15.50573 z m -5.71698,18.13885 c 0.35579,0.008 0.71406,0.0583 1.07616,0.15588 4.66822,1.25798 1.93549,6.97286 -1.01419,8.28813 -1.87977,0.54132 -0.82825,2.61246 -0.82825,2.61246 0.22168,1.47297 -0.67651,6.96653 -0.73998,7.06923 -0.40698,0.65852 -3.15283,-1.22271 -4.32905,-2.96555 -3.88568,-5.75749 0.49835,-15.27892 5.83531,-15.16015 z m -104.979195,6.98283 c 5.456483,0 6.464738,12.74952 2.30445,14.48779 -4.148213,1.73324 -8.383278,-5.28123 -6.565895,-10.62263 0.638833,-1.87753 1.878793,-3.86516 4.261445,-3.86516 z m 94.972585,6.63727 c 0,0 5.19525,6.63357 5.9818,7.41292 v 0.002 l 0.002,0.002 c 0.15216,0.25858 -3.01773,4.02335 -3.81444,4.07927 -1.02396,0.0719 -6.10201,-6.07247 -6.10201,-7.23451 0,-0.25763 3.93278,-4.26144 3.93278,-4.26144 z m -6.24473,7.65332 c 1.59583,-0.0443 2.90272,1.72742 5.24557,5.83907 0.36769,1.72966 -0.99458,2.2495 -2.17485,3.06883 -1.06594,0.19664 -0.87931,-0.79579 -1.56823,-0.74185 -0.92536,0.0725 -1.8193,1.7901 -3.37874,1.85558 -0.96265,0.0404 -3.93277,-6.02312 -3.93277,-6.02312 2.76912,-2.50652 4.40091,-3.95938 5.80902,-3.99851 z m -8.83279,6.34428 c 0.62156,0 3.50269,6.81005 3.50269,6.81005 0,0 -3.77729,4.10709 -4.1544,3.82009 -2.01104,-1.53048 -4.99203,-6.07759 -4.99203,-6.07759 0,0 5.41124,-4.55255 5.64374,-4.55255 z m -8.03646,6.69361 c 0.10585,-0.005 0.16527,0.0238 0.16527,0.0939 0,0.25971 3.38096,6.2815 3.25478,6.32362 -0.1252,0.0417 -4.73288,2.92448 -5.17797,3.19092 -1.474,0.88229 -4.72158,-6.33676 -4.72158,-6.33676 0,0 5.45632,-3.22525 6.4795,-3.27168 z m -25.037166,2.4284 c 0.421796,-0.009 0.784674,8.7e-4 1.081795,0.0339 0.359536,0.0392 -0.520239,2.92047 -0.520239,2.92047 0,0 -14.085267,1.01698 -18.610254,1.07429 -0.03579,-2.85734 0.397841,-2.22099 3.048183,-2.45658 6.217546,-0.55268 12.047941,-1.51378 15.000515,-1.57198 z m 15.650346,2.40963 c 0.002,-5e-5 0.004,-1.4e-4 0.006,0 0.21012,0.0157 3.46888,6.84385 3.46888,6.84385 0,0 -1.81426,0.94915 -1.81426,0.62917 0,-0.90775 -4.268963,-6.09636 -4.268961,-6.09636 0,0 2.352761,-1.3716 2.608701,-1.37666 z m -6.293572,3.58908 4.798588,5.48409 -0.09579,14.60236 -1.829284,2.39459 c -18.881098,-1.22376 -26.119745,-8.59547 -35.550863,-20.8978 -0.82235,-1.07269 32.677344,-1.58324 32.677344,-1.58324 z m -36.335914,2.11851 c 0.452676,-0.0101 0.949558,0.48861 2.174859,3.50081 0,0 -8.869084,3.69111 -7.011009,10.85738 1.484305,5.72472 10.790165,13.0115 14.724432,14.75637 10.753984,4.76948 23.376913,7.10115 23.376913,7.10115 0,0 -18.018118,0.96837 -24.530077,1.11748 -10.137892,0.22759 -11.435918,-1.03633 -14.32627,-5.06715 -2.094052,-2.92034 -8.065773,-28.40178 5.206138,-32.18153 0.135083,-0.0385 0.258264,-0.0816 0.385014,-0.0845 z m 3.95719,6.76685 c 0.282993,-7.2e-4 0.576874,0.0275 0.882715,0.0883 1.05497,0.20969 4.471795,5.20426 4.471795,5.20426 0,0 -5.533888,8.13037 -5.572371,8.13037 -0.144615,0 -5.123656,-5.01232 -5.455927,-6.05505 -0.265515,-0.83324 1.428895,-7.35706 5.673788,-7.36785 z m 7.474903,7.08613 c 0,0 6.962177,4.60151 6.962177,4.64458 0,0.0431 -3.817953,9.18266 -4.85493,8.47219 -0.38945,-0.26682 -5.951011,-3.54686 -6.505795,-4.22576 -0.480305,-0.58778 4.398548,-8.89101 4.398548,-8.89101 z m 37.648713,3.48391 c 1.16963,-0.0516 2.79199,0.2668 5.039,1.69594 1.85261,1.17828 1.44449,1.92724 -0.77943,1.82553 -2.24837,-0.10282 -3.69612,-0.13713 -4.12246,0.50334 0,0 -0.0722,14.27669 -0.22726,14.98924 -0.0683,0.31383 -6.66622,1.08291 -7.82047,-5.29441 -0.851994,-4.70736 2.60198,-12.17268 6.256,-13.38722 0.4137,-0.1375 0.95285,-0.30145 1.65462,-0.33242 z m -27.906924,2.39272 7.133086,2.3176 c 0,0 -1.253356,4.53817 -1.404832,9.52204 -0.01155,0.37996 -9.114497,-3.10044 -9.114497,-3.69425 0,-0.77736 3.386243,-8.14539 3.386243,-8.14539 z m 10.26954,3.27919 6.620359,0.76252 -0.405673,9.36616 -7.097401,-1.08367 c -1.171138,-1.24663 0.882715,-9.04501 0.882715,-9.04501 z m 27.871244,1.05926 c 2.48835,0.028 4.65088,0.15055 4.77229,0.27232 0.15298,0.15344 0.0609,10.20192 -0.0958,10.45548 -0.58417,0.87625 -7.56962,-0.1437 -11.31565,-0.33243 0,0 -0.41735,-7.517 -0.092,-10.10427 1.42726,-0.25269 4.24283,-0.31912 6.73117,-0.2911 z m -31.460324,15.83251 c 1.369882,0.0294 4.111196,0.28923 4.111196,0.28923 l 3.296094,7.0298 c 0,0 -5.515182,1.08885 -6.058802,0.23288 -0.894131,-1.40785 -2.109126,-7.41261 -2.109126,-7.48617 v -0.002 -0.002 l 0.0019,-0.002 v -0.002 -0.002 l 0.0019,-0.002 0.0019,-0.002 c 0.05051,-0.0466 0.341184,-0.0615 0.755002,-0.0526 z m -21.983351,1.19261 c 1.491106,0.0414 3.036123,0.3518 3.624764,0.97474 0.303366,0.32103 0.744824,5.53838 0.407552,5.63435 -1.266373,0.36039 -5.564098,0.0568 -6.885174,0.2235 0,0 -1.276722,-5.21877 -0.454505,-6.19779 0.377796,-0.44984 1.816257,-0.67617 3.307363,-0.6348 z m 23.044486,9.5089 c 0,-0.0263 6.37245,0.0357 6.372448,0.0357 l -0.75688,6.33113 c -2.794404,0.2365 -4.859548,0.33232 -6.464476,0.008 0,0 0.848908,-6.16567 0.848908,-6.37433 z m -23.232298,0.28736 c 1.692801,-0.0277 3.498952,0.17134 3.957192,0.67612 0.78463,0.86432 -2.109125,6.15271 -2.109125,6.15271 l -6.781878,-0.1202 c 0,0 1.662133,-5.68948 1.662133,-6.02312 0,-0.40258 1.578878,-0.6578 3.271678,-0.68551 z m 25.089755,8.90039 c 2.069285,0.005 4.698375,0.1727 6.941518,0.82449 4.486274,1.30357 4.256334,4.36187 4.250174,6.78564 l -16.820407,-0.14649 c -0.976036,-1.88923 1.210778,-5.69613 2.050904,-7.30964 0,0 1.508527,-0.15849 3.577811,-0.154 z m -31.197388,0.73058 c 3.745411,0.072 7.082882,-0.45063 10.476132,1.3222 1.529275,0.87157 2.732659,5.53668 2.732659,5.53668 0,3e-5 -16.254813,0.90931 -16.174337,0.11458 0.197735,-1.95252 2.965546,-6.97346 2.965546,-6.97346 z" /></g><g
     id="workout"><path
       id="path23"
       style="display:inline;fill:#e5bd1a;fill-opacity:1;stroke-width:0.151735"
       d="m 306.42984,143.55089 c -0.28416,33.15858 -0.6249,66.31689 -0.79505,99.47631 -9.6e-4,1.32989 -0.02,2.66037 0.0476,3.98912 0.79308,0.74413 1.79021,1.25491 2.89613,1.26884 2.76881,0.17039 5.5442,-0.1504 8.28242,-0.5439 0.14083,-11.6652 0.0881,-23.33201 0.12444,-34.99792 0.0238,-22.60696 0.0744,-45.21425 -0.0289,-67.821 -0.0148,-0.98553 -0.0299,-1.97105 -0.0449,-2.95658 -2.03655,-0.30627 -4.09018,-0.16069 -6.13843,-0.14335 -1.46364,0.055 -2.88945,-0.30799 -4.32268,-0.54404 -0.007,0.75751 -0.0138,1.51501 -0.0207,2.27252 z m -19.73337,-1.97578 c -0.93242,0.0294 -2.07464,0.30792 -2.40139,1.29107 -0.36718,0.74092 -0.082,1.63959 -0.16563,2.449 0.0243,20.05469 -0.1734,40.10894 -0.30056,60.1631 -0.0761,13.3953 -0.2373,26.79066 -0.23735,40.18606 0.10494,0.56544 -0.24947,1.36707 0.41134,1.64797 1.24229,1.13331 3.04623,0.94097 4.60476,1.02395 2.29068,0.0341 4.57905,-0.0827 6.86715,-0.17241 0.0699,-35.36681 0.13839,-70.73362 0.20847,-106.10042 -2.98973,-0.229 -5.98504,-0.54242 -8.98679,-0.48832 z m -22.49419,0.0658 c -1.1808,0.0351 -2.65329,0.23032 -3.21126,1.41659 -0.35852,1.14505 -0.10013,2.37989 -0.18196,3.5653 -0.0435,32.15617 -0.14512,64.31249 -0.0699,96.46867 0.0501,1.28704 -0.0763,2.63519 0.12808,3.88345 0.43571,0.65596 1.07533,1.14124 1.87951,1.21153 2.59263,0.23511 5.21292,0.13072 7.80357,-0.0883 0.73712,-0.0322 1.31662,-0.50416 1.92506,-0.86393 0.23661,-4.1113 0.1194,-8.23445 0.18243,-12.35078 0.10623,-27.03795 0.11571,-54.07657 -0.0188,-81.11442 -0.0698,-3.99095 0.0266,-7.99025 -0.29313,-11.97225 -2.7161,-0.002 -5.4276,-0.23159 -8.14351,-0.15589 z" /><path
       id="path14"
       style="display:inline;fill:#bf4040;fill-opacity:1;stroke-width:0.151735"
       d="m 195.44068,157.78138 c 0.005,28.36139 -0.0473,56.72312 0.0962,85.08425 0.002,1.70923 0.0422,3.41761 0.15176,5.12354 2.30239,-0.11015 4.59788,0.13946 6.89832,0.12396 0.80631,-0.0493 1.61267,-0.0977 2.41901,-0.14649 0.0662,-30.36851 0.13181,-60.73703 0.19908,-91.10554 -3.15757,-0.98422 -6.49244,-0.95819 -9.76433,-1.05738 0,0.65921 0,1.31844 0,1.97766 z m -25.59309,-1.69782 c -1.37878,0.12268 -2.88975,-0.017 -4.13414,0.67251 -0.38443,0.37136 -0.97077,0.6443 -0.81762,1.27463 -0.11878,5.13506 -0.0305,10.2747 -0.0523,15.41153 0.0615,24.31035 0.15276,48.62073 0.3104,72.93064 0.14723,0.46291 -0.33754,1.44288 0.38787,1.43275 2.01669,0.53634 4.12412,0.31681 6.18705,0.41746 0.98182,0.016 1.96365,0.0308 2.94549,0.046 0.0179,-30.09243 0.0326,-60.18486 0.0489,-90.27729 -0.12262,-0.69172 -0.55904,-1.26441 -1.20763,-1.54382 -1.14933,-0.48424 -2.4495,-0.35349 -3.66796,-0.36435 z m 18.49757,0.0901 c -2.61935,0.0489 -5.23871,0.0968 -7.85804,0.1465 0.0495,29.61799 0.0534,59.23618 0.167,88.85398 0.006,0.84067 0.0114,1.68133 0.017,2.52201 2.74493,0.38519 5.53834,0.77696 8.29972,0.29392 0.59218,-0.0749 1.38223,0.0363 1.15833,-0.80625 0.2009,-4.13755 0.0857,-8.28426 0.14143,-12.42559 0.0601,-26.20669 0.0363,-52.41351 0.0334,-78.62026 -0.65296,0.0119 -1.30592,0.0238 -1.95888,0.0357 z m 38.67417,0.12959 c -0.73308,0.0521 -1.46618,0.10532 -2.19927,0.15776 -0.071,29.00404 -0.1855,58.00822 -0.13711,87.01236 0.006,1.18079 0.003,2.36219 0.0808,3.54101 0.68427,0.64663 1.52628,1.11221 2.48816,1.1266 1.86823,0.11638 3.79032,0.2575 5.62985,-0.15818 0.58186,-0.18322 1.11462,-0.66152 1.43493,-1.12655 0.14156,-20.15105 0.15953,-40.30283 0.22869,-60.45425 0.0277,-9.87202 0.0532,-19.74406 0.0822,-29.61607 -2.52949,-0.23119 -5.064,-0.53902 -7.60825,-0.48268 z m -9.20465,0.10517 c -2.43779,0.01 -4.87559,0.0185 -7.31339,0.0282 -0.0463,28.54366 -0.14466,57.08757 -0.0441,85.6312 0.0296,1.58291 -0.0175,3.16967 0.13801,4.74751 0.7678,0.67367 1.69122,1.15934 2.73251,1.18496 2.01584,0.19932 4.07804,0.13746 6.02891,-0.45062 0.23939,-4.40804 0.11916,-8.82677 0.18883,-13.23946 0.11372,-25.96961 0.15269,-51.93949 0.20369,-77.90928 -0.64482,0.003 -1.28963,0.005 -1.93446,0.008 z m -61.74683,38.67981 c -1.49013,0.01 -2.93527,0.39703 -4.36661,0.77002 -0.39387,4.23213 -0.27457,8.4906 -0.33636,12.73587 -0.0572,13.23812 0.0163,26.47639 0.0922,39.71429 2.68864,-0.0953 5.37737,-0.18789 8.06463,-0.3174 0.67921,-5.45705 0.62073,-10.96813 0.73173,-16.45677 0.13451,-11.54521 -7.3e-4,-23.0913 0.0265,-34.63662 -0.13819,-0.46576 0.36779,-1.47795 -0.36464,-1.43963 -1.27499,-0.20512 -2.55026,-0.4227 -3.84747,-0.36976 z" /><path
       id="path9"
       style="display:inline;fill:#4073bf;fill-opacity:1;stroke-width:0.151735"
       d="m 316.13782,198.7769 c 0.0324,16.03818 -0.005,32.07681 0.10408,48.11466 -0.0831,0.663 -0.0405,1.20969 0.77674,1.03986 2.30198,0.20235 4.61576,0.45062 6.92839,0.28313 0.49207,0.92466 0.98413,1.84932 1.4762,2.77398 0.46316,-1.67329 1.07531,-3.32472 1.44612,-5.01156 -0.0168,-15.48625 0.0326,-30.97301 -0.0715,-46.45887 -0.10167,-0.53982 0.21826,-1.2946 -0.419,-1.56191 -1.00869,-1.00007 -2.54158,-0.78234 -3.83897,-0.93369 -2.13344,-0.10907 -4.26858,-0.16757 -6.40387,-0.22702 6.3e-4,0.66047 9.7e-4,1.32095 0.002,1.98142 z m -43.84462,0.16715 c -0.1523,15.20168 -0.38996,30.40355 -0.36291,45.60625 -0.0279,1.05423 0.0743,2.09948 0.27089,3.13462 1.35014,0.48633 2.78144,0.49452 4.19814,0.50193 2.57642,0.0344 5.15319,0.0219 7.72977,0.0183 0.051,-17.00885 0.10295,-34.01769 0.154,-51.02654 -3.9891,-0.0553 -7.97825,-0.10669 -11.96735,-0.16152 -0.008,0.64232 -0.015,1.28464 -0.0225,1.92695 z m -33.83614,-1.81989 c -1.47121,0.0377 -2.94238,0.0792 -4.41357,0.11832 -0.51814,2.5978 -0.33477,5.26002 -0.42429,7.89247 -0.11666,13.14544 -0.19811,26.29268 -0.0599,39.43815 -0.0245,1.13057 0.14419,2.24681 0.30948,3.36161 9.18118,0.19737 18.36549,0.15452 27.54821,0.21035 -0.02,-15.90543 0.0359,-31.81166 -0.12818,-47.71639 0.0232,-1.04707 -0.14367,-2.08098 -0.27186,-3.11671 -7.52023,-0.0381 -15.03935,-0.29869 -22.55993,-0.1878 z m 59.69029,-0.0113 c -0.97289,0.009 -2.00807,0.0566 -2.75841,0.75922 -0.42264,0.28764 -0.29213,0.96011 -0.40875,1.42896 -0.27263,7.0176 -0.25472,14.04401 -0.30827,21.0662 -0.0103,7.95648 -0.071,15.91867 0.2676,23.86944 0.13,1.0642 -0.004,2.33588 0.74486,3.18038 0.38102,0.40395 0.77702,0.7717 1.37554,0.64535 2.96043,0.14022 5.92346,-0.0278 8.88161,-0.14838 0.4808,-2.73145 0.25968,-5.51647 0.35325,-8.27512 0.0981,-14.15631 0.094,-28.31312 0.11252,-42.4697 -2.75295,-0.038 -5.50676,-0.1088 -8.25995,-0.0563 z m -152.65892,22.02468 c 0.12711,8.73056 0.35104,17.46233 0.2573,26.19408 -0.0549,0.86946 -0.10641,1.73914 -0.15964,2.6087 2.24685,0 4.49371,0 6.74056,0 0.15469,-9.03625 0.39094,-18.07438 0.28493,-27.11229 -0.0177,-1.05826 -0.12257,-2.11238 -0.18351,-3.16857 -2.32576,-0.22573 -4.65144,-0.45235 -6.9772,-0.678 0.0125,0.71869 0.025,1.43738 0.0376,2.15608 z m 30.75039,-2.05842 c -0.62916,0.009 -1.25834,0.0175 -1.88751,0.0262 -0.0488,10.27579 -0.0959,20.55159 -0.14273,30.82739 1.87915,0.15176 3.80167,0.61149 5.67567,0.22162 1.05299,-0.2496 1.79613,-1.3401 1.59076,-2.40511 -0.0258,-8.7728 0.034,-17.5478 -0.15213,-26.31879 -0.0187,-0.57645 -0.1778,-1.13639 -0.26105,-1.70533 -1.5406,-0.66782 -3.17477,-0.67748 -4.82301,-0.64608 z m -17.1209,1.97954 c 0.0687,9.69303 0.14807,19.38597 0.23476,29.07887 2.42284,-0.12252 4.84565,-0.24586 7.26831,-0.37187 -0.32107,-10.18184 -0.63988,-20.36375 -0.95784,-30.54568 -2.18676,-0.0471 -4.37351,-0.0951 -6.56026,-0.14274 0.005,0.66047 0.01,1.32095 0.015,1.98142 z m 62.55254,-1.96639 c -0.91097,-0.0305 -1.75053,0.3211 -2.54861,0.71931 -0.46185,1.98698 -0.24907,4.0461 -0.34454,6.06818 -0.0549,7.40998 -0.14072,14.82257 0.005,22.2315 0.0675,0.49994 0.0879,1.12653 0.33096,1.52317 0.86411,0.47092 1.82482,0.68964 2.8083,0.59287 1.12408,-0.0412 2.36916,-0.083 3.19663,-0.95583 0.36374,-0.4816 0.29199,-1.2409 0.34398,-1.851 0.13571,-8.34462 0.11709,-16.69283 0.009,-25.03774 -0.0431,-0.73944 0.0195,-1.5634 -0.27035,-2.2354 -0.68016,-0.79202 -1.71623,-1.0515 -2.72417,-1.04983 -0.26788,-0.0144 -0.53693,-0.0114 -0.8049,-0.005 z m -29.59912,0.0863 c -0.91814,-0.0139 -1.86217,0.39645 -2.38302,1.14154 -0.42816,1.72488 -0.218,3.53068 -0.3262,5.29138 -0.0606,7.4003 -0.1462,14.80433 0.0573,22.20272 0.0927,0.60965 0.0205,1.40258 0.683,1.68927 1.0956,0.902 2.64112,0.59069 3.95815,0.63859 0.74426,-0.0223 1.4885,-0.0457 2.23275,-0.0685 -0.16307,-10.21563 -0.083,-20.43298 -0.002,-30.64898 -1.40629,-0.0779 -2.81109,-0.24947 -4.22012,-0.24604 z m 12.2904,1.91943 c -0.007,8.97039 -0.092,17.94217 0.006,26.91175 0.15135,0.49136 -0.20598,1.34256 0.3472,1.5495 0.8675,0.47979 1.83585,0.62248 2.81672,0.57476 1.23725,0.0119 2.47474,-9.6e-4 3.71207,0.002 0,-10.31837 0,-20.63675 0,-30.95512 -2.29193,0 -4.58386,0 -6.87578,0 -0.002,0.63919 -0.004,1.27838 -0.006,1.91756 z" /><path
       id="path7"
       style="display:inline;fill:#78a659;fill-opacity:1;stroke-width:0.151735"
       d="m 138.58447,206.28185 c -1.16527,0.0103 -2.32888,0.0769 -3.49329,0.11832 -0.30656,4.8071 -0.18539,9.62873 -0.24469,14.44272 0.008,8.0012 -0.0522,16.00563 0.18561,24.00392 0.0523,1.01157 -0.0145,2.26207 0.95768,2.86565 1.36744,0.82506 3.06562,0.59132 4.59676,0.65234 1.51111,-0.10539 3.12403,0.0316 4.53114,-0.60738 0.42774,-0.311 1.05496,-0.49764 0.94004,-1.1476 0.22197,-2.40597 0.0993,-4.83326 0.1557,-7.24796 0.0107,-10.19835 0.0362,-20.39864 -0.16344,-30.59526 -0.0153,-0.56923 -0.14313,-1.12684 -0.21598,-1.69031 -0.89723,-0.46363 -1.85994,-0.75212 -2.87784,-0.72966 -1.45579,-0.0728 -2.9144,-0.0741 -4.37169,-0.0648 z m -24.75733,26.70682 c 0.074,5.09008 0.13916,10.18032 0.15776,15.27096 4.84678,-0.0755 9.69362,-0.14685 14.54038,-0.2235 0.57318,-1.52802 0.78252,-3.14786 0.7986,-4.77264 0.0816,-4.02981 -0.0222,-8.06436 -0.29902,-12.08533 -5.07176,-0.19745 -10.14954,-0.098 -15.22402,-0.14462 0.009,0.65171 0.0175,1.30342 0.0263,1.95513 z" /><path
       style="display:inline;fill:#1a1a1a;stroke-width:0.151735"
       d="m 112.97818,230.3462 c 3.00392,-1.10923 17.08826,-0.5995 17.08826,-0.5995 0.78113,0.0127 0.002,14.3493 0.39495,16.64004 0.81221,0.0821 3.29402,0.18738 3.29402,0.18738 0,0 -0.47639,-40.52031 0.35176,-41.02873 1.42248,-0.87329 11.89335,-0.4397 12.60649,0.34456 0.1794,0.1973 0.51828,8.44254 0.53071,9.83344 1.74046,-0.11594 3.11113,0.21149 3.11113,0.21149 0,0 -0.28684,-20.58147 0.36676,-21.599 0.2798,-0.4356 8.30073,-0.50734 10.00553,-0.36429 0.60936,0.0512 0.30547,22.08616 0.45595,22.05937 0.11947,-0.0213 1.96923,0.42606 2.77033,-0.16626 -0.23426,-64.29148 -0.2901,-59.7474 1.06641,-60.87257 0.94941,-0.7875 9.75696,-0.38796 10.4643,0.63334 0.68856,0.99421 0.5199,60.17345 0.56792,60.22083 0.0784,0.0773 3.02873,0.19772 3.52663,0.14393 0.13152,-0.0142 -0.83897,-59.81512 -0.13988,-60.52558 0.69907,-0.71043 11.13319,-0.65149 11.61149,-0.37048 0.47831,0.28102 0.0846,60.96486 0.0846,60.96486 0,0 3.44153,-0.15352 3.47404,-0.1851 0.0325,-0.0315 0.31473,-60.9826 0.31473,-60.9826 0,0 10.25224,-0.0227 10.80694,0.164 0.53422,0.17978 0.35802,60.812 0.35802,60.812 l 3.33121,0.11752 -0.0903,-60.76015 c 1.32923,-0.4678 10.96932,0.14694 10.96932,0.14694 0.78513,0.406 0.28894,60.50274 0.35298,60.56679 0.11674,0.11674 2.95791,0.0694 3.0786,-0.0512 0.0353,-0.0353 -0.3662,-60.1838 0.0819,-60.63189 2.10586,-0.38515 11.19396,0.22022 11.19396,0.22022 0.97056,0.61563 0.35845,39.89457 0.41878,40.08466 0.55906,0.88053 24.24382,1.01612 24.31121,0.32255 0,0 -0.63997,-54.2536 0.2618,-55.11911 1.04233,-1.00044 12.30698,-0.51908 13.1709,0.15853 1.17356,16.28444 0.99032,55.03191 0.99032,55.03191 0,0 8.17251,-0.0265 8.26329,-0.11721 0.0576,-0.0576 -0.12525,-52.52389 0.54145,-55.47583 4.08321,0.27511 13.68589,-0.40511 13.68993,0.38064 l 0.064,55.09666 h 7.83372 l 0.26689,-55.5341 c 0,0 13.38436,0.11387 13.38475,0.48338 l 0.0583,55.40346 c 0,0 9.51309,-0.36887 9.51077,0.46945 l -0.14825,53.64579 c 0,0 -156.90975,0.55228 -214.71658,-0.65278 z m 14.11184,15.78947 c 0.67197,-1.84602 0.15883,-13.07055 0.12859,-13.10078 -0.0548,-0.0549 -11.46905,-0.0721 -11.46905,-0.0721 0,0 0.14697,9.75805 0.14805,13.3443 z m 17.0999,-0.0716 c 0.20301,-0.20301 0.10763,-37.43789 -0.0964,-37.64195 -0.25145,-0.25145 -5.76849,-0.26219 -7.18507,-0.16926 -0.1777,0.98676 -0.26117,36.72075 0.15025,37.83134 0.21573,0.58233 6.73217,0.37894 7.13124,-0.0201 z m 17.0691,0.0511 3.37999,-0.17229 -0.84009,-26.83846 -2.75794,-0.0615 c 0.002,2.79582 0.21804,27.07229 0.21804,27.07229 z m 18.11123,-26.92054 c -0.58676,-0.25431 -3.10429,-0.19137 -3.10429,-0.19137 l -0.12595,27.21111 c 0,0 3.54967,0.44702 3.41252,-0.10155 0,0 0.009,-26.60886 -0.18228,-26.91819 z m 14.9831,0.0192 c -1.07184,-0.0577 -2.64117,-0.26567 -2.91535,0.0647 -0.25314,0.305 -0.30769,26.37452 -0.0561,26.78167 0.16633,0.26914 2.96338,0.1477 2.96338,0.1477 -0.16278,-8.98948 0.008,-26.99409 0.008,-26.99409 z m 88.00104,-20.13848 -8.13733,-0.10935 c 0,0 -0.57564,46.9111 -0.30763,47.1791 0.17742,0.17743 8.30236,0.13984 8.30236,0.13984 z m -131.73772,20.34009 -3.20512,-0.31109 c 0,0 0.46937,24.82612 0.21735,26.91299 h 2.81201 c 0,0 0.4963,-23.80013 0.17576,-26.6019 z m 7.17317,26.72722 c 0.95551,-7.24164 0.46618,-45.9252 0.56341,-48.97813 0,0 -2.31865,-0.4757 -4.85361,0.22359 -0.43706,3.67134 -0.12986,48.92733 -0.12986,48.92733 2.36178,-0.0669 3.30209,-0.12997 4.42006,-0.17279 z m 15.00976,-87.83907 c -0.006,-0.56059 -5.8079,-0.25011 -5.99686,0.0556 -0.17842,0.2887 0.22628,87.72105 0.2731,87.8045 0.0467,0.0835 5.67646,0.15172 5.67646,0.15172 z m 15.4643,87.83366 c 0.17415,-0.0259 0.11606,-88.04112 0.11606,-88.04112 l -5.96824,0.11197 c 0,0 0.10469,87.62244 0.17072,87.7945 1.68622,0.2378 3.55708,0.45069 5.68146,0.13465 z m 14.82289,0.0186 c 0,0 0.19291,-84.74065 0.19043,-87.8024 -1.734,-0.5004 -5.91421,-0.57155 -5.91421,-0.57155 0,0 -0.0531,86.97136 0.15327,88.26898 1.71034,-0.054 4.0108,0.25932 5.57051,0.10497 z m 6.23258,-27.05142 h -3.0347 c 0,0 -0.0971,26.85165 0.0153,27.03361 0.0662,0.10699 3.01937,0.0763 3.01937,0.0763 z m 8.19728,26.90329 c 0.16439,-0.19807 0.30646,-87.6759 0.30646,-87.6759 l -5.40265,0.0197 c 0,0 -0.20819,87.16141 0.027,87.43785 0.42961,0.50483 4.36831,0.44373 5.06921,0.21841 z m 5.97823,0.0835 c 0.1849,-0.29916 0.17834,-26.57506 -0.007,-26.87447 -0.14859,-0.24043 -2.30916,-0.28795 -2.66588,-0.0586 -0.18221,0.11711 -0.27796,26.93618 -0.0967,27.07496 0.21985,0.1683 2.65464,0.0436 2.76924,-0.14185 z m 8.90453,-0.005 c 0.0778,-0.12582 0.29884,-87.55458 0.29884,-87.55458 0,0 -4.30975,-0.44712 -5.96145,-0.28051 0,0 -0.25971,87.59166 -0.0942,87.79104 0.29518,0.35568 5.53945,0.39581 5.75685,0.044 z m 26.91753,-46.86811 c -7.39942,-0.0424 -16.4129,-0.36686 -23.62023,-0.0963 -0.26244,0.26615 -0.40941,46.61067 -0.1488,46.92468 2.90801,0.1149 23.9451,0.16736 23.9451,0.16736 0,0 0.0229,-46.99459 -0.17607,-46.99573 z m 11.30356,46.89413 c 0.22693,-0.36718 0.31549,-100.08317 -0.0744,-102.4239 -1.45978,0.0165 -7.7963,-0.46667 -7.80915,0.24566 0,0 -0.2088,101.43866 -0.0363,102.22617 0.0919,0.4198 7.7746,0.18717 7.9199,-0.048 z m 23.13628,-102.27687 c 0,0 -7.71661,-0.67079 -7.71183,-0.16382 0.15766,16.74219 -0.68039,102.18856 -0.52308,102.3781 0.60313,0.6316 8.03363,0.26535 8.03363,0.26535 z m 10.49961,102.22673 c 0.21309,7.7e-4 0.22534,-46.99933 0.22534,-46.99933 0,0 -7.39717,-0.15147 -7.54598,0.0893 -0.30921,0.50031 -0.69941,46.92094 0.20467,46.98841 2.37044,0.1568 7.11597,-0.0784 7.11597,-0.0784 z m 10.70701,0 c 0.10471,-0.31412 0.20456,-99.49708 0.0507,-102.34238 -1.1233,-0.14974 -4.77889,0.23927 -6.66086,-0.15117 0,0 -0.94096,102.28625 -0.78109,102.47889 0.79267,0.81213 7.39128,0.0414 7.39128,0.0147 z m 9.90003,-46.84841 c -0.17099,-0.27666 -6.80219,-0.43816 -6.80219,-0.43816 0,0 0.0341,47.22638 0.0956,47.32575 6.30989,0.61584 6.78987,-0.13803 6.78987,0.0683 0,0 0.0187,-46.79073 -0.0833,-46.95586 z"
       id="path5" /></g></svg>
