<?xml version="1.0" encoding="UTF-8" standalone="no"?>
<!-- Created with Inkscape (http://www.inkscape.org/) -->

<svg
   version="1.1"
   id="svg1"
   width="360"
   height="360"
   viewBox="0 0 360 360"
   xml:space="preserve"
   xmlns="http://www.w3.org/2000/svg"
   xmlns:svg="http://www.w3.org/2000/svg"><defs
     id="defs1" /><g
     id="background"
     transform="matrix(1.0520845,0,0,1.0520845,-0.66436902,53.343559)"
     style="fill:#cd0000;fill-opacity:1"><path
       style="fill:#77b700;fill-opacity:1;stroke:none"
       d="M 12.411372,102.33637 121.00154,251.64785 322.8376,162.5331 295.69006,6.1396561 106.8376,-27.499689 Z"
       id="path2" /></g><g
     id="metric"
     transform="matrix(0.16135084,0,0,0.16135084,119.95495,253.63107)"><path
       style="fill:#f4f4f4;fill-opacity:1;stroke-width:0.591543"
       d="m 229.47667,169.99931 c -1.84862,-0.73498 -4.59234,-3.30385 -5.61232,-5.25462 -0.73007,-1.39634 -6.67454,-20.39037 -42.39192,-135.451597 -8.12847,-26.1853455 -14.8679,-47.698579 -14.97643,-47.807137 -0.25043,-0.250693 -0.6365,0.764287 -19.29388,50.743236 -15.08909,40.420311 -15.64108,41.766765 -18.10421,44.160643 -4.68114,4.549553 -2.2462,4.358042 -55.411228,4.358042 -46.840855,0 -47.353296,-0.01323 -49.888252,-1.239899 -3.512521,-1.700376 -5.50229,-5.143153 -5.50229,-9.520242 0,-3.75851 1.448946,-6.417329 4.686002,-8.598797 l 1.995928,-1.345036 h 43.869327 c 34.170043,0 44.089513,-0.163451 44.865083,-0.73942 0.7671,-0.569639 30.1362,-77.854637 40.95747,-107.779824 0.9355,-2.586995 2.5085,-5.623451 3.49563,-6.747725 4.55656,-5.189618 12.09244,-5.538759 17.0899,-0.791781 2.4818,2.357353 2.77681,3.101969 8.36799,21.118969 16.16848,52.101405 51.34921,164.526598 51.62782,164.984318 0.18008,0.29629 2.95382,-6.09258 6.16357,-14.19702 7.4947,-18.923746 30.62477,-77.590621 35.37349,-89.721005 3.94964,-10.089219 5.47521,-12.4406 9.1561,-14.112613 3.36326,-1.527704 6.62214,-1.393108 10.26892,0.424158 3.91145,1.949161 4.09021,2.257789 14.30095,24.695529 4.49836,9.88501 8.74059,19.073816 9.42714,20.419589 l 1.24827,2.446825 h 34.03104 c 37.68551,0 35.97769,-0.170631 39.08416,3.902251 1.22646,1.607994 1.68514,2.9775 1.87467,5.597658 0.33144,4.582621 -1.59505,8.126907 -5.42527,9.981097 -2.57545,1.246758 -2.89842,1.255488 -40.3811,1.092 -37.7255,-0.164585 -37.78874,-0.166852 -40.2354,-1.475363 -4.01814,-2.148985 -6.12255,-5.348155 -12.32686,-18.739526 -3.24732,-7.009038 -6.08321,-12.552333 -6.30195,-12.318438 -0.21868,0.233819 -6.52965,15.731415 -14.02431,34.438932 -34.23594,85.456966 -32.94536,82.307886 -34.5847,84.391966 -2.5431,3.23298 -9.2018,4.76325 -13.42334,3.08483 z"
       id="path1" /></g><g
     id="bike"
     transform="matrix(1.1864967,0,0,1.1864967,-29.099772,-81.41105)"><path
       style="display:inline;fill:#f4f4f4;fill-opacity:1;stroke-width:0.198135"
       d="m 210.17454,276.40727 c -2.71114,-0.47078 -4.08234,-0.89162 -4.36759,-1.34046 -0.28285,-0.44509 -0.16129,-1.37752 0.27366,-2.09888 2.13386,-3.53905 5.29048,-8.25906 6.01478,-8.99373 0.88614,-0.89884 0.91294,-0.90963 4.30564,-1.73296 1.87768,-0.45567 5.01885,-1.16027 6.98038,-1.56578 l 3.56642,-0.7373 0.76004,-1.07545 c 2.50329,-3.54215 2.99852,-6.32039 1.92287,-10.78724 -0.47223,-1.96101 -3.06847,-10.83844 -5.85155,-20.00837 -1.15758,-3.81408 -2.8202,-9.38661 -3.69473,-12.3834 -0.87452,-2.99678 -2.15705,-7.23191 -2.85004,-9.41138 -2.02957,-6.38298 -5.15147,-16.64705 -5.84564,-19.21904 -0.42965,-1.59191 -0.68209,-3.06112 -0.76391,-4.44596 l -0.1222,-2.06833 -2.27855,2.56326 c -1.25319,1.40978 -2.84996,3.18756 -3.54837,3.9506 -0.6984,0.76306 -2.4489,2.9031 -3.88998,4.75566 -1.44109,1.85255 -3.75763,4.70568 -5.14788,6.3403 -3.67238,4.31786 -8.65792,10.28934 -14.06078,16.84142 -6.35013,7.70082 -7.82747,9.40372 -11.09226,12.78569 -2.07432,2.14877 -3.0254,3.30459 -3.74986,4.55709 -0.53386,0.92297 -1.26879,2.16469 -1.63319,2.75938 -0.36439,0.59469 -0.5963,1.14475 -0.51535,1.22236 0.57242,0.54879 5.05697,2.06447 7.86774,2.65912 1.27705,0.27017 1.70263,0.45815 2.22902,0.98454 0.54881,0.54881 0.6506,0.79473 0.6506,1.57186 0,0.50669 -0.13054,1.17369 -0.29008,1.48222 -0.40392,0.78111 -1.42999,1.59884 -2.00617,1.59884 -0.26545,0 -1.12614,0.17831 -1.91263,0.39627 -3.23404,0.89619 -6.95765,0.11173 -9.49585,-2.00054 l -0.92508,-0.76983 -0.71661,1.28143 c -0.86991,1.55553 -1.47159,2.03281 -3.7459,2.97135 -7.00446,2.89054 -11.83593,1.97795 -15.77565,-2.97977 -0.64804,-0.81549 -1.49349,-2.147 -1.87877,-2.9589 -0.76434,-1.61068 -1.62221,-4.67646 -1.82387,-6.51792 l -0.12774,-1.16652 -1.40541,-0.64875 c -0.77297,-0.35682 -1.87633,-0.82745 -2.45193,-1.04587 l -1.04653,-0.3971 -0.2688,0.42917 c -1.24476,1.9874 -6.67838,10.9059 -7.0339,11.54514 -0.24869,0.44714 -0.42081,0.96722 -0.38249,1.15576 0.14884,0.73236 5.69307,2.25086 15.22695,4.17047 9.6729,1.94761 9.65972,1.94449 10.09661,2.3824 0.41629,0.41727 2.18772,5.71798 2.18772,6.54639 0,0.27689 -0.1867,0.59667 -0.4458,0.76356 -0.66821,0.43039 -3.30329,0.9108 -4.99584,0.9108 -1.91126,0 -5.49273,-0.53385 -5.6927,-0.84855 -0.0843,-0.13266 -0.15462,-0.53376 -0.15628,-0.89135 -0.002,-0.35758 -0.11449,-0.68877 -0.25071,-0.73597 -0.44536,-0.15433 -11.86359,-1.67361 -14.94445,-1.98847 -2.85059,-0.29133 -3.211,-0.28653 -6.93471,0.0924 -2.16032,0.21987 -7.44968,0.75644 -11.75416,1.1924 -4.30446,0.43594 -9.029956,0.9276 -10.501109,1.09255 -1.471148,0.16496 -2.825438,0.30078 -3.009528,0.30183 -0.26571,0.002 -0.32698,0.16974 -0.29721,0.81597 0.0538,1.16897 -0.45917,1.48688 -3.033557,1.87974 -2.480377,0.37852 -5.333176,0.27172 -8.090242,-0.30285 -2.505426,-0.52214 -2.807154,-0.7398 -2.807154,-2.02497 0,-0.90252 0.168352,-1.30336 1.55842,-3.71045 1.886136,-3.26612 6.402548,-11.84352 13.992403,-26.57383 1.824848,-3.54165 3.609291,-6.97433 3.965421,-7.62817 0.35612,-0.65384 0.87706,-1.63461 1.15763,-2.17948 l 0.51014,-0.99068 -0.58427,-1.64346 c -2.13189,-5.99667 -1.7483,-13.01414 1.011226,-18.49993 2.89569,-5.75652 7.57836,-9.65402 12.91715,-10.75129 4.78489,-0.98343 8.86015,-0.43892 12.41186,1.65838 0.67912,0.40102 1.22362,0.59288 1.48601,0.52359 0.22777,-0.0602 1.46301,-1.11387 2.74498,-2.34161 l 2.33083,-2.23225 -0.003,-1.08974 c -0.004,-1.27758 -0.54799,-3.59371 -2.0959,-8.91605 -1.01042,-3.47424 -1.12819,-4.07329 -1.16857,-5.94403 -0.0387,-1.79031 -0.29234,-2.66594 -1.15949,-6.43937 -1.76715,-7.68992 -1.41689,-8.54614 -3.16829,-14.35938 -0.21472,-0.62475 -0.37324,-0.73418 -1.72227,-1.18881 -1.78012,-0.59989 -2.18437,-1.12348 -1.71817,-2.22529 0.15198,-0.35916 0.47607,-0.83114 0.72021,-1.04883 0.24415,-0.21768 0.56852,-0.63677 0.72082,-0.93129 0.48546,-0.93878 -0.0808,-0.98178 -2.36512,-0.17959 -1.89298,0.66475 -2.16329,0.7075 -4.4943,0.71072 -2.3985,0.004 -2.52309,-0.0177 -3.7828,-0.63752 -2.49211,-1.22625 -4.46759,-3.84424 -4.68159,-6.20429 -0.26381,-2.90928 1.7197,-4.78168 5.66909,-5.35154 1.93821,-0.27966 3.32985,-0.20303 9.23817,0.50874 3.41166,0.411 5.58614,0.54588 10.00579,0.62061 6.03457,0.10205 7.35302,0.26826 9.08338,1.1451 1.26872,0.64291 2.75186,2.17095 3.03972,3.13174 0.38595,1.28817 0.0104,1.49053 -3.82631,2.06176 -1.7844,0.26568 -3.53739,0.5291 -3.89554,0.5854 -0.44362,0.0697 -1.07517,0.49898 -1.98135,1.34667 -0.73159,0.68438 -1.84284,1.54759 -2.46944,1.91823 -0.6266,0.37065 -1.13927,0.73021 -1.13927,0.79903 0,0.0688 0.16563,0.33776 0.36806,0.59764 0.20244,0.25989 0.48801,0.80737 0.6346,1.21661 0.26608,0.7428 0.26506,0.74559 -0.59018,1.61701 l -0.85671,0.87293 0.24364,1.01565 c 1.15768,4.82573 3.43626,12.33763 5.16451,17.66391 0.0667,0.20548 0.65393,0.5746 1.22666,0.85365 l 1.04133,0.50735 6.14216,-1.18175 c 5.87424,-1.13021 32.3685,-6.52278 39.42875,-8.02522 1.85256,-0.39424 6.35516,-1.33248 10.00579,-2.08498 3.65062,-0.7525 7.65314,-1.66172 8.89447,-2.02049 l 2.25697,-0.65229 0.0305,-1.18758 c 0.0196,-0.76122 0.16466,-1.41453 0.40409,-1.81976 l 0.37355,-0.63219 -1.15877,-5.11371 c -0.63731,-2.81254 -1.26319,-5.5595 -1.39085,-6.10438 -0.27175,-1.15995 -0.0391,-1.12179 -3.61401,-0.59289 -2.89266,0.42796 -4.10889,0.25799 -5.43638,-0.75974 -1.91962,-1.4717 -2.16404,-4.09117 -0.52458,-5.62193 1.56428,-1.46055 4.97469,-1.99758 16.61011,-2.61555 2.99844,-0.15924 3.11909,-0.18306 5.10006,-1.00661 1.11594,-0.46392 2.67624,-1.24664 3.46736,-1.73939 4.33172,-2.69799 12.72115,-7.69179 13.92085,-8.2864 3.46891,-1.71927 6.38293,-1.68135 7.88404,0.10261 0.40735,0.48411 0.53667,0.85006 0.53667,1.51863 0,1.50427 -0.65924,2.06602 -9.27765,7.90575 -1.28661,0.87179 -2.64437,1.74911 -3.01724,1.94959 -0.62902,0.33822 -0.65209,0.38344 -0.31969,0.6265 0.19706,0.14409 1.22129,0.32814 2.27607,0.40902 3.62239,0.27774 7.51673,-0.54812 9.95778,-2.11173 0.76235,-0.48831 2.74155,-2.29086 4.93782,-4.49708 4.34066,-4.36032 4.98837,-4.88588 6.41493,-5.20514 0.9761,-0.21844 1.15449,-0.20211 1.93839,0.17736 0.53668,0.25981 1.07441,0.73864 1.42112,1.26549 1.15724,1.75846 0.44521,3.52862 -2.96099,7.36136 -3.25093,3.65802 -3.84775,4.40673 -4.16306,5.22257 -0.2976,0.77002 -0.29876,0.98175 -0.0142,2.57575 0.41447,2.32165 0.50041,3.23256 0.74136,7.85803 0.21979,4.21923 0.41767,5.53735 1.00582,6.70003 0.45412,0.89774 0.46683,1.37947 0.0573,2.17144 -0.29216,0.56498 -0.37333,0.60067 -1.13927,0.50088 -0.68017,-0.0886 -0.99381,-0.29245 -1.78964,-1.16304 -1.22015,-1.33476 -2.15313,-2.76605 -2.62738,-4.03067 -0.32922,-0.87787 -0.36453,-1.49793 -0.31779,-5.58084 0.0522,-4.55962 0.0493,-4.59554 -0.39081,-4.90383 -0.59583,-0.41733 -2.25954,-0.39794 -3.12912,0.0365 l -0.69347,0.34643 -0.0128,3.66549 c -0.0146,4.17255 -0.19485,5.07925 -1.49097,7.49963 -1.97421,3.68664 -4.87209,6.16283 -9.20329,7.86405 -2.34725,0.92197 -3.53956,1.16919 -5.66774,1.17517 -1.63683,0.005 -1.97375,-0.0514 -2.34836,-0.39043 -0.68195,-0.61707 -0.99128,-1.38066 -0.99128,-2.44678 0,-1.46194 0.6705,-1.96745 3.68407,-2.7775 5.29916,-1.42443 6.69848,-2.11414 8.25163,-4.06717 1.87472,-2.35739 2.54777,-4.77679 2.16715,-7.79026 -0.39908,-3.15975 -0.57765,-3.3514 -3.60172,-3.86574 -1.85162,-0.31492 -18.20008,-0.33806 -19.11997,-0.0271 -0.55383,0.18725 -0.59406,0.26753 -0.58929,1.17612 0.003,0.53634 0.4748,3.02584 1.04887,5.53224 1.48506,6.48374 1.31192,5.97822 2.09804,6.1257 0.36948,0.0693 0.75855,0.23511 0.8646,0.36844 0.18499,0.23258 1.83225,6.4249 2.90037,10.90301 0.74008,3.10274 3.6577,13.69961 3.99256,14.50105 0.15677,0.3752 0.28504,0.93951 0.28504,1.25402 0,0.70721 0.48801,1.2458 2.43019,2.68212 0.82942,0.61337 1.79043,1.45161 2.1356,1.86275 1.43395,1.708 4.07388,7.24508 5.71662,11.99024 0.42344,1.22314 1.6335,4.54206 2.68901,7.37539 4.08975,10.97813 10.77883,29.70272 13.4837,37.7446 1.55776,4.63139 4.49589,13.27996 6.52919,19.21904 2.0333,5.93907 3.79403,11.26085 3.91276,11.82617 0.18152,0.8644 0.16486,1.10564 -0.10475,1.51713 -0.89598,1.36743 -5.4651,1.63894 -11.11552,0.6605 -1.73346,-0.30017 -3.2269,-0.59221 -3.31875,-0.64898 -0.25922,-0.1602 -0.19666,-1.07183 0.0807,-1.17553 0.13622,-0.0509 1.04526,-0.25647 2.02009,-0.45674 1.80158,-0.37013 2.02716,-0.50377 1.70654,-1.011 -0.1515,-0.23967 -0.8666,-0.10626 -4.50433,0.84036 -5.81143,1.51225 -10.85854,2.72174 -16.78067,4.02131 -2.71001,0.59469 -5.09533,1.17117 -5.30069,1.28108 -0.33685,0.18029 -0.36093,0.36201 -0.24599,1.85726 l 0.1274,1.65742 -0.57261,0.29582 c -0.31493,0.1627 -1.60868,0.52808 -2.875,0.81197 -2.851,0.63913 -4.52398,0.64246 -8.13059,0.0162 z m 33.84609,-19.03198 c 1.75034,-0.30089 1.83574,-0.34007 2.34602,-1.0764 1.01134,-1.45937 1.09888,-2.72628 0.40097,-5.80296 -0.52926,-2.33318 -4.02856,-14.42136 -4.23678,-14.63581 -0.0706,-0.0728 -2.15543,0.27426 -4.63276,0.77126 l -4.50425,0.90363 0.12299,0.51661 c 0.0677,0.28413 0.87814,3.10226 1.80111,6.26251 0.92297,3.16024 2.11517,7.26162 2.64935,9.11418 0.53417,1.85255 1.11543,3.64131 1.29167,3.97501 l 0.32046,0.60673 1.31238,-0.16124 c 0.72182,-0.0887 2.1298,-0.30177 3.12884,-0.47352 z m -139.718,-11.39091 c 5.1151,-0.45044 5.59231,-0.57975 6.41761,-1.73878 0.20989,-0.29475 1.91569,-3.07474 3.79067,-6.17773 l 3.40905,-5.64181 -0.86464,-0.16895 c -2.08158,-0.40676 -3.89495,-0.98886 -5.959,-1.91285 -1.21805,-0.54528 -2.27987,-0.92407 -2.35958,-0.84175 -0.24625,0.25429 -7.47754,11.30705 -9.019756,13.78635 -0.8016,1.28867 -1.45745,2.56324 -1.45745,2.8324 0,0.4413 0.0632,0.47917 0.64394,0.38562 0.35416,-0.0571 2.783776,-0.29219 5.399156,-0.5225 z m 132.98787,-15.18697 3.40797,-0.74896 -1.56339,-4.00741 c -1.84026,-4.71713 -3.29105,-8.0974 -5.83635,-13.59851 -2.55153,-5.51455 -4.73175,-10.61404 -6.44992,-15.08626 -1.72564,-4.49162 -4.40308,-10.47965 -5.546,-12.40347 -0.82375,-1.38657 -2.28753,-2.72683 -2.61763,-2.39674 -0.092,0.092 -0.0789,0.60655 0.0291,1.14344 0.76882,3.82312 1.32421,6.22286 1.89815,8.20146 0.36457,1.25684 1.29851,4.69249 2.07543,7.63479 1.43303,5.42705 4.3818,16.09977 7.3392,26.56328 l 1.62777,5.75916 1.11387,-0.1559 c 0.61264,-0.0857 2.64747,-0.49295 4.52185,-0.90488 z m -73.26033,-16.001 c 1.81467,-2.18185 4.67286,-5.66105 6.35152,-7.73155 5.56044,-6.85837 6.26233,-7.70634 8.61019,-10.40206 1.2813,-1.47115 4.0769,-4.81467 6.21245,-7.43004 2.13554,-2.61538 6.78863,-8.27707 10.34019,-12.58154 8.10126,-9.81866 8.0671,-9.77484 8.34472,-10.70144 0.28797,-0.96118 -0.034,-1.87533 -0.79498,-2.25737 -0.28433,-0.14273 -2.10961,-0.51008 -4.05618,-0.81632 l -3.53921,-0.5568 -2.30575,0.33973 c -5.78059,0.85172 -18.48224,2.80966 -25.88375,3.98994 -4.46793,0.71248 -10.66459,1.64927 -13.77034,2.08177 -7.85809,1.09429 -11.07915,1.57857 -11.89369,1.78819 -0.48999,0.12609 -0.91443,0.46266 -1.41897,1.12522 -1.32911,1.7454 -1.34035,1.3316 0.20634,7.59817 0.76447,3.09732 1.88835,7.45928 2.4975,9.69325 0.60917,2.23396 1.28993,4.99793 1.5128,6.14216 0.74973,3.84906 0.93041,4.32943 1.79419,4.7701 0.64295,0.32801 0.76339,0.48839 0.76339,1.01659 0,0.358 -0.173,0.81129 -0.40311,1.05624 l -0.40312,0.42909 1.19526,4.53704 c 0.65739,2.49537 1.19543,4.69306 1.19565,4.88376 2e-4,0.21114 0.15097,0.34674 0.38543,0.34674 0.50622,0 1.00114,0.72916 1.00494,1.48056 0.002,0.32992 0.0711,0.70688 0.15423,0.8377 0.0832,0.13082 1.53661,0.68643 3.2299,1.23469 2.4767,0.80191 3.34765,1.1857 4.45405,1.96269 0.75643,0.53122 1.49281,1.10741 1.6364,1.28042 0.48629,0.58595 1.20833,-0.0631 4.57995,-4.11693 z M 138.4884,204.53482 c -2.13764,-8.44364 -3.98441,-14.20135 -4.78844,-14.92898 -0.34087,-0.30849 -0.41199,-0.28317 -1.20848,0.43001 -0.46546,0.41678 -0.87588,0.82967 -0.91203,0.91753 -0.0361,0.0879 0.19301,0.41849 0.50926,0.73473 1.37021,1.37022 3.17484,4.4479 4.07875,6.95603 1.12154,3.11203 1.51481,5.13271 1.65815,8.51979 0.0622,1.47114 0.20179,2.78662 0.31005,2.92326 0.27208,0.34342 1.39103,0.62792 1.62694,0.41367 0.12179,-0.11062 -0.34427,-2.29282 -1.2742,-5.96604 z m -9.64259,-66.32916 c 1.92236,-0.71924 2.06978,-1.48978 0.17168,-0.89731 -1.26707,0.3955 -1.6322,0.6255 -1.6322,1.02812 0,0.36275 0.18588,0.3461 1.46052,-0.13081 z"
       id="path1-6" /></g><path
     style="fill:#000000"
     d="m -814.08523,709.66664 -5.93001,-5.66667 -0.16663,-12 -0.16662,-12 3.66954,-10.66666 c 3.9245,-11.40782 6.79258,-16.93775 10.21554,-21.33333 18.85703,-24.21517 25.47972,-69.48705 25.8366,-70.06448 2.57283,-4.16294 -3.5263,-55.73415 -3.88352,-57.7041 -0.80775,-4.45449 -3.17069,-6.76876 -7.48967,-7.33543 -7.29625,-0.95729 -38.73546,-17.58619 -51.21841,-41.17465 -11.23207,-21.22471 -11.49857,-54.81163 -12.1164,-78.73557 -0.27298,-10.57022 -0.29268,-37.17394 -0.13798,-59.31906 -0.60034,-31.91742 -0.11427,-63.60038 25.28632,-87.54861 17.19048,-15.70634 32.83192,-20.51192 63.55298,-21.45412 8.03392,0.0611 16.01456,-0.59249 23.9668,-1.63342 V 210 c -24.73657,-1.18643 -56.54692,-3.31255 -74.06358,-8.3457 -43.79362,-10.95889 -59.18392,-45.73945 -76.64595,-81.98763 -1.61406,-2.33247 -1.1087,-2.38211 -8.29047,-2.36695 -11.57659,0.0245 -32.83798,-10.08037 -44.5517,-27.633045 -17.02366,-25.509476 -16.24677,-56.805606 -3.90485,-83.6666616 4.94299,-10.7760657 22.12969,-25.5346264 36.87825,-28.4843384 7.91369,-1.582734 -2.50662,-15.454977 5.2303,-46.182324 6.8369,-27.153019 16.73054,-41.333331 17.5373,-41.333331 4.46796,-8.16935 18.8527,-25.33844 27.14404,-29.35691 16.04458,-10.09801 31.59904,-16.26059 50,-21.72115 26.6803,-6.38611 54.14025,-8.86973 81.33333,-12.22741 25.22011,-3.10691 24.57333,-2.31913 24.69483,-8.39035 0.15072,-7.53125 -0.28179,-20.40631 -4.02816,-48.6131 l -8.18737,-2.95816 c -55.66204,-20.11115 -44.07409,-107.04432 14.18737,-106.43407 20.64224,0.21622 30.54676,9.65525 36.05098,15.42462 22.25337,23.32538 16.50225,68.71447 -10.86723,85.76661 l -7.48291,4.66212 0.4691,4.02887 c 1.15344,9.9065 1.01395,13.86827 3.96594,41.81893 1.84569,17.47574 124.74573,-6.43093 160.80899,0.65923 12.75926,2.67715 24.67211,8.65798 35.31429,16.88434 10.53054,7.76049 19.77132,16.93372 26.72411,28.1186 8.55179,14.19862 17.56347,38.24049 19.71796,55.554117 0.94714,4.907839 21.88052,147.852925 13.38881,173.916437 -3.17867,15.026076 -8.92406,29.152646 -17.87961,41.744226 -25.11231,35.99664 -58.67839,45.79268 -82.99384,51.58112 -7.62211,1.81449 -28.46473,3.4946 -43.59204,8.29585 l -0.37229,26.53441 6.37387,-0.68264 c 26.76738,-2.44979 47.70977,-17.16899 70.37387,-28.19615 2.2,-1.05159 4.9,-2.48261 6,-3.18003 1.1,-0.69743 3.65,-1.91808 5.66666,-2.71255 2.01667,-0.79448 3.66667,-1.98582 3.66667,-2.64741 0,-0.6616 0.57588,-1.2029 1.27974,-1.2029 0.70386,0 5.05386,-2.3943 9.66667,-5.32067 4.61281,-2.92636 9.02379,-5.32636 9.80217,-5.33333 0.77839,-0.007 2.60098,-1.06267 4.05019,-2.346 4.20036,-3.71957 10.8539,-8.23563 12.72036,-8.63389 0.94368,-0.20136 3.23792,-1.74364 5.09832,-3.4273 1.8604,-1.68365 5.48255,-4.36385 8.04922,-5.956 2.56666,-1.59215 6.16053,-4.26461 7.98637,-5.93881 1.82584,-1.6742 3.73299,-3.044 4.2381,-3.044 0.50511,0 1.78388,-0.86549 2.84171,-1.92332 1.05782,-1.05783 6.05068,-5.03173 11.09523,-8.8309 5.04456,-3.79917 10.07192,-7.70842 11.17192,-8.68721 7.90613,-7.03499 13.33333,-11.42057 13.33333,-10.77432 0,0.83526 2.04343,-0.99062 15.15624,-13.54267 4.84081,-4.633799 9.41099,-8.048389 10.15595,-7.587976 0.74496,0.460412 1.41486,0.0517 1.48867,-0.908243 0.0738,-0.959945 2.9238,-4.34595 6.33333,-7.524453 3.40953,-3.178504 17.44915,-16.857684 31.19915,-30.398179 l 25,-24.61908 0.0197,-8.935153 c 0.0236,-10.6842982 3.06275,-24.4691 6.68804,-30.334946 1.44407,-2.336563 2.62632,-5.077475 2.62722,-6.090917 8.9e-4,-1.013442 1.35089,-3.444041 3,-5.401331 1.6491,-1.957291 4.19837,-5.223722 5.66504,-7.258735 1.46666,-2.035014 3.80683,-4.633595 5.20038,-5.774623 1.39354,-1.141029 3.60342,-3.084479 4.91084,-4.318779 1.30743,-1.2343 4.06726,-3.319896 6.13296,-4.634657 2.0657,-1.314762 4.23563,-3.15488 4.82207,-4.089152 0.58644,-0.934272 1.73936,-1.698676 2.56205,-1.698676 0.82269,0 5.44288,-1.59691 10.26708,-3.548689 4.87002,-1.970315 12.30586,-3.7752 16.71813,-4.057958 9.62544,-0.61684 8.33547,1.297412 9.3165,-13.825256 0.45546,-7.020881 1.05555,-14.22088 1.33354,-15.999999 0.27799,-1.779119 0.91671,-6.813728 1.41936,-11.188018 0.50265,-4.37429 1.15804,-9.17429 1.45642,-10.66666 0.29837,-1.49238 0.87167,-7.81342 1.274,-14.04675 0.40233,-6.23333 0.97778,-12.23333 1.27877,-13.33333 0.30099,-1.1 0.90589,-6.2 1.34422,-11.33333 0.43834,-5.13334 1.35414,-11.84818 2.03513,-14.92187 0.68098,-3.07369 0.8843,-6.51065 0.45182,-7.63769 -0.48065,-1.25255 0.8317,-3.66721 3.3758,-6.21131 l 4.16214,-4.16214 18.9694,0.82241 c 10.43316,0.45232 20.76939,1.08942 22.96939,1.41578 2.2,0.32635 9.4,0.93751 16,1.35812 19.87419,1.26656 26.85421,3.085 30.22371,7.87389 0.95969,1.36396 0.18356,28.48685 -0.97499,34.07254 -0.38676,1.86465 -0.99482,6.99027 -1.35125,11.39026 -0.35643,4.4 -1.26337,14 -2.01542,21.33334 -0.75205,7.33333 -1.92211,19.033329 -2.60013,25.999995 -0.67803,6.966667 -1.52758,15.666666 -1.88791,19.333333 -0.36032,3.666666 -0.98225,10.566666 -1.38205,15.333332 -0.39981,4.766666 -1.04309,10.222669 -1.42951,12.12445 -0.38642,1.901781 -0.92663,7.905037 -1.20048,13.340569 -0.27385,5.435533 -0.69682,10.576751 -0.93994,11.42493 -0.44809,1.563287 1.58991,5.0439164 5.96979,10.1955904 1.3265,1.56025057 2.13268,3.9042878 1.79149,5.2089716 -0.3775,1.4435652 0.11372,2.3721524 1.25485,2.3721524 1.03134,0 1.92451,0.7499999 1.98481,1.6666665 0.0603,0.9166666 0.5015,3.4666661 0.98043,5.6666661 3.31683,15.235992 -0.90426,41.112305 -7.35146,45.066251 -0.95624,0.586439 -1.73861,1.936439 -1.73861,3 0,1.06356 -0.48686,1.933746 -1.08192,1.933746 -0.59505,0 -2.2778,1.05 -3.73944,2.333333 -1.46164,1.283334 -3.82478,2.998629 -5.25142,3.811768 -3.06081,1.744564 -3.78512,5.196329 -6.54448,31.188226 -1.12886,10.63334 -2.35128,20.83334 -2.71648,22.66667 -0.3652,1.83333 -0.91562,7.66152 -1.22315,12.95152 -0.30753,5.29001 -0.83938,10.09001 -1.1819,10.66667 -0.34251,0.57666 -1.03208,5.84847 -1.53237,11.71514 -0.50029,5.86667 -1.13004,12.76667 -1.39945,15.33333 -0.26942,2.56667 -0.8715,8.86667 -1.33796,14 -1.36853,15.0604 -1.87685,19.72153 -2.69003,24.66667 -0.42207,2.56666 -0.97053,6.46666 -1.2188,8.66666 -0.24827,2.2 -0.79843,6.7 -1.22257,10 -0.42415,3.3 -1.07857,9 -1.45427,12.66667 -0.37569,3.66667 -0.96138,8.46667 -1.30153,10.66667 -0.34015,2.2 -1.01458,8.79219 -1.49875,14.64931 -0.48416,5.85712 -1.12588,11.85712 -1.42603,13.33333 -0.30016,1.47621 -0.83333,5.98402 -1.18483,10.01735 -1.52467,17.49489 -3.72639,28.39844 -6.2425,30.91455 l -2.55523,2.55523 -9.89777,-0.26197 c -5.44377,-0.14409 -13.06307,-0.82188 -16.93177,-1.50621 -7.83037,-1.38509 -13.07138,-2.18894 -19.03402,-2.91937 -2.2,-0.2695 -10.9,-1.73245 -19.33333,-3.251 l -15.33333,-2.76101 -3.73629,-4.15073 -3.73629,-4.15073 0.68271,-8.23438 c 0.67503,-8.14194 1.34938,-14.56682 2.75353,-26.23438 0.39714,-3.3 1.0242,-9.9 1.39347,-14.66666 0.36927,-4.76667 0.99432,-10.2332 1.389,-12.14785 0.39468,-1.91465 0.9812,-6.41465 1.30337,-10 0.32218,-3.58535 0.8159,-8.01882 1.09716,-9.85215 0.28127,-1.83333 0.92502,-8.13333 1.43055,-14 1.00901,-11.70944 5.74818,-54.57696 6.85434,-62 0.38248,-2.56666 1.23724,-10.74423 1.89946,-18.17237 0.66223,-7.42814 1.58228,-15.01268 2.04456,-16.85454 1.69618,-6.75816 -1.89266,-4.50401 -16.60384,10.42883 -8.271,8.39561 -15.51403,15.26475 -16.09564,15.26475 -0.5816,0 -1.40282,0.9 -1.82493,2 -0.42211,1.1 -1.6863,2 -2.80932,2 -1.12301,0 -2.08336,0.75 -2.1341,1.66667 -0.0507,0.91666 -4.25596,5.26666 -9.34493,9.66666 -5.08896,4.4 -11.49745,10.03208 -14.24107,12.51572 -2.74363,2.48364 -8.28841,6.95616 -12.32174,9.93893 -4.03334,2.98278 -12.77039,9.50071 -19.41568,14.48429 -6.64529,4.98358 -12.74529,9.06106 -13.55556,9.06106 -0.81026,0 -1.67321,0.51919 -1.91765,1.15375 -0.24445,0.63456 -4.73178,3.89046 -9.97185,7.23533 -5.24008,3.34487 -9.92549,6.72568 -10.41203,7.51292 -0.48653,0.78723 -2.0492,1.43133 -3.47259,1.43133 -1.42339,0 -2.58798,0.50465 -2.58798,1.12143 0,0.61679 -3.05723,2.86679 -6.79385,5 -3.73662,2.13322 -7.78662,4.47857 -9,5.21191 -1.21338,0.73333 -7.38947,4.48333 -13.72465,8.33333 -6.33518,3.85 -11.94255,7 -12.46084,7 -0.51828,0 -2.53496,1.12128 -4.4815,2.49174 -1.94653,1.37045 -4.95103,2.93052 -6.67665,3.46682 -1.72563,0.5363 -5.24675,2.40646 -7.82473,4.15593 -2.57798,1.74946 -5.21611,2.85398 -5.86251,2.45449 -0.6464,-0.3995 -1.17527,-0.15982 -1.17527,0.53262 0,0.69243 -5.85,4.09145 -13,7.55337 -16.50337,7.99068 -18.03272,8.76037 -27.46872,13.82449 -4.29114,2.30296 -8.57609,4.1872 -9.52213,4.1872 -2.74416,0 -3.21375,4.41204 -3.40593,32 -0.2611,37.48147 -0.12908,38.92621 3.29727,36.08259 9.72942,-8.0747 32.31702,-7.95349 41.09194,-7.5708 20.65388,0.90078 42.86584,16.16879 52.1133,35.82154 1.294,2.75 3.37457,5.06407 4.6235,5.14237 1.24892,0.0783 11.27817,0.29261 22.28721,0.47624 23.55404,0.39287 37.31932,6.0236 28.32109,11.58481 -1.05863,0.65427 -1.08647,1.44648 -0.0947,2.69496 0.92084,1.1592 1.41856,17.60371 1.44497,47.7414 l 0.0403,45.97311 -3.273,3.03332 -3.27301,3.03332 -2.75193,-1.47279 c -1.99163,-1.06589 -2.50155,-1.06767 -1.84567,-0.006 1.23502,1.99831 1.86747,1.98366 -46.25168,1.07143 -7.88364,-0.14945 -14.33364,0.15943 -14.33333,0.68642 3e-4,0.52698 -0.81544,0.64503 -1.81275,0.26232 -0.99732,-0.38271 -3.54732,0.72442 -5.66667,2.46029 -3.97799,3.25821 -12.5592,7.65257 -14.94375,7.65257 -0.74473,0 -1.5775,0.67034 -1.8506,1.48964 -0.2731,0.8193 -2.8731,1.5693 -5.77778,1.66667 -2.90468,0.0974 -5.69166,0.74841 -6.1933,1.44677 -1.42746,1.98726 -17.97667,1.79995 -25.56599,-0.28937 -17.08621,-3.87572 -32.1238,-13.06846 -45.15255,-24.65434 l -3.92244,-3.67396 -6.86724,6.00729 c -3.77698,3.30401 -7.62755,6.0073 -8.55681,6.0073 -0.92926,0 -1.69425,0.45 -1.69997,1 -0.0122,1.17774 -6.45212,4.33333 -8.84339,4.33333 -3.50504,0 -1.4904,1.78394 2.4152,10.15622 21.81272,46.75904 16.61545,80.10017 13.60366,95.17711 -0.51273,2.56666 -1.00169,5.26666 -1.08658,6 -0.0849,0.73333 -0.6341,3.27938 -1.22044,5.65789 -1.02763,4.16862 1.54968,9.48993 3.60221,7.4374 0.42775,-0.42774 2.83986,0.20083 5.36024,1.39683 2.52038,1.196 5.24184,2.17454 6.04768,2.17454 0.80583,0 1.46516,0.45354 1.46516,1.00785 0,0.55432 1.8034,1.80612 4.00755,2.78177 2.20415,0.97565 3.66874,2.32212 3.25464,2.99215 -0.4141,0.67003 0.0386,1.21823 1.00608,1.21823 2.79196,0 8.08834,5.59216 13.04988,13.77867 2.51824,4.15506 5.03301,7.55466 5.58838,7.55466 0.55538,0 0.64117,0.96056 0.19066,2.13457 -0.45051,1.17401 -0.0828,2.58963 0.81714,3.14582 6.80822,4.20771 2.24951,47.15623 -4.7214,44.48124 -1.31235,-0.5036 -1.63791,-0.0687 -1.0654,1.42325 l 0.82444,2.14845 h -4.73063 c -2.60185,0 -5.10245,-0.60162 -5.55691,-1.33693 -0.51931,-0.84027 -1.67583,-0.88227 -3.11312,-0.11306 -1.39234,0.74516 -3.15129,0.74011 -4.49685,-0.0129 -1.32148,-0.73954 -2.5113,-0.7493 -2.95939,-0.0243 -0.5735,0.92795 -16.89341,0.91428 -23.14104,-0.0194 -0.52472,-0.0784 -1.25403,-0.0312 -1.6207,0.10484 -0.36667,0.13607 -18.0398,0.35712 -39.27363,0.49122 l -38.60697,0.24383 -3.39303,-1.83875 c -1.86617,-1.01132 -5.79304,-2.57591 -8.72637,-3.47687 l -5.33333,-1.63812 -1.06659,-12.52313 c -0.58662,-6.88772 -0.63638,-14.62313 -0.11056,-17.1898 0.52581,-2.56666 0.84238,-5.36046 0.70348,-6.20844 -0.46897,-2.86308 14.24551,-29.20363 15.36235,-34.11139 1.11683,-4.90776 6.32428,-35.43707 7.35155,-39.68016 C -603.94532,576.73752 -622,512.52936 -622,512.52936 c 0,0 -77.07294,2.69647 -76.54249,3.97153 8.5456,20.54138 4.7065,66.50524 1.06375,80.69188 -0.77305,3.01065 -6.91195,27.1168 -9.94295,32.97811 l -1.99099,3.85014 3.70634,1.62902 c 2.03849,0.89596 4.00634,2.00038 4.37301,2.45426 0.36666,0.45388 3.51235,2.40179 6.99041,4.3287 9.14066,5.0641 21.37424,20.57982 22.51795,28.55928 0.0794,0.55425 0.69705,2.46119 1.37246,4.23766 0.67541,1.77646 0.92973,4.00724 0.56516,4.95729 -0.36457,0.95006 -0.20689,2.00917 0.3504,2.3536 0.55728,0.34442 1.13665,5.05897 1.28748,10.47679 l 0.27423,9.85057 -6.79626,4.5659 c -3.73794,2.51125 -7.91017,5.20462 -9.27162,5.98526 -2.32059,1.3306 -10.85388,1.40772 -60.16744,0.54382 -8.54914,-0.14977 -16.04914,0.0223 -16.66667,0.38244 -1.64222,0.95767 -38.68921,0.0797 -40.36602,-0.9566 -0.78288,-0.48385 -1.42342,-0.24431 -1.42342,0.5323 0,3.22689 -5.88344,1.03468 -11.41856,-4.25464 z m 76.7519,-15.8609 C -715.7,693.82957 -695.75,693.53027 -693,693.14065 l 5,-0.70841 v -2.92556 c 0,-11.62004 -9.07323,-27.25201 -19.15181,-32.99602 -12.45383,-7.09771 -15.47298,-7.57972 -51.86263,-8.2799 l -22.34777,-0.43 -3.7221,2.64428 c -6.14061,4.36244 -15.49707,26.0203 -16.80021,38.88827 -0.53041,5.23762 1.47486,5.99765 13.69439,5.19039 6.33791,-0.4187 29.22346,-0.74178 50.8568,-0.71796 z M -502,693.13653 c 2.00295,-0.74687 1.0027,-15.95251 -1.34848,-20.49917 -1.12933,-2.1839 -1.6006,-3.97072 -1.04726,-3.97072 0.55335,0 -2.88125,-3.75678 -7.63242,-8.34839 l -8.63851,-8.3484 L -530,648.4139 c -8.43214,-3.21261 -33.91597,-6.61732 -38.66667,-5.16598 -0.73333,0.22404 -7.93333,0.4849 -16,0.5797 l -14.66666,0.17236 -4.87771,9.99999 c -2.68275,5.5 -5.49668,10.68607 -6.25319,11.5246 -0.75651,0.83852 -1.13939,1.76068 -0.85083,2.04923 0.28855,0.28855 -0.28002,5.55006 -1.2635,11.69225 -1.33931,8.36457 -1.40745,11.60353 -0.27145,12.9044 l 1.51668,1.7368 54,-0.13677 c 29.7,-0.0752 54.6,-0.3605 55.33333,-0.63395 z m -218.18179,-83.13655 c 6.56294,-24.59146 6.11491,-25.21793 -18.5773,-25.97401 -22.86535,-0.70014 -23.90758,-0.4901 -23.90758,4.81818 0,2.19879 -10.95134,39.69992 -10.95134,39.69992 l 44.68603,0.78924 c 0,0 8.30984,-17.68333 8.75019,-19.33333 z m 161.02129,15.08221 8.17283,-0.69183 2.42814,-8.86186 c 1.4722,-5.373 2.454,-13.58618 2.49383,-20.86186 l 0.0657,-11.99999 -21,-0.27467 c -11.55,-0.15107 -21,-0.13315 -21,0.0398 0,1.37522 -4.22807,34.49133 -4.82507,37.79203 l -0.76396,4.22385 3.12785,0.63368 c 4.20975,0.85287 21.22987,0.85333 31.30068,8.4e-4 z m -154.13841,-61.75892 c 2.22278,-0.63257 -1.65575,-29.67573 -2.11072,-32.55093 -2.0251,-12.79778 -7.22331,-14.51614 -36.59037,-12.09558 -13.78115,1.1359 -12.70803,-0.0788 -10.23387,11.58426 1.7485,8.24239 3.56721,34.5285 3.56721,34.5285 8.70648,-1.0986 37.0218,0.90889 45.36775,-1.46625 z m 167.70504,-2.61101 -0.56816,-6.35614 c -1.1859,-13.26698 -21.73792,-40.54454 -21.73792,-40.54454 0,0 -32.10005,-3.04354 -32.10005,-1.47376 0,0.48482 13.39338,48.83332 13.90325,49.34319 2.53665,2.53665 40.50288,-0.96875 40.50288,-0.96875 z m -140.50702,-66.10747 c 21.06632,-1.66239 46.2696,-2.09619 66.79038,-2.56611 42.91668,-0.98278 52.37103,-1.51608 56.79401,-3.20361 l 3.18317,-1.21449 -3.33334,-0.72531 C -564.5,486.49636 -566.9,486.19976 -568,486.23618 c -3.73383,0.1236 -31.2977,-4.65459 -46.66667,-8.08966 -27.68125,-6.18694 -78.58041,-26.32334 -94.41764,-37.3529 -1.97029,-1.37218 -7.18236,-4.80553 -11.58236,-7.62966 -12.52158,-8.03697 -31.40981,-21.7274 -38,-27.54289 -9.85654,-8.69789 -29.70998,-26.79644 -31.93086,-29.10843 -15.00357,-15.61903 -18.18895,-20.90882 -19.83392,-32.93709 -1.14515,-8.37355 0.53463,-19.29334 4.44703,-28.90889 7.15685,-17.58942 28.83646,-35.33333 30.40765,-35.33333 0.7031,0 10.06302,-6.0418 11.34325,-7.32204 0.41999,-0.41999 -6.50782,-15.3377 -16.86395,-22.5145 -19.33935,-5.04718 -29.8498,6.01927 -41.74782,20.68035 -18.60707,29.16687 -12.89918,61.8006 -12.52003,94.8388 0.83257,72.54776 -2.11733,79.78297 11.44238,96.98405 22.68319,28.77462 33.771,40.8157 137.82205,32.6048 z m 234.43354,-1.73288 c 0.3522,-1.34679 0.20692,-8.09393 -0.32283,-14.99365 -0.52974,-6.89972 -0.87772,-28.44494 -0.77327,-47.87827 l 0.18991,-35.33333 2.39746,-3.60157 c 2.80983,-4.22104 8.33566,-5.33181 23.15345,-4.65414 14.65663,0.67029 15.99889,-2.47655 5.13139,-12.03013 -7.61751,-6.69652 -15.84136,-9.05475 -31.44209,-9.01618 l -12.66667,0.0313 -8.66667,4.87914 c -30.15085,16.97424 -45.87845,56.33873 -34.90457,87.36237 3.03668,8.58483 8.13969,16.5806 9.89113,15.49814 0.82594,-0.51045 1.03798,-0.25401 0.50416,0.60973 -0.50673,0.81989 0.16113,2.5626 1.48413,3.87268 3.58533,3.55034 14.19058,11.76923 14.65186,11.35495 0.22068,-0.19819 2.34106,0.64277 4.71196,1.86881 5.96861,3.08649 9.48077,3.89147 18.35336,4.20657 l 7.66694,0.27227 z m 94.8346,-14.60319 c 1.03272,-1.67099 1.63555,-67.90483 0.62724,-68.91612 -1.6004,-1.60511 -74.19237,-1.48636 -75.80363,0.124 -0.99734,0.9968 -1.47184,11.54998 -1.46024,32.47666 l 0.0172,31.00005 2.04517,3.12133 2.04518,3.12134 35.92076,0.0926 c 19.75642,0.051 36.23017,-0.408 36.60834,-1.01989 z m -174.35659,-15.9354 c -0.44793,-2.75 -1.19334,-12.65357 -1.65646,-22.00794 l -0.84205,-17.00794 2.99155,-8.85644 2.99156,-8.85644 -2.27594,-1.27367 c -1.25176,-0.70053 -5.0682,-1.52198 -8.48096,-1.82545 -3.41277,-0.30348 -8.00503,-0.84996 -10.20503,-1.21441 -2.2,-0.36445 -8.2,-0.67441 -13.33333,-0.6888 l -9.33333,-0.0262 -2.93794,3.38082 c -8.64961,9.95351 -10.6006,48.01868 -2.88224,56.2345 l 2.72557,2.90123 10.88064,1.47496 c 15.3766,2.08442 17.97869,2.34096 26.02651,2.56595 l 7.14587,0.19978 z m -70.07308,-5.33333 c 0.9983,-32.8459 2.54898,-44.16068 7.30068,-53.27051 1.06992,-2.05122 1.94901,-5.02365 1.95353,-6.60539 l 0.008,-2.87591 -7.66667,-2.25505 c -4.21666,-1.24028 -11.75099,-3.69612 -16.74294,-5.45743 -4.99196,-1.76131 -10.14977,-3.20238 -11.46182,-3.20238 -1.31204,0 -4.35598,-0.98298 -6.7643,-2.18441 l -4.37877,-2.18442 -4.15942,4.51775 c -2.28768,2.48476 -4.80545,6.01775 -5.59506,7.85108 -0.7896,1.83334 -2.74127,6.03334 -4.33703,9.33334 -1.59577,3.3 -2.89973,6.93 -2.89769,8.06666 0.002,1.13667 -0.51173,2.63667 -1.1417,3.33334 -1.34443,1.48677 -4.18793,15.46684 -4.18793,20.58995 0,3.91353 4.2153,8.49396 9.21719,10.01558 1.76946,0.53829 5.06946,1.75262 7.33333,2.69853 2.26388,0.94591 4.47393,1.62446 4.91122,1.50788 0.43729,-0.11657 1.72336,0.55847 2.85794,1.50009 1.13459,0.94162 3.7768,1.97378 5.8716,2.29371 2.09479,0.31992 7.35185,1.7995 11.68235,3.28796 4.3305,1.48846 8.94509,2.70629 10.25465,2.70629 1.30955,0 2.75183,0.6 3.20505,1.33334 1.36022,2.20087 4.66148,1.50405 4.73758,-1 z m -77.86092,-35.68351 c 2.4562,-12.585 9.47165,-32.64982 11.41566,-32.64982 0.57256,0 1.04101,-0.90616 1.04101,-2.01368 0,-1.10752 2.1,-5.00136 4.66667,-8.65299 2.56667,-3.65162 4.66667,-6.87155 4.66667,-7.15538 0,-0.28384 -5.85,-4.00681 -13,-8.27328 -7.15,-4.26647 -13.6,-8.26299 -14.33334,-8.88116 -0.73333,-0.61817 -5.20663,-3.89795 -9.94067,-7.2884 l -8.60735,-6.16446 c 0,0 -32.15712,54.72373 -28.99166,58.5974 3.65626,4.47426 33.64415,24.3316 37.11306,24.57547 0.60131,0.0423 3.19329,1.51564 5.75996,3.27414 6.83414,4.68228 8.41025,3.85365 10.20999,-5.36784 z m -58.68263,-66.34587 c 10.04817,-13.25663 20.61494,-26.55484 20.61494,-26.55484 l -2.1603,-3.29704 c -2.30528,-3.5183 -22.52902,-25.76247 -27.31534,-30.99132 -4.74339,-5.18195 -19.38776,1.23145 -30.53911,13.00553 -9.96769,10.52432 -14.53912,29.11043 -12.67262,34.96797 2.18979,6.87211 3.43466,8.32147 14.31861,19.83939 6.72258,7.11416 20.68978,20.05969 21.64281,20.05969 0.2537,0 10.56554,-19.7132 16.11101,-27.02938 z m 224.54441,22.29082 4.59489,-4.73856 1.13601,-51.77331 1.13601,-51.77331 -2.01091,-4.48813 c -1.106,-2.46847 -2.41194,-6.27081 -2.90208,-8.44965 -1.3238,-5.88466 -12.5802,-16.01071 -20.85218,-18.75822 l -6.92853,-2.30129 -40.08284,0.94667 c -22.04556,0.52067 -40.40069,1.13264 -40.78916,1.35994 -0.80775,0.47262 -18.88798,1.49022 -60.03965,3.37919 -31.40592,1.44161 -73.73686,4.14001 -74.45251,4.74599 -0.50893,0.43093 10.014,18.08462 16.24658,27.25591 4.63911,6.8265 35.64092,38.94273 39.83923,42.86628 27.03641,25.26694 54.52777,40.48 102.3667,56.64727 1.1,0.37175 4.4,1.16295 7.33333,1.75822 2.93334,0.59527 11.03334,2.33137 18,3.85799 14.44504,3.16537 19.13539,3.64612 38.73845,3.97063 l 14.07178,0.23294 z m 337.80737,-76.9281 c 0.78931,-2.84672 6.1028,-44.5103 8.79979,-69 1.4133,-12.83333 3.45293,-30.83333 4.53252,-39.99999 5.07979,-43.13217 7.30731,-62.7441 8.10203,-71.33333 0.47496,-5.13334 1.11263,-10.53334 1.41703,-12 0.66097,-3.18463 6.61536,-56.575334 8.62459,-77.333331 0.7808,-8.066667 1.67944,-16.766666 1.99699,-19.333333 0.31755,-2.5666661 1.1989,-10.96666565 1.95857,-18.6666652 0.75966,-7.6999998 1.97685,-19.3999988 2.70486,-25.9999988 1.72465,-15.635518 5.52263,-53.358465 5.97373,-59.333329 0.19377,-2.566667 1.00626,-10.366663 1.80553,-17.333333 0.79926,-6.96667 2.10152,-20.76667 2.89391,-30.66666 0.79239,-9.9 1.67445,-18.70229 1.96014,-19.56064 0.52643,-1.58166 -4.21009,-2.16541 -30.64883,-3.77729 -6.6,-0.40238 -14.80227,-1.06569 -18.22727,-1.47403 l -6.22727,-0.74244 -1.2784,2.44387 c -0.70312,1.34412 -2.27262,10.84386 -3.48778,21.11053 -1.21515,10.26666 -3.09568,26.16666 -4.17895,35.33333 -1.08327,9.166663 -2.45106,22.366662 -3.03953,29.333328 l -1.06996,12.666666 7.19603,7.333333 c 19.48688,19.8587 20.26452,42.84786 2.31313,68.382193 -2.93334,4.172418 -5.93334,7.609462 -6.66667,7.637876 -0.73333,0.02841 -3.30968,1.691566 -5.72521,3.695892 l -4.39187,3.644231 -1.88897,13.319901 c -1.73472,12.232206 -6.17895,48.902252 -12.68346,104.65323 -3.66124,31.38096 -6.77077,60.70277 -7.42339,69.99999 -0.30885,4.4 -2.47423,23.80153 -4.81195,43.1145 -3.05653,25.25144 -3.86052,35.73773 -2.86237,37.33333 3.10831,4.96879 53.10048,10.99748 54.33303,6.55217 z m -303.97844,-41.11808 4.7198,-2.78475 -3.44284,-6.21525 c -1.89356,-3.41839 -4.28318,-7.1625 -5.31025,-8.32024 -1.02708,-1.15774 -1.86741,-2.43524 -1.86741,-2.83887 0,-0.40364 -1.6253,-4.2564 -3.61178,-8.56168 -1.98647,-4.30529 -3.78777,-9.02779 -4.00289,-10.49446 -0.52627,-3.58822 -3.23651,-8.66667 -4.62517,-8.66667 -1.58928,0 -11.95893,5.06276 -14.83096,7.2409 l -2.40412,1.82328 8.40412,8.56241 c 10.25559,10.44874 19.73746,25.64029 19.73746,31.62273 0,2.10882 1.97503,1.73549 7.23404,-1.3674 z m 32.0993,-16.45152 C -444.4,241.0079 -439.3,238.21523 -436,236.55779 c 6.34784,-3.18824 16.88912,-10.00831 19.64286,-12.70868 0.90357,-0.88606 2.31798,-1.83605 3.14312,-2.1111 0.83158,-0.2772 -2.11311,-5.53024 -6.6067,-11.78572 -4.45883,-6.20709 -9.11137,-14.45468 -10.33896,-18.32797 -1.2276,-3.87329 -2.74387,-7.3587 -3.36949,-7.74535 -0.62562,-0.38666 -1.1375,-2.10341 -1.1375,-3.815 0,-4.9433 -3.34372,-4.93893 -9.82888,0.0128 -3.30613,2.52442 -6.70176,4.58985 -7.54584,4.58985 -0.84409,0 -3.82049,1.95 -6.61422,4.33333 -2.79373,2.38334 -8.39179,6.05839 -12.44013,8.16679 l -7.36062,3.83345 0.22818,3.49988 c 0.1255,1.92493 0.97818,4.29274 1.89485,5.26179 0.91666,0.96904 1.66666,2.62718 1.66666,3.68475 0,1.05757 0.52675,2.96472 1.17056,4.2381 0.6438,1.27338 2.1927,4.41524 3.44198,6.98191 10.77275,22.13264 13.00648,23.91181 22.7208,18.09706 z m -239.32333,-22.07776 c 18.67604,-1.54807 35.17648,-2.63196 51.98999,-3.41513 6.96667,-0.32451 18.27985,-0.98611 25.14041,-1.47022 l 12.47374,-0.8802 2.21969,-2.38256 c 1.49765,-1.60754 2.06339,-4.03427 1.73919,-7.46021 -0.26428,-2.79271 -0.50476,-7.02765 -0.53439,-9.41098 -0.0606,-4.87565 0.3237,-4.78629 -12.37197,-2.87654 -5.13333,0.77218 -12.03333,1.61805 -15.33333,1.8797 -3.3,0.26166 -8.1,0.81133 -10.66667,1.22149 -9.04632,1.44563 -38.15442,4.94313 -51.04255,6.13305 -7.17341,0.6623 -13.47341,1.46518 -14,1.78418 -0.5266,0.319 -4.77925,0.9599 -9.45035,1.42421 -12.74775,1.26715 -16.2646,4.62868 -14.05463,13.43391 l 0.83662,3.33333 8.85545,-0.0211 c 4.8705,-0.0116 15.75996,-0.59343 24.1988,-1.29293 z m 302.81882,-17.56602 c 2.47748,-1.90172 8.92188,-7.83513 14.3209,-13.18535 l 9.81639,-9.72769 -0.82919,-6.04958 c -0.45605,-3.32727 -1.42343,-6.64383 -2.14972,-7.37012 -0.7263,-0.7263 -1.32054,-2.31599 -1.32054,-3.53264 0,-6.08622 -14.69631,-27.92123 -18.79271,-27.92123 -1.53225,0 -21.16639,15.47144 -31.30339,24.66666 l -5.87958,5.33334 4.06578,11.96276 c 9.27699,27.29572 19.46637,35.50002 32.07206,25.82385 z m -361.49549,-16.39599 c 30.07012,-1.61369 234.87316,-26.51289 241.56296,-37.04985 0.58458,-0.92076 1.07206,-1.16709 1.08329,-0.54741 0.0258,1.42684 10.63914,-4.72628 19.35375,-11.22045 52.09255,-40.494749 37.52101,-90.994994 31.9933,-149.906236 -5.34118,-56.868166 -13.50705,-89.924684 -14.87661,-93.333324 -15.92715,-39.64045 -40.22905,-55.91795 -64.45003,-60.73898 -12.12027,-2.41247 -56.52371,-0.36011 -86,1.9113 -80.4279,6.19768 -130.90021,16.13388 -168,20.69487 -29.81785,3.63277 -56.89052,14.56368 -72.23332,29.16506 -16.5032,15.705663 -26.95065,35.006031 -30.43532,58.301077 -1.96709,11.86307 -1.85942,23.861698 -1.70581,35.83348 37.11147,34.970792 42.30313,94.825889 15.44462,127.603123 18.05459,70.73718 65.65061,81.85215 128.26317,79.28734 z M -730,126.60413 c -61.82039,-19.46886 -59.98691,-79.684712 -59.9431,-133.2707826 9.61757,-43.4386384 32.53403,-60.3569044 83.27645,-69.2207004 50.74242,-8.863796 117.30888,-25.925077 175.33334,-19.738864 70.98426,7.567908 77.54642,86.9113972 66.15986,146.959561 -9.54119,30.716431 -34.12137,51.680626 -63.49407,54.153466 -19.13603,1.61104 -177.43234,28.40283 -201.33333,21.11732 z m 51.33333,-43.572486 c 25.28044,-8.835558 30.3887,-24.943106 30,-49.031632 0,-40.0541856 -5.31979,-58.418509 -32,-61.826014 -87.83313,-11.217744 -59.92768,129.320382 2,110.857646 z m -8.04824,-32.059179 c -2.60072,-5.399744 -5.96478,-25.243226 0.0692,-35.006458 7.11523,-11.5126786 25.89337,-12.3849422 33.60085,-1.560793 4.50973,4.754325 2.98926,10.727427 2.98961,16.896157 10e-4,26.156503 -8.29983,29.591857 -18.24864,30.327387 -8.47492,1.474928 -14.56652,-2.897924 -18.41104,-10.656293 z m 177.5888,3.0397 c 6.22448,-3.891918 7.8275,-9.184116 10.56141,-15.674764 4.97369,-9.277102 8.35379,-32.2744423 1.46151,-53.004053 -9.29612,-27.959586 -33.6212,-40.790149 -55.91498,-29.493039 -22.57838,11.441341 -25.62352,35.9245438 -25.63545,48.2129061 -0.0273,28.0156079 8.66863,46.8001839 25.65917,55.4281019 13.67447,6.943993 40.45437,-2.533595 43.86834,-5.469152 z m -15.20286,-11.929722 c -17.20201,-3.424691 -22.8706,-40.2405814 -7.94835,-51.6223344 5.86119,-5.6453256 19.26109,-4.5564916 25.77586,0.4263692 9.28794,7.1039377 8.10625,35.0279622 3.50148,41.7937662 -5.72983,8.418862 -12.11972,11.235645 -21.32897,9.402206 z M -334.66667,156 c 0,-1.1 0.9,-2 2,-2 1.1,0 2,-0.9 2,-2 0,-1.1 1.13142,-2 2.51426,-2 1.38284,0 4.23284,-0.8963 6.33333,-1.99178 4.43481,-2.31291 7.15241,-2.56934 7.15241,-0.67488 0,0.73333 0.71133,1.33333 1.58074,1.33333 0.8694,0 2.91984,1.25804 4.55654,2.79563 l 2.97582,2.79564 6.40626,-5.79564 c 3.52345,-3.18759 7.5225,-6.78634 8.88679,-7.99721 2.54476,-2.2586 2.73577,-8.46502 0.26052,-8.46516 -6.25018,-3.7e-4 -22.60052,-19.43591 -31.05758,-36.917933 l -4.39091,-9.076684 -3.94242,2.914759 c -2.16833,1.603117 -3.94242,3.37335 -3.94242,3.933849 0,0.5605 -6.64406,6.868755 -14.76458,14.018349 l -14.76457,12.99925 0.80621,4.29744 c 2.58754,13.79279 27.3896,42.6167 27.3896,31.83104 z m 72.34931,-43.31961 c 3.84121,-3.65913 7.40654,-6.65913 7.92295,-6.66667 C -252.96473,105.99284 -244,93.85103 -244,91.93555 c 0,-0.924542 -3.1746,-3.472618 -7.05466,-5.662391 -12.48789,-7.047725 -25.08594,-23.213337 -31.22645,-40.069258 l -1.14004,-3.129443 -6.62276,6.541122 c -13.14092,12.978932 -19.28942,19.846065 -19.28942,21.543936 0,7.658339 13.48323,31.773004 21.56976,38.577374 13.74781,11.56802 16.10612,11.84082 25.44621,2.9435 z M -894.14825,94.814545 c 27.41816,-11.456024 20.77836,-95.48119792 -15.18226,-95.48119792 -15.70275,0 -23.86882,13.10011192 -28.07902,25.47405792 -11.97737,35.202066 15.92268,81.429925 43.26123,70.00714 z m 666.7514,-22.045094 c 0.41829,-0.676808 1.06625,-4.126808 1.4399,-7.666667 0.37366,-3.539859 1.24071,-9.136107 1.92677,-12.436107 2.53094,-12.173912 2.64709,-17.750607 0.53817,-25.838237 l -2.12826,-8.161761 1.40861,-3.574109 c 0.89434,-2.269244 3.50234,-4.507708 7.14347,-6.1312925 19.43971,-8.66819833 29.5444,-25.8566405 23.2645,-39.5737515 l -3.42844,-7.488709 -7.54221,-3.452936 -7.5422,-3.452935 -7.19824,0.742923 c -44.13708,4.555348 -63.73433,57.015152 -36.41873,97.489178 7.75185,11.486065 25.85445,23.88431 28.53666,19.544404 z M -697.28215,-252.5564 c 9.02235,-3.16734 16.42865,-9.23036 20.19897,-16.53547 1.30356,-1.81771 8.08492,-19.37122 -1.05193,-35.57476 -5.25923,-9.58937 -13.26577,-15.10814 -24.0324,-15.76947 -55.13868,-3.51097 -38.11428,82.97485 4.88536,67.8797 z m 277.12956,952.55637 c -0.0516,-8.06666 -0.0842,-16.76666 -0.0725,-19.33333 0.0117,-2.56667 0.0127,-7.66667 0.002,-11.33333 -0.0596,-20.69693 0.0151,-47.31066 0.17182,-61.23575 l 0.17894,-15.90242 2.23917,-3.79061 c 1.23154,-2.08483 3.0028,-3.49758 3.93612,-3.13943 0.93332,0.35815 1.69695,0.15499 1.69695,-0.45146 0,-1.02923 26.02257,-1.63944 76.75856,-1.79992 l 21.42522,-0.0678 2.90811,2.49 c 1.59946,1.3695 2.90811,3.55666 2.90811,4.86035 0,1.30369 0.45,2.37032 1,2.3703 0.55,-3e-5 0.89089,22.04997 0.75753,48.99999 -0.27431,55.4357 0.75454,60.93242 9.72585,51.96111 0.44092,-0.44091 3.73753,-0.45395 7.32581,-0.029 l 6.52414,0.77268 0.10188,-3.85238 c 0.056,-2.11882 0.17535,-34.75239 0.26514,-72.51905 0.11012,-46.31632 0.61944,-68.98551 1.56479,-69.64625 0.94043,-0.6573 0.88645,-0.9863 -0.16406,-1 -1.11598,-0.0145 -1.49888,-4.19555 -1.33333,-14.55915 0.13207,-8.26774 0.75244,-14.2175 1.43826,-13.79399 0.67412,0.41629 0.73633,-0.0152 0.14105,-0.9784 -1.63018,-2.63768 -2.25367,-33.35554 -0.67703,-33.35554 0.73149,0 1.32997,-0.63541 1.32997,-1.41202 0,-0.77661 -0.59092,-1.04681 -1.31316,-0.60045 -0.83729,0.51747 -1.19967,-4.23867 -1,-13.12441 0.17224,-7.6648 0.76135,-13.66031 1.30913,-13.32336 0.54778,0.33695 0.43136,-0.87239 -0.25871,-2.68743 -1.43326,-3.76975 -1.32983,-8.85233 0.18014,-8.85233 0.55913,0 0.39645,-1.63111 -0.36151,-3.62469 -3.91917,-10.30821 7.04922,-25.81827 14.84912,-20.99767 0.54373,0.33604 12.90004,0.57093 27.45846,0.52198 33.83103,-0.11376 31.10942,-0.17069 36.13653,0.75587 2.39402,0.44124 4.33333,1.61699 4.33333,2.62715 0,1.00566 0.6303,2.03857 1.40066,2.29536 1.6673,0.55577 3.12235,7.90215 2.85647,14.422 -0.10467,2.56667 -0.14725,7.66667 -0.0946,11.33334 0.0526,3.66666 0.16267,14.16666 0.24454,23.33333 0.17304,19.37475 -0.64624,18.12292 11.48982,17.55591 l 9.50508,-0.44409 -0.16015,-4.22258 c -0.0881,-2.32242 -0.11508,-14.12257 -0.06,-26.22257 0.0551,-12.1 0.0524,-40.1112 -0.006,-62.24711 -0.11627,-44.07383 0.40361,-48.03047 6.67584,-50.80682 3.12011,-1.3811 45.76106,-2.68274 56.99644,-1.73985 4.01587,0.33701 7.72433,22.24797 5.77605,34.12711 -0.12027,0.73334 -0.10534,7.03334 0.0332,14 0.13852,6.96667 0.34729,31.86667 0.46394,55.33333 0.14692,29.5577 0.65191,42.58833 1.64363,42.41171 0.78734,-0.14023 5.163363,-0.38963 9.724488,-0.55422 10.472476,-0.37791 9.639051,2.37982 9.515649,-31.48649 -1.543916,-423.709419 -4.873286,-370.870613 23.32832,-370.232358 8.066666,0.182564 21.866666,0.405334 30.666666,0.495043 C -2.7389744,91.56465 -4.9314122,82.064182 -5.4280473,192 c -0.177124,39.2084 -0.1049496,92.1072 0.1400769,102.66666 0.068066,2.93334 0.2767715,48.3744 0.463789,100.98014 0.1870176,52.60575 0.5989656,95.90229 0.91544,96.21453 0.5164036,0.50951 19.9606714,1.30307 23.2420744,0.94856 0.866757,-0.0936 1.257493,-17.5239 1.116605,-49.8103 C 20.142627,372.57517 20.154574,377.56315 20.073913,286 c -0.04038,-45.83333 -0.223523,-90.68356 -0.406995,-99.66718 -0.183472,-8.98362 0.151826,-16.33362 0.745105,-16.33333 0.593279,2.8e-4 0.681279,-0.64251 0.195555,-1.42843 -3.236709,-5.2371 -0.420457,-71.751681 3.160776,-74.651588 l 2.744072,-2.222014 18.410453,-0.336448 c 10.12575,-0.185046 23.985413,-0.323832 30.79925,-0.308414 l 12.388796,0.02804 3.611204,3.611337 3.611204,3.611338 V 218.81825 c 0,66.28322 -0.48541,120.51498 -1.078689,120.51501 -0.593279,4e-5 -0.616448,0.74799 -0.05149,1.66212 0.564961,0.91412 1.086564,35.54837 1.159116,76.96498 l 0.131914,75.30294 11.252906,-0.42074 c 6.1891,-0.2314 11.42826,-0.591 11.64257,-0.79909 0.21431,-0.2081 0.51431,-88.80301 0.66667,-196.87758 l 0.277,-196.499216 3.2733,-3.704444 c 1.80031,-2.037445 4.05031,-3.406276 5,-3.041847 0.94969,0.36443 1.72749,0.23143 1.72846,-0.295554 0.002,-1.221815 54.41,-1.097458 58.0657,0.132718 3.52078,1.184772 6.11011,8.417033 5.91663,16.525723 -0.24874,10.42424 -0.28076,124.43285 -0.0371,132.21688 0.12337,3.94175 0.34609,62.14175 0.49494,129.33333 l 0.27063,122.1665 10.97708,0.38726 10.97708,0.38726 0.12334,-4.38726 c 0.0678,-2.41299 0.13755,-91.28483 0.1549,-197.49297 l 0.0316,-193.105722 2.84519,-3.307728 2.84519,-3.307728 29.11306,0.1044 29.11307,0.104399 3.72162,1.924525 c 5.1744,2.675784 4.89004,-7.017951 4.5183,154.026914 -0.18535,80.3 -0.3239,146.59999 -0.30789,147.33333 0.016,0.73333 0.26969,22.86607 0.56371,49.18387 0.29403,26.3178 0.87996,48.19591 1.30207,48.61801 0.76934,0.76935 19.49392,0.45785 20.28929,-0.33753 0.23274,-0.23274 0.39309,-31.55743 0.35633,-69.61042 -0.0367,-38.053 -0.0662,-82.38726 -0.0654,-98.5206 0.004,-75.56548 -0.0952,-179.40635 -0.18918,-198.67291 -0.10808,-22.17065 0.69907,-29.298427 3.65218,-32.25154 l 1.7422,-1.742198 h 31.91543 31.91543 l 3.37889,2.657837 3.37889,2.657838 0.20602,19.008823 c 0.11331,10.45486 0.16233,41.50883 0.10893,69.00883 -0.0534,27.5 -0.0268,60.8 0.0592,73.99999 0.0859,13.2 0.0966,40.47508 0.0237,60.61128 -0.0729,20.1362 0.19274,37.63624 0.59034,38.88898 l 0.72292,2.27771 70.27872,0.13459 c 60.45277,0.11577 81.58737,0.0479 89.22007,-0.28655 0.8844,-0.0387 1.1844,-0.72046 0.66666,-1.5149 -1.34364,-2.06174 -1.39821,-355.416708 -0.055,-356.2468501 0.61252,-0.3785567 1.11367,-1.88828488 1.11367,-3.35495146 0,-1.46666654 0.54876,-2.32751794 1.21946,-1.91300314 0.6707,0.4145149 1.46749,0.00953 1.77066,-0.8999629 0.40951,-1.2285406 7.55086,-1.7425685 27.78055,-1.99962 14.97613,-0.1902965 27.52933,-0.403696 27.896,-0.4742212 3.61092,-0.694528 23.54722,0.488287 25.45697,1.5103544 5.41264,2.8967585 5.41449,2.9396863 5.21654,121.0314644 -0.10532,62.82963 -0.0927,115.73569 0.0281,117.56902 1.00015,15.18306 0.39154,114.66947 -0.7016,114.6866 -0.73333,0.0115 -0.46915,0.56768 0.58707,1.23598 l 1.9204,1.21509 -1.40096,4.56472 -1.40095,4.56473 8.14722,0.12178 c 26.12404,0.3905 50.66977,0.19966 51.26804,-0.39861 0.37984,-0.37985 0.841,-80.33305 1.02479,-177.67379 0.36588,-193.788597 0.13237,-179.8820301 3.03925,-180.9975026 l 2.07374,-0.7957703 -1.96263,-1.24118961 -1.96264,-1.24118959 2.26708,-0.020417 c 1.2469,-0.011229 2.87865,-1.070417 3.62612,-2.3537503 0.74748,-1.2833332 1.37729,-1.8098664 1.39959,-1.1700736 0.0223,0.6397927 0.89211,0.456522 1.93292,-0.4072683 l 1.89237,-1.5705279 1.40042,2.4072682 1.40041,2.4072682 0.0405,-2.0354378 0.0405,-2.0354378 7,0.2802467 c 3.85,0.1541357 15.4,0.3313074 25.66667,0.3937148 10.26667,0.062407 19.86667,0.1274262 21.33333,0.144486 1.46667,0.01706 5.03618,-0.017452 7.93226,-0.076694 7.58044,-0.1550634 12.56529,2.3433329 14.65518,7.3451435 l 1.80057,4.3093831 -0.54868,41.8372953 c -0.30177,23.010512 -0.5366,42.437295 -0.52184,43.170628 C 790.66558,91.400008 790.82518,152.3 791.00549,226 l 0.32784,133.99999 10.90426,0.0154 c 5.99735,0.008 11.26378,0.37489 11.70318,0.8143 0.43941,0.4394 3.14001,0.37082 6.00133,-0.15241 2.86133,-0.52323 5.96625,-0.47926 6.89983,0.0977 0.93358,0.57698 2.32606,0.65896 3.09441,0.18218 0.76835,-0.47678 4.01324,-0.88719 7.21087,-0.91202 l 5.81388,-0.0451 -0.21528,-17.87085 c -0.1184,-9.82897 -0.25569,-18.22897 -0.3051,-18.66667 -0.0494,-0.43769 -0.005,-1.09581 0.0994,-1.46248 0.10407,-0.36666 0.18074,-16.56666 0.17038,-35.99999 -0.0268,-50.27831 -0.0198,-54.16096 0.31794,-176.12845 l 0.30493,-110.12844839 1.88231,-2.26798961 1.8823,-2.2679897 1.09728,1.7297791 c 0.80662,1.2715743 1.10269,1.0857475 1.1177,-0.7015191 l 0.0204,-2.4312981 11.33645,0.4312983 c 6.23504,0.237214 11.33504,-0.00385 11.33333,-0.5357006 -0.002,-0.5318494 1.4352,-0.4201558 3.19313,0.248208 1.75793,0.6683638 3.52312,0.8883223 3.92264,0.4887968 0.69123,-0.6912271 37.23489,-0.7697479 42.91629,-0.092213 1.48602,0.1772141 4.1589,1.6812923 5.93976,3.342396 l 3.23791,3.02018841 0.0602,140.10715189 c 0.0331,77.05893 -0.26364,140.63118 -0.65949,141.27167 -0.39585,0.6405 -0.37307,4.7904 0.0506,9.22202 0.44291,4.63259 0.21043,8.61742 -0.54694,9.37479 -0.79643,0.79643 -0.81645,1.31719 -0.0506,1.31702 0.76205,-1.7e-4 1.26666,11.81834 1.26666,29.66667 v 29.66695 l 3.33334,-0.25569 c 11.04538,-0.84723 38.33213,-0.77511 39.75629,0.10507 0.93162,0.57577 2.41757,0.4574 3.30211,-0.26305 2.92475,-2.38218 13.31546,2.5345 15.79277,7.47282 l 2.1845,4.35465 0.14541,48.95976 c 0.08,26.92787 0.10918,88.25976 0.0649,136.29309 1.07119,52.37649 0.071,157.0568 0.071,157.0568 l -1416.0424,-0.39074 z m 93.06674,-9.00938 1.88158,-1.88158 -0.0903,-41.80247 c -0.0496,-22.99136 -0.25329,-41.9655 -0.45254,-42.16475 -0.36128,-0.36128 -39.8507,-0.70811 -63.25292,-0.55555 l -12.33333,0.0804 0.0204,42.33334 c 0.0254,52.61387 -5.92842,46.53611 45.16253,46.10276 l 27.18295,-0.23057 z m 113.18717,0.0192 c 1.33797,-1.33797 0.70939,-246.73239 -0.63544,-248.07723 -1.65717,-1.65717 -46.36714,-2.71034 -47.35285,-1.11543 -0.67986,1.10004 -0.99086,78.511 -0.81034,201.70165 l 0.0677,46.18544 1.73291,1.43819 c 3.14943,2.61379 44.36794,2.49748 46.99804,-0.13262 z m 128.211021,1.80997 1.645675,-0.15309 -0.312341,-89.66666 -0.312342,-89.66666 -7.860996,-0.40567 c -11.307697,-0.58354 -10.510637,-7.50492 -10.400627,90.31513 0.11551,102.71722 -2.06786,91.37311 17.240631,89.57695 z m 104.348706,-3.47164 c 1.238621,-3.25782 0.554274,-173.38168 -0.705653,-175.42028 -0.428692,-0.69364 -5.207265,-1.26116 -10.6190528,-1.26116 h -9.8396135 l -0.7599009,5.66667 c -0.4179455,3.11666 -0.6047093,43.46666 -0.4150306,89.66666 L -3.3333333,691.99997 4,692.66664 c 10.034318,0.91221 13.336714,0.16471 14.661047,-3.31855 z m 98.662843,-1.2913 c 0.98749,-5.69761 0.39048,-172.36159 -0.62329,-174.00191 -1.30297,-2.10825 -17.406473,-1.75084 -19.213448,0.42643 -1.668213,2.01007 -2.027781,173.81986 -0.369391,176.50319 1.096246,1.77377 8.505799,2.60129 14.872799,1.66106 l 4.65722,-0.68775 z m 578.92708,0.83772 c 0.28826,-1.96406 0.49972,-71.9688 0.4699,-155.5661 l -0.0542,-151.99509 -26.81432,-0.36034 -26.81432,-0.36035 -1.52236,1.83432 c -1.77266,2.13593 -2.27132,307.33071 -0.50503,309.097 1.16928,1.16928 28.98935,2.0163 44.51945,1.35546 l 10.19676,-0.4339 z m -870.84094,-57.89453 c 0.0422,-33.91667 0.10498,-73.87386 0.13956,-88.79377 0.0712,-30.69864 0.37751,-29.83243 -10.35526,-29.27856 l -7.861,0.40567 -0.34538,87.99999 c -0.39844,101.5199 -1.47325,91.33333 9.63687,91.33333 h 8.70851 z m 50.32076,60.52792 1.73079,-1.0979 0.46019,-159.81025 c 0.53764,-186.70457 3.03278,-163.28642 -17.39776,-163.28642 H -156 l -0.10054,19.66666 c -0.55742,109.04398 0.35484,299.49524 1.44836,302.37142 l 1.25284,3.29523 13.69967,-0.0204 c 7.53482,-0.0112 14.47853,-0.51447 15.43046,-1.11832 z m 100.140026,-0.7056 c 1.339893,-1.61448 1.771346,-261.27033 0.892653,-537.21344 l -0.126496,-39.72447 -1.985153,-1.25511 c -3.122925,-1.97446 -38.276646,-1.64834 -39.521975,0.36664 -1.175897,1.90265 -0.717747,569.25586 0.46379,574.33739 0.426279,1.83333 1.027509,3.78333 1.336065,4.33333 0.308557,0.55 8.852135,1 18.98573,1 h 18.424717 z M 76.56848,691.4922 c 0.610032,-0.98705 0.919855,-200.3747 0.793296,-510.52781 L 77.333333,111.26205 57.666667,111.63103 38,112.00001 38.166959,400.2715 c 0.09183,158.54933 0.522997,289.19932 0.958154,290.33332 l 0.791194,2.06182 h 17.963157 c 9.879737,0 18.289794,-0.52851 18.689016,-1.17447 z m 97.68941,0.12199 1.59122,-1.01165 0.33378,-288.01058 c 0.18357,-158.40583 -0.11789,-288.74139 -0.66992,-289.63459 -0.71391,-1.15514 -6.56266,-1.624 -20.25833,-1.624 H 136 l -0.003,7.66667 c -0.002,4.21666 -0.0199,47.86666 -0.0404,96.99999 -0.14987,360.03413 0.22908,473.2836 1.58918,474.92241 1.60583,1.93491 33.80268,2.54158 36.71228,0.69175 z m 41.07544,-88.94752 v -89.33332 h -10 -10 l -0.28978,18 c -0.64101,39.81692 -0.35028,158.96434 0.39081,160.16346 0.43582,0.70516 5.09137,1.10685 10.34568,0.89265 L 215.33333,692 Z m 54.02379,87.97134 c 1.08338,-1.3054 1.56045,-80.13343 1.75394,-289.80819 l 0.26577,-288.01506 -2.23388,-0.58418 c -4.14468,-1.08385 -31.12822,-0.93349 -32.83357,0.18297 l -1.69063,1.10681 0.0909,188.57316 c 0.05,103.71524 0.0489,232.45279 -0.002,286.08345 -0.0595,62.09499 0.39143,98.78559 1.24157,101.02162 l 1.33501,3.51134 15.29258,-0.13939 c 11.04288,-0.10066 15.70614,-0.6377 16.78076,-1.93253 z m 39.39918,0.55029 c 1.21856,-1.97166 1.17534,-175.14151 -0.0442,-177.11476 -0.97929,-1.58452 -15.21834,-1.89771 -17.56931,-0.38644 -1.20083,0.77192 -1.83189,177.52149 -0.63708,178.43611 1.44896,1.10917 17.49529,0.28718 18.25058,-0.93491 z m 58.68483,-0.0294 c 0.51252,-0.82926 1.16532,-130.99884 1.45067,-289.26572 l 0.51881,-287.75797 -2.37197,-1.26112 c -1.30459,-0.69361 -9.92717,-1.34974 -19.16129,-1.45806 l -16.78932,-0.19695 -1.55443,1.87297 -1.55443,1.87298 0.0147,287.05273 c 0.0108,209.77227 0.41648,287.53681 1.50701,288.85081 1.94542,2.3441 36.50747,2.60858 37.94022,0.29033 z M 546.04953,538 c 0.0304,-94.6184 -0.4361,-154.6643 -1.20988,-155.72282 l -1.2594,-1.72284 -36.12346,0.11387 c -19.8679,0.0626 -54.38254,0.077 -76.69919,0.0319 -22.31665,-0.0451 -41.03024,0.37895 -41.58576,0.9423 -1.72964,1.75404 -2.69819,307.18511 -0.98067,309.25459 l 1.48626,1.79083 78.16128,-0.34392 L 546,691.99997 Z m 73.28562,153.33038 c 1.49556,-2.41987 1.0078,-673.520734 -0.49061,-675.019144 -0.78828,-0.788276 -11.74982,-1.641275 -25.80535,-2.008105 l -24.43496,-0.63772 -1.76113,2.12203 -1.76113,2.122031 0.19867,116.378608 c 0.10926,64.00823 0.22859,215.3786 0.26518,336.37859 0.0495,163.75944 0.45691,220.25041 1.59368,220.97957 2.38398,1.52917 51.23807,1.23354 52.19565,-0.31586 z m 151.9538,-1.19054 c 0.44109,-1.38975 0.85109,-153.24017 0.91111,-337.44538 l 0.10914,-334.918561 -1.55284,-1.5546 c -1.85383,-1.855923 -50.4008,-2.778743 -53.23683,-1.011969 l -1.81381,1.129955 0.19235,336.414875 c 0.13738,240.29798 0.60701,336.91452 1.64373,338.16368 l 1.45139,1.74882 h 25.74689 25.74689 z m 69.72169,0.86015 c 0.87884,-1.0954 1.27756,-54.1253 1.16326,-154.71533 L 842,383.23597 l -2,-1.26424 c -2.52551,-1.59643 -46.25498,-1.71656 -47.23567,-0.12976 -2.03784,3.29729 -0.71784,306.33049 1.34892,309.67458 1.18776,1.92184 45.33117,1.43559 46.89739,-0.51658 z m 70.56393,0 c 1.44533,-2.26125 1.77729,-672.145661 0.33424,-674.481902 L 910.76525,14.6667 h -23.00774 -23.00774 l -1.69547,3.333333 -1.69548,3.333333 0.0204,333.903304 c 0.0147,240.40589 0.43018,334.39706 1.48384,335.66665 l 1.46345,1.76334 h 23.09138 c 17.01607,0 23.37166,-0.4385 24.15667,-1.66667 z m 65.7944,0.70815 c 0.63767,-18.63495 0.12363,-308.37175 -0.54904,-309.46014 -1.12686,-1.8233 -40.35504,-2.25893 -43.15802,-0.47927 l -1.67143,1.06121 0.0664,135.91836 c 0.0365,74.7551 0.0126,143.88352 -0.0531,153.61872 -0.0657,9.7352 0.21169,18.2362 0.61644,18.89111 0.90432,1.46321 44.69904,1.90364 44.74878,0.45001 z"
     id="path5" /></svg>
