<?xml version="1.0" encoding="UTF-8" standalone="no"?>
<!-- Created with Inkscape (http://www.inkscape.org/) -->

<svg
   version="1.1"
   id="svg1"
   width="638.87262"
   height="388.89035"
   viewBox="0 0 638.87262 388.89035"
   xmlns="http://www.w3.org/2000/svg"
   xmlns:svg="http://www.w3.org/2000/svg">
  <defs
     id="defs1" />
  <path
     style="fill:#000000"
     d="m 357,387.72687 c -3.12507,-1.24247 -7.76337,-5.58517 -9.48757,-8.88293 -1.23418,-2.36053 -11.28336,-34.46986 -71.66343,-228.98047 -13.74116,-44.26627 -25.13409,-80.634289 -25.31762,-80.817819 -0.42364,-0.42364 -1.07597,1.292 -32.61622,85.781259 -25.50809,68.33043 -26.44122,70.60657 -30.6051,74.6534 -7.91349,7.69103 -3.79724,7.36729 -93.67247,7.36729 -79.18438,0 -80.05061,-0.0215 -84.336,-2.09605 C 3.36371,231.87707 0,226.05707 0,218.65763 0,212.30383 2.44943,207.80914 7.92168,204.1214 l 3.37409,-2.2738 h 74.16098 c 57.76437,0 74.53316,-0.27637 75.84428,-1.25 1.29679,-0.96299 50.94517,-131.612969 69.23848,-182.201439 1.58143,-4.37329 4.24063,-9.5064299 5.90933,-11.4069799 7.70283,-8.77303 20.44222,-9.36327 28.89044,-1.33853 4.19543,3.98513 4.69417,5.2438499 14.14604,35.7015799 27.33276,88.077229 86.80564,278.131659 87.27661,278.905419 0.30466,0.50053 4.99345,-10.29947 10.41953,-24 12.6698,-31.99054 51.77111,-131.16672 59.79878,-151.67307 6.67689,-17.05582 9.25581,-21.03079 15.47839,-23.85732 5.68558,-2.5826 11.1947,-2.35505 17.35953,0.71701 6.61231,3.29506 6.91445,3.81681 24.17571,41.74775 7.60448,16.71056 14.77593,32.2442 15.93656,34.5192 l 2.11022,4.13638 h 57.52933 c 63.70719,0 60.82017,-0.28825 66.07159,6.59672 2.07338,2.71834 2.84873,5.0335 3.16912,9.46282 0.56036,7.74692 -2.69639,13.73853 -9.17135,16.87301 -4.35382,2.10765 -4.8998,2.12241 -68.26413,1.84604 -63.77483,-0.27815 -63.88172,-0.28207 -68.01776,-2.4941 -6.79268,-3.63284 -10.35019,-9.04103 -20.83855,-31.67909 -5.4896,-11.84876 -10.28363,-21.2197 -10.65339,-20.8243 -0.36976,0.39539 -11.03839,26.5939 -23.70805,58.2189 -57.87573,144.46473 -55.69409,139.1412 -58.46538,142.66433 -4.29909,5.46541 -15.55556,8.05229 -22.69208,5.21494 z"
     id="path1" />
</svg>
