<?xml version="1.0" encoding="UTF-8" standalone="no"?>
<!-- Created with Inkscape (http://www.inkscape.org/) -->

<svg
   version="1.1"
   id="svg1"
   width="911.82745"
   height="817.78851"
   viewBox="0 0 911.82745 817.78851"
   xmlns="http://www.w3.org/2000/svg"
   xmlns:svg="http://www.w3.org/2000/svg">
  <defs
     id="defs1" />
  <path
     style="fill:#000000"
     d="m 663.84391,815.43423 c -13.68335,-2.37606 -20.6039,-4.50006 -22.04355,-6.76543 -1.42761,-2.24641 -0.81404,-6.95245 1.38113,-10.59318 10.76978,-17.86189 26.70151,-41.68417 30.35708,-45.39211 4.47244,-4.53652 4.60765,-4.59094 21.73094,-8.74635 9.47677,-2.29979 25.33049,-5.85597 35.23049,-7.90262 l 18,-3.72119 3.83597,-5.42788 c 12.63434,-17.87752 15.13382,-31.89953 9.7049,-54.44408 -2.38338,-9.8974 -15.48685,-54.70247 -29.53323,-100.9838 -5.84237,-19.25 -14.23378,-47.375 -18.64759,-62.5 -4.4138,-15.125 -10.88678,-36.5 -14.3844,-47.5 -10.24337,-32.2154 -25.99986,-84.01894 -29.50339,-97 -2.16847,-8.03448 -3.44256,-15.44969 -3.8555,-22.43906 L 665.5,331.57947 654,344.5164 c -6.325,7.11531 -14.38401,16.08788 -17.90891,19.93906 -3.5249,3.85117 -12.35978,14.65213 -19.63307,24.00213 -7.27329,9.35 -18.96508,23.75 -25.98176,32 -18.53474,21.79259 -43.69718,51.93115 -70.96585,85 -32.04957,38.86669 -39.50588,47.46134 -55.98349,64.53038 -10.46928,10.84504 -15.26944,16.67853 -18.92588,23 -2.69442,4.65829 -6.40368,10.92536 -8.2428,13.92682 -1.83911,3.00146 -3.00958,5.77766 -2.60104,6.16933 2.88909,2.76978 25.52297,10.41951 39.70914,13.42077 6.44533,1.36359 8.59329,2.31233 11.25,4.96904 2.76993,2.76993 3.28366,4.01111 3.28366,7.93332 0,2.55731 -0.65884,5.92371 -1.46408,7.48088 -2.03864,3.9423 -7.21727,8.06946 -10.1253,8.06946 -1.33977,0 -5.6837,0.9 -9.65318,2 -16.32249,4.52319 -35.11582,0.56392 -47.92633,-10.09686 l -4.66889,-3.88541 -3.61683,6.46749 c -4.39047,7.8509 -7.42722,10.25973 -18.90588,14.99665 -35.35204,14.58878 -59.73685,9.98288 -79.62092,-15.03914 -3.27072,-4.11585 -7.53775,-10.83606 -9.4823,-14.9338 -3.85765,-8.12923 -8.18744,-23.60249 -9.20521,-32.89646 l -0.64474,-5.88753 -7.09317,-3.27431 c -3.90124,-1.80088 -9.47004,-4.17622 -12.37511,-5.27854 l -5.28195,-2.00422 -1.35666,2.16607 c -6.28238,10.03053 -33.70627,55.04293 -35.50062,58.26921 -1.25512,2.25673 -2.12382,4.88167 -1.93044,5.83319 0.75123,3.69633 28.73339,11.36031 76.85161,21.04874 48.8199,9.82971 48.75336,9.81401 50.95839,12.02419 2.10104,2.10594 11.04161,28.85905 11.04161,33.0401 0,1.39752 -0.9423,3.01145 -2.25,3.85374 -3.37252,2.17224 -16.67201,4.59689 -25.21442,4.59689 -9.64623,0 -27.72223,-2.69441 -28.73147,-4.28271 -0.42541,-0.66951 -0.78038,-2.69391 -0.7888,-4.49867 -0.008,-1.80477 -0.57781,-3.47631 -1.26531,-3.71455 -2.24777,-0.7789 -59.8765,-8.44685 -75.42586,-10.03599 -14.38711,-1.47036 -16.20617,-1.44611 -35,0.46662 -10.90327,1.10967 -37.59914,3.81781 -59.32414,6.01808 -21.725,2.20027 -45.575,4.68168 -53,5.51423 -7.425,0.83256 -14.2602,1.51807 -15.18933,1.52336 -1.34106,0.008 -1.65029,0.85666 -1.5,4.11826 0.27187,5.89988 -2.31751,7.50438 -15.31067,9.4872 -12.518662,1.9104 -26.916935,1.37141 -40.83208,-1.52854 C 1.522843,726.38961 0,725.29109 0,718.80471 c 0,-4.5551 0.8497,-6.57816 7.865453,-18.72695 9.51949,-16.48437 32.314185,-59.77514 70.620797,-134.12017 9.21017,-17.875 18.21637,-35.2 20.01378,-38.5 1.7974,-3.3 4.42661,-8.25 5.84268,-11 l 2.57467,-5 -2.94887,-8.29473 c -10.75978,-30.26563 -8.8238,-65.68335 5.10375,-93.37059 14.61487,-29.0536 38.24865,-48.72461 65.19394,-54.26262 24.1497,-4.96343 44.71788,-2.21526 62.64363,8.36999 3.42755,2.02399 6.17572,2.99229 7.5,2.6426 1.14959,-0.30356 7.38394,-5.62179 13.85411,-11.81829 l 11.76394,-11.26636 -0.0152,-5.5 c -0.0179,-6.44801 -2.76576,-18.13772 -10.57817,-45 -5.09967,-17.53476 -5.69406,-20.55821 -5.89788,-30 -0.19504,-9.03577 -1.47546,-13.45521 -5.85199,-32.5 -8.91898,-38.81158 -7.15121,-43.13304 -15.99064,-72.47289 -1.0837,-3.1532 -1.88381,-3.70548 -8.69244,-6 -8.98438,-3.02774 -11.02471,-5.6703 -8.67172,-11.23127 0.76701,-1.81272 2.40275,-4.1948 3.63496,-5.2935 1.23222,-1.0987 2.86932,-3.21384 3.63801,-4.70032 2.45014,-4.73806 -0.40778,-4.95507 -11.93693,-0.90641 -9.55404,3.35506 -10.91831,3.57081 -22.68313,3.58707 -12.10543,0.0167 -12.7342,-0.0892 -19.09204,-3.2176 -12.57791,-6.18894 -22.5483,-19.4022 -23.62838,-31.313533 -1.33144,-14.6834 8.67944,-24.13353 28.61234,-27.00966 9.78229,-1.41149 16.80599,-1.0247 46.62577,2.56766 17.2189,2.07435 28.1937,2.75506 50.5,3.13227 30.45695,0.51504 37.11132,1.35393 45.84455,5.77939 6.40334,3.24481 13.88887,10.95695 15.34172,15.80616 1.9479,6.501503 0.0526,7.522783 -19.3117,10.405873 -9.00601,1.34088 -17.85352,2.67042 -19.66113,2.95452 -2.23897,0.35191 -5.42646,2.51838 -10,6.79679 -3.69239,3.45413 -9.30094,7.81079 -12.46344,9.68146 -3.1625,1.87068 -5.75,3.68541 -5.75,4.03274 0,0.34733 0.83594,1.7047 1.85764,3.01637 1.02171,1.31167 2.463,4.07481 3.20286,6.14031 1.34289,3.74896 1.33775,3.76306 -2.97869,8.16119 l -4.3239,4.40574 1.22972,5.12606 c 5.84286,24.35583 17.34306,62.26899 26.06566,89.15113 0.3365,1.03707 3.30044,2.90008 6.19105,4.30844 l 5.25566,2.56065 31,-5.96441 c 29.64775,-5.70423 163.36637,-32.92097 199,-40.50394 9.35,-1.98971 32.075,-6.72507 50.5,-10.52302 18.425,-3.79794 38.62599,-8.38684 44.89109,-10.19754 l 11.3911,-3.2922 0.15422,-5.99377 c 0.0988,-3.842 0.83103,-7.13926 2.03949,-9.1845 l 1.88528,-3.19072 -5.84836,-25.80928 c -3.2166,-14.1951 -6.37549,-28.05928 -7.01975,-30.80928 -1.37155,-5.85442 -0.19735,-5.66178 -18.24021,-2.99239 -14.5995,2.15996 -20.7379,1.30211 -27.43784,-3.83448 -9.68847,-7.427793 -10.92208,-20.648443 -2.64758,-28.374283 7.89503,-7.37154 25.10764,-10.08196 83.83256,-13.20089 15.13332,-0.80375 15.74225,-0.92393 25.74037,-5.08044 5.63221,-2.34147 13.50721,-6.29194 17.5,-8.77883 21.86259,-13.61696 64.20466,-38.8211204 70.25963,-41.8221004 17.50787,-8.677326 32.2152,-8.485926 39.79137,0.51784 2.05593,2.44333 2.70863,4.2902904 2.70863,7.6646404 0,7.59216 -3.3272,10.42737 -46.82499,39.90093 -6.49363,4.4 -13.34635,8.8279 -15.22827,9.83978 -3.1747,1.70698 -3.29116,1.93521 -1.61345,3.16198 0.99452,0.72721 6.16388,1.65616 11.48747,2.06434 18.28251,1.40179 37.93751,-2.7664 50.25765,-10.65803 3.84766,-2.46461 13.83685,-11.5622 24.92159,-22.69716 21.90763,-22.0069 25.17667,-24.65943 32.37666,-26.2707204 4.92645,-1.10249 5.8268,-1.02011 9.7832,0.8951504 2.70867,1.31124 5.4226,3.72796 7.17252,6.38703 5.84064,8.87507 2.24702,17.80921 -14.94439,37.15337 -16.40767,18.46228 -19.41985,22.24107 -21.01126,26.35868 -1.50201,3.88633 -1.50791,4.95497 -0.0717,13 2.09187,11.717623 2.52561,16.315013 3.74172,39.660163 1.10929,21.29474 2.108,27.94738 5.07644,33.81558 2.29199,4.53096 2.35613,6.96222 0.2891,10.95941 -1.47456,2.85149 -1.88424,3.03161 -5.75,2.52795 -3.43283,-0.44725 -5.01584,-1.476 -9.03243,-5.86991 -6.1582,-6.73668 -10.86702,-13.9605 -13.26062,-20.34314 -1.66158,-4.43067 -1.83977,-7.56016 -1.60388,-28.16699 0.26344,-23.01272 0.24899,-23.19401 -1.9725,-24.75 -3.00713,-2.106283 -11.40402,-2.008413 -15.79288,0.18407 l -3.5,1.74845 -0.0647,18.5 c -0.0737,21.05922 -0.98344,25.6354 -7.52506,37.85125 -9.96395,18.60672 -24.58984,31.1043 -46.44968,39.69049 -11.84678,4.65321 -17.86449,5.90094 -28.60555,5.93114 -8.26123,0.0232 -9.96171,-0.25948 -11.85238,-1.97052 C 716.56122,200.34554 715,196.49161 715,191.11084 c 0,-7.37853 3.38405,-9.92984 18.59379,-14.01826 26.74526,-7.18921 33.80774,-10.67026 41.64662,-20.52734 9.46185,-11.89791 12.85877,-24.10879 10.9378,-39.31803 C 784.164,101.2997 783.26277,100.33241 768,97.736497 c -9.34528,-1.58946 -91.85722,-1.70619 -96.5,-0.13652 -2.79521,0.94503 -2.99824,1.35024 -2.9742,5.935943 0.0142,2.70692 2.39639,15.27167 5.29378,27.92167 7.49517,32.72391 6.62133,30.17253 10.58897,30.91687 1.86477,0.34983 3.82842,1.18665 4.36368,1.85959 0.93367,1.17385 9.2475,32.42695 14.63841,55.02831 3.7352,15.65977 18.46068,69.14302 20.15076,73.18795 0.79123,1.89367 1.4386,4.74179 1.4386,6.32914 0,3.56931 2.46304,6.28767 12.26541,13.53686 4.18608,3.09576 9.03642,7.32641 10.77852,9.40146 7.23727,8.6204 20.56118,36.56645 28.85223,60.5157 2.13714,6.17327 8.24438,22.92412 13.57164,37.22412 20.64128,55.40752 54.4016,149.91202 68.05327,190.5 7.86213,23.375 22.69114,67.025 32.95336,97 10.26221,29.975 19.1488,56.83442 19.74797,59.6876 0.91617,4.36272 0.83211,5.58027 -0.52866,7.65706 -4.52207,6.90156 -27.58277,8.27187 -56.1009,3.33363 -8.74893,-1.51498 -16.28643,-2.98892 -16.75,-3.27542 -1.30831,-0.80858 -0.99256,-5.40966 0.40716,-5.93302 0.6875,-0.25706 5.27549,-1.29441 10.19553,-2.30521 9.09269,-1.86806 10.23123,-2.54255 8.61305,-5.10258 -0.76462,-1.20965 -4.37382,-0.53629 -22.73375,4.24135 -29.33073,7.63247 -54.80384,13.73683 -84.69332,20.29585 -13.67766,3.00146 -25.71651,5.91105 -26.753,6.46576 -1.70013,0.90988 -1.82161,1.82704 -1.24153,9.3737 l 0.643,8.36514 -2.88999,1.49302 c -1.58949,0.82117 -8.11917,2.6653 -14.5104,4.09807 -14.38915,3.22574 -22.83283,3.24255 -41.03568,0.0817 z M 834.6678,719.37835 c 8.83408,-1.51865 9.26508,-1.7164 11.8405,-5.43274 5.10432,-7.36553 5.54614,-13.75974 2.02373,-29.28795 -2.67122,-11.77577 -20.33241,-72.78572 -21.38338,-73.86812 -0.35676,-0.36742 -10.87861,1.38426 -23.3819,3.89263 l -22.73326,4.56068 0.62072,2.60737 c 0.3414,1.43405 4.43206,15.65737 9.09036,31.60737 4.65831,15.95 10.67546,36.65 13.37146,46 2.696,9.35 5.62963,18.37799 6.51917,20.06221 l 1.61734,3.06221 6.62373,-0.81382 c 3.64305,-0.4476 10.74924,-1.52303 15.79153,-2.38984 z M 129.5,661.88748 c 25.81632,-2.27343 28.22485,-2.926 32.39024,-8.77575 1.05931,-1.48766 9.6686,-15.51844 19.13176,-31.17949 l 17.20573,-28.47465 -4.36386,-0.85273 c -10.50594,-2.05294 -19.65816,-4.99081 -30.07552,-9.65428 -6.14766,-2.75208 -11.50672,-4.66385 -11.90903,-4.24839 -1.24283,1.28347 -37.73978,57.06761 -45.52347,69.58081 C 102.31013,654.78697 99,661.21987 99,662.57831 c 0,2.2273 0.31923,2.41847 3.25,1.94628 1.7875,-0.28799 14.05,-1.47469 27.25,-2.63711 z m 671.20027,-76.64981 17.20027,-3.78008 -7.89052,-20.2257 c -9.28794,-23.80772 -16.61015,-40.86823 -29.45651,-68.63273 -12.87776,-27.83239 -23.88149,-53.56991 -32.55328,-76.14157 -8.70942,-22.66958 -22.22267,-52.89159 -27.99109,-62.60128 -4.15752,-6.99815 -11.54533,-13.76253 -13.21135,-12.09651 -0.46431,0.46431 -0.39835,3.06125 0.14657,5.77099 3.88029,19.29564 6.68342,31.4073 9.58011,41.39346 1.84002,6.34334 6.55372,23.68334 10.47488,38.53334 7.23256,27.39075 22.11527,81.25683 37.04149,134.06697 l 8.21546,29.06696 5.62185,-0.78689 c 3.09202,-0.43279 13.36197,-2.48792 22.82212,-4.56696 z M 430.94964,504.47934 c 9.15877,-11.01196 23.58425,-28.57175 32.05661,-39.02175 28.06396,-34.6147 31.60649,-38.89446 43.45631,-52.5 6.46684,-7.425 20.57647,-24.3 31.35471,-37.5 10.77825,-13.2 34.26275,-41.775 52.18778,-63.5 40.88768,-49.55555 40.71526,-49.33442 42.1164,-54.01104 1.45345,-4.85116 -0.17138,-9.46491 -4.0123,-11.3931 -1.43503,-0.7204 -10.64735,-2.57442 -20.47182,-4.12003 l -17.86267,-2.81022 -11.63733,1.71466 C 548.96228,245.63654 484.856,255.5184 447.5,261.47536 c -22.55,3.59593 -53.825,8.32402 -69.5,10.50687 -39.66039,5.52298 -55.91733,7.96717 -60.0284,9.02511 -2.47302,0.63641 -4.61514,2.3351 -7.1616,5.67912 -6.70813,8.80917 -6.76485,6.72065 1.04139,38.34852 3.85833,15.63244 9.53062,37.64761 12.60511,48.92261 3.07449,11.275 6.51032,25.225 7.63519,31 3.78393,19.42654 4.69584,21.85096 9.05544,24.07506 3.245,1.65547 3.85287,2.46497 3.85287,5.13081 0,1.80685 -0.87315,4.09465 -2.03456,5.33092 l -2.03456,2.16568 6.03257,22.89877 c 3.31791,12.59432 6.03346,23.68626 6.03456,24.64876 10e-4,1.06563 0.76195,1.75 1.94529,1.75 2.55492,0 5.05283,3.68013 5.07201,7.47251 0.008,1.66512 0.3587,3.56769 0.7784,4.22794 0.41969,0.66025 7.7554,3.46444 16.30158,6.23155 12.5001,4.04732 16.89584,5.98432 22.47991,9.90586 3.81777,2.68111 7.53434,5.5892 8.25904,6.46241 2.45435,2.95731 6.09853,-0.31845 23.1154,-20.77852 z M 302.0383,452.68833 c -10.78883,-42.61574 -20.10963,-71.67534 -24.16762,-75.34777 -1.72038,-1.55692 -2.07935,-1.42919 -6.09932,2.17031 -2.34925,2.10353 -4.42064,4.18742 -4.60309,4.63085 -0.18245,0.44344 0.97417,2.11215 2.57026,3.70825 6.91557,6.91557 16.0237,22.44885 20.58579,35.10762 5.66051,15.70665 7.64539,25.90517 8.36886,43 0.31423,7.425 1.01841,14.0643 1.56483,14.754 1.37321,1.73324 7.0206,3.16914 8.21125,2.08778 0.61473,-0.55831 -1.73752,-11.57204 -6.43096,-30.11104 z m -48.66692,-334.7685 c 9.70227,-3.63009 10.44634,-7.51907 0.86649,-4.52882 -6.39501,1.99613 -8.23787,3.15694 -8.23787,5.18902 0,1.83079 0.93819,1.74676 7.37138,-0.6602 z"
     id="path1" />
</svg>
