<?xml version="1.0" encoding="UTF-8" standalone="no"?>
<!-- Created with Inkscape (http://www.inkscape.org/) -->

<svg
   version="1.1"
   id="svg1"
   width="685.40222"
   height="509.5123"
   viewBox="0 0 685.40222 509.5123"
   xmlns="http://www.w3.org/2000/svg"
   xmlns:svg="http://www.w3.org/2000/svg">
  <defs
     id="defs1" />
  <path
     style="fill:#000000"
     d="m 556,508.68377 -35,-0.54298 -15,-5.65956 c -8.25,-3.11276 -23.55,-8.93451 -34,-12.93722 -17.7336,-6.79257 -19.4999,-7.27213 -26.5,-7.19467 -4.125,0.0457 -38.1,1.92227 -75.5,4.17026 -37.4,2.24799 -80.375,4.79012 -95.5,5.64919 -63.80522,3.624 -77.22594,4.98981 -107.90141,10.98103 L 138.19717,508.6969 75.02016,508.42534 11.84315,508.15378 8.2413,505.40607 C 1.56919,500.31618 0,497.09569 0,488.49227 c 0,-7.62295 0.0261,-7.69843 5.19286,-15 2.85608,-4.03617 13.65608,-19.71349 24,-34.83849 C 42.27795,419.52063 50.28187,408.85517 55.5,403.59874 61.81499,397.2374 156.66942,320.7071 206.6786,281.62506 c 13.84141,-10.81703 14.68179,-11.6709 14.73468,-14.97128 0.0659,-4.1095 -0.3094,-4.72358 -4.82943,-7.90278 -6.67762,-4.69675 -56.11533,-47.32609 -59.99164,-51.72981 -4.69076,-5.32898 -7.09221,-11.77113 -7.09221,-19.02565 0,-3.36218 2.17174,-13.2667 5.93598,-27.07186 5.19579,-19.05533 26.4471,-97.897968 32.20914,-119.496338 1.58167,-5.92872 2.99628,-8.78868 6.07986,-12.29181 7.21821,-8.20033 6.73509,-8.0834 64.27502,-15.55646 28.6,-3.7144596 64.6,-8.4049896 80,-10.4233996 16.3381,-2.14135 29.7714,-3.43439003 32.2532,-3.10455003 7.1841,0.95481003 11.9103,4.22503003 26.6292,18.42553963 7.7971,7.52242 24.5132,23.43573 37.147,35.36292 24.2093,22.85522 27.2319,26.08085 34.9659,37.3142 4.9333,7.16555 6.8697,11.031718 22.0376,43.999998 4.8078,10.45 15.7023,33.4 24.21,51 8.5077,17.6 25.5058,53.15 37.7736,79 12.2678,25.85 25.5686,53.75 29.5575,62 6.964,14.40366 7.2553,15.29817 7.3256,22.5 0.083,8.47268 -0.9375,11.04397 -7.9937,20.1474 -5.3537,6.90702 -6.0819,8.74581 -6.92,17.47549 l -0.6603,6.87711 37.2846,32 c 64.0584,54.97891 70.3435,60.54191 72.0979,63.81409 3.4399,6.41614 1.4948,14.0671 -4.5066,17.72639 -3.0579,1.86448 -5.1078,1.94263 -45.7015,1.74227 -23.375,-0.11538 -58.25,-0.45412 -77.5,-0.75276 z M 314.5,439.1384 c 56.925,-4.68428 105.2785,-9.00492 107.4521,-9.60144 3.9384,-1.08079 7.1037,-4.14236 40.8029,-39.46451 l 6.7559,-7.08133 -17.2554,-6.59757 c -94.8871,-36.27977 -173.4113,-65.87238 -178.576,-67.29812 -5.886,-1.62482 -6.5569,-1.63212 -9.7569,-0.10613 -4.7299,2.25553 -7.4142,7.0019 -7.4189,13.11779 0,4.83536 -0.8015,6.15209 -33.5037,55.29103 -30.05715,45.16442 -33.5,50.74968 -33.5,54.34634 0,8.95497 7.41214,15.8892 17,15.9039 2.475,0.004 51.075,-3.82569 108,-8.50996 z m 202.469,-23.15716 c 5.7921,-6.86527 10.531,-12.89748 10.531,-13.40489 0,-2.78469 -3.762,0.41605 -14.3609,12.21839 -8.1391,9.06329 -11.4161,13.37882 -10.5607,13.90748 2.1608,1.33548 3.6194,0.0461 14.3906,-12.72098 z m -21.1089,8.42254 c 5.0337,-4.58237 19.6399,-23.09334 19.6399,-24.89034 0,-3.56531 -2.6568,-1.79763 -11.1076,7.39034 -16.4262,17.85898 -16.395,17.8194 -14.8278,18.81109 2.2319,1.41229 3.6218,1.12282 6.2955,-1.31109 z m -3.3973,-13.20904 c 11.4631,-12.61607 12.4608,-13.99468 11.6523,-16.1017 -0.9893,-2.57801 -4.3883,-1.52152 -7.7872,2.42043 -1.8303,2.12282 -7.3036,8.17904 -12.1627,13.45824 -4.8592,5.27921 -8.5451,10.06735 -8.191,10.64032 0.3541,0.57296 1.8662,1.04175 3.3603,1.04175 2.1914,0 4.7286,-2.21452 13.1283,-11.45904 z M 224.13856,324.24666 c 10.55179,-10.20595 13.58794,-13.69083 12.71614,-14.59534 -0.87451,-0.90721 -3.59411,1.10859 -11.50003,8.52394 -5.69507,5.34168 -12.49217,11.27679 -15.10467,13.18914 -4.91271,3.59609 -5.6391,4.76395 -3.5,5.6271 2.75325,1.11096 4.03299,0.17298 17.38856,-12.74484 z m -13.27228,-4.27168 C 218.63983,312.45165 225,305.82031 225,305.23868 c 0,-3.27653 -4.59513,-0.21761 -18.01527,11.99252 -8.2416,7.49851 -15.1967,13.83563 -15.45577,14.08249 -0.6433,0.61297 2.15104,2.30588 3.83732,2.32478 0.75146,0.008 7.72646,-6.14015 15.5,-13.66349 z M 361.6664,242.11065 c 13.8146,-3.5797 29.01,-13.62914 37.4287,-24.75329 9.778,-12.92031 14.3708,-26.8878 14.3704,-43.70358 -3e-4,-13.83855 -1.924,-22.46634 -7.5809,-34 -8.6893,-17.7164 -25.6722,-31.45946 -45.3846,-36.72657 -10.1522,-2.71264 -27.3457,-2.27477 -37.1667,0.94654 -11.8123,3.87449 -20.418,9.16003 -28.8333,17.70918 -13.2433,13.45397 -19.7267,28.03508 -20.7259,46.61174 -1.9643,36.52368 20.9353,66.938 56.3926,74.89839 8.1676,1.83368 22.3376,1.39175 31.4997,-0.98241 z m -27.434,-51.47902 c -11.8383,-6.4215 -13.9822,-22.24094 -4.2789,-31.57281 13.4977,-12.9809 34.7044,-3.09 33.3556,15.55717 -0.4843,6.69606 -3.1407,11.35588 -8.6095,15.10322 -4.8882,3.34939 -15.1326,3.80608 -20.4672,0.91242 z"
     id="path1" />
</svg>
