<?xml version="1.0" encoding="UTF-8" standalone="no"?>
<!-- Created with Inkscape (http://www.inkscape.org/) -->

<svg
   version="1.1"
   id="svg1"
   width="360"
   height="360"
   viewBox="0 0 360 360"
   xml:space="preserve"
   xmlns="http://www.w3.org/2000/svg"
   xmlns:svg="http://www.w3.org/2000/svg"><defs
     id="defs1" /><g
     id="background2"
     style="fill:#cd0000;fill-opacity:1"><path
       style="display:inline;fill:#f4f4f4;fill-opacity:0.678431;stroke:none;stroke-width:1.05208"
       d="M 321.56424,317.23016 288.30706,6.5173673 24.121209,254.58633 Z"
       id="path2-1" /></g><g
     id="background"
     transform="matrix(0.90597011,0,0,0.93440901,28.664532,85.441645)"
     style="fill:#cd0000;fill-opacity:1"><path
       style="fill:#77b700;fill-opacity:1;stroke:none"
       d="M 21.261352,119.15133 120.11654,260.49784 318.41261,168.72808 286.02947,15.984303 112.14759,-24.402196 Z"
       id="path2" /></g><g
     id="metric"
     transform="translate(-276.97977,-1266.1642)"
     style="fill:#cd0000;fill-opacity:1"><path
       d="m 442.99502,1567.4279 c -0.74148,-0.3228 -1.28353,-0.9338 -1.64913,-1.8589 -0.41867,-1.0594 -6.23878,-24.0102 -8.40071,-33.127 -0.19239,-0.8114 -0.41627,-1.1961 -0.51894,-0.8919 -1.23356,3.6555 -4.81787,12.9938 -5.40847,14.0909 -1.23036,2.2855 -1.75509,2.3606 -15.6589,2.2428 l -12.09149,-0.1024 -0.86057,-1.0009 c -1.16032,-1.3495 -1.15394,-3.1973 0.015,-4.3663 0.74034,-0.7403 1.22254,-0.8776 3.12138,-0.8886 1.23518,-0.01 6.25436,-0.047 11.15374,-0.089 l 8.90797,-0.076 1.35103,-3.5672 c 3.94078,-10.4053 6.93736,-17.5684 7.64819,-18.2825 1.14432,-1.1495 3.75121,-1.1259 4.92168,0.044 1.04378,1.0438 1.36728,2.1411 6.06009,20.5566 2.07491,8.1424 3.81637,14.9427 3.86989,15.1118 0.0535,0.1692 0.51023,-0.7137 1.01491,-1.962 4.96331,-12.2761 8.69255,-20.9449 9.26331,-21.5329 0.48419,-0.4989 1.16117,-0.7136 2.25044,-0.7136 2.12336,0 2.76196,0.67 5.10059,5.351 1.07824,2.1582 2.20873,4.205 2.5122,4.5483 0.49764,0.5631 1.42259,0.6244 9.43095,0.6244 h 8.87917 l 0.87562,0.8755 c 1.16891,1.1689 1.17533,3.0168 0.0152,4.3663 l -0.86046,1.0009 -10.34045,0.1091 c -12.50443,0.1318 -12.33864,0.1708 -14.04941,-3.2985 -0.63463,-1.287 -1.23981,-2.3342 -1.34485,-2.3272 -0.10504,0.01 -2.18661,4.7025 -4.6257,10.4344 -5.93973,13.9583 -6.01393,14.1102 -7.19086,14.7189 -1.22447,0.6331 -1.95471,0.6352 -3.39142,0.01 z"
       style="display:inline;fill:#ffcc00;stroke-width:0.267547"
       id="path1-9" /></g><g
     id="bike"
     transform="matrix(0.23011029,0,0,0.23011029,22.493296,-49.160611)"><path
       id="path8"
       style="display:inline;fill:#ffffff"
       d="m 935.9788,709.88876 c -4.01244,0.008 -54.21026,7.64105 -58.03321,8.82422 -2.22578,0.68886 -2.37113,1.76053 -1.5332,11.22656 0.87564,9.892 0.74972,10.6409 -2.2832,13.67383 -3.89348,3.89348 4.47991,2.43988 -93.72266,16.27734 -44.73333,6.30326 -119.13398,16.89427 -165.33398,23.53711 -105.74457,15.20443 -95.27095,14.15287 -99.4336,9.99023 -2.87926,-2.87927 -3.98531,-6.52429 -7.13476,-23.48632 -2.05032,-11.04249 -4.11182,-20.31144 -4.58008,-20.59766 -1.76967,-1.08172 -56.1836,6.5585 -56.1836,7.88867 0,1.46512 15.50184,87.47625 16.58204,92.00391 0.4534,1.90046 3.47058,3.73053 10.39257,6.30469 17.92403,6.66561 36.16677,19.71577 52.5625,37.59961 6.5508,7.14536 8.45073,8.61288 7.8711,6.08398 -0.4202,-1.83333 -3.4598,-14.95789 -6.75391,-29.16602 -3.2941,-14.20812 -5.98828,-26.87798 -5.98828,-28.15429 0,-3.90977 5.21087,-9.2113 10.4043,-10.58594 2.71068,-0.71749 21.42903,-3.11501 41.5957,-5.32813 78.32027,-8.59495 143.30579,-16.4557 206.66602,-24.99804 36.3,-4.89403 68.90238,-8.94445 72.44921,-9 5.47865,-0.0858 6.93222,0.46239 9.66602,3.64062 3.45628,4.01817 4.17704,9.97624 1.75391,14.50391 -0.80544,1.50497 -32.47149,38.8153 -70.36914,82.91211 -59.11996,68.79059 -89.90873,105.03555 -115.85743,136.39255 l -5.68945,6.877 7.37109,9.7871 c 7.06643,9.3805 17.98659,29.5632 18.0293,33.3222 0.096,8.4519 10.02516,-2.8208 87.67188,-99.53705 17.66225,-22 47.54833,-58.89507 66.41406,-81.99024 18.86572,-23.09517 35.06082,-43.80762 35.98828,-46.02734 2.62869,-6.29135 6.73297,-9.25391 12.82031,-9.25391 4.21835,0 6.05248,0.79513 8.56055,3.71094 4.03691,4.69319 4.00022,7.0272 -0.30664,19.46094 -3.29282,9.50625 -3.45341,11.11961 -2.73242,27.43359 0.42132,9.53333 1.39763,19.73268 2.16992,22.66602 0.77229,2.93333 8.9422,40.13463 18.1543,82.66796 9.21211,42.53329 21.83967,100.73199 28.0625,129.33199 18.50437,85.0456 25.84375,120.455 25.84375,124.6797 0,4.9876 -3.84807,8.9545 -9.5918,9.8887 -2.42423,0.3943 -14.3082,1.67 -26.4082,2.834 -33.08416,3.1825 -52.3075,5.8602 -54.375,7.5761 -4.31259,3.5791 -20.30454,40.1169 -18.39649,42.0313 1.10838,1.112 32.20451,2.7121 39.43945,2.0293 2.56667,-0.2422 22.96538,-2.5056 45.33204,-5.0293 22.36667,-2.5238 61.06665,-6.955 85.99995,-9.8477 24.9333,-2.8928 64.986,-7.5296 89.0059,-10.3027 24.0198,-2.7731 44.3433,-5.4549 45.1621,-5.9609 1.0417,-0.6438 0.4315,-4.0715 -2.0293,-11.4102 -7.9863,-23.8174 -11.4347,-26.3432 -34.2149,-25.0508 -14.9066,0.8458 -15.5302,0.7716 -19.0625,-2.2812 -3.2739,-2.8294 -5.369,-9.5521 -20.2363,-64.9629 -27.9049,-104.0026 -84.2997,-278.97659 -101.291,-314.27343 -5.88259,-12.22026 -8.47699,-16.02417 -15.14255,-22.19532 -4.42426,-4.09608 -10.72997,-8.4725 -14.01367,-9.72656 -4.01186,-1.53214 -6.44256,-3.43806 -7.41016,-5.80664 -0.79197,-1.93868 -5.93665,-26.62409 -11.43164,-54.85742 -5.49498,-28.23333 -10.63547,-54.48398 -11.42383,-58.33398 -1.30007,-6.349 -1.76592,-6.99891 -5.00585,-6.99219 z m 14.38085,147.11523 c 1.6583,-0.0254 3.32423,0.31911 4.89063,1.0625 7.80033,3.70195 25.82474,44.92135 46.56442,106.48242 15.0033,44.53389 49.65,156.32959 59.916,193.33199 5.3916,19.4333 12.8893,46.2095 16.6602,59.502 6.5737,23.1722 6.7749,24.3632 4.8808,28.8965 -3.1089,7.4406 -6.069,8.5203 -29.7011,10.832 -27.7199,2.7116 -32.8376,2.6786 -36.3613,-0.2305 -2.4204,-1.9982 -4.057,-9.131 -11.3926,-49.666 -13.93475,-77 -17.84239,-97.2293 -26.91603,-139.334 -7.71101,-35.7816 -32.58307,-157.80301 -38.66016,-189.66792 -2.32665,-12.19964 -2.32097,-12.37471 0.37696,-15.98828 2.4774,-3.31823 6.09393,-5.16473 9.74218,-5.22071 z m -520.48632,15.5586 c -20.82492,-0.42473 -41.9096,5.42643 -60.93164,18.07226 -40.19798,26.72357 -64.70285,78.48116 -62.14063,131.24605 3.10914,64.0281 40.53212,115.9585 92.67774,128.6035 10.50135,2.5465 34.5204,2.5107 48.59375,-0.072 6.41667,-1.1777 11.66244,-2.5282 11.65625,-3.002 -0.006,-0.4738 -4.00894,-2.9627 -8.89454,-5.5293 -16.89108,-8.8738 -35.70665,-22.243 -44.66211,-31.7363 -25.86718,-27.4206 -31.80668,-63.3098 -15.83984,-95.6992 12.33234,-25.01671 34.3083,-38.78854 64.07422,-40.15235 12.97401,-0.59443 16.78485,-0.0961 52,6.79883 20.9,4.09208 38.51713,7.4449 39.15039,7.44922 1.55914,0.0106 -0.13011,-10.54518 -3.39844,-21.23437 -3.29417,-10.77372 -13.69713,-31.88038 -21.05468,-42.71485 -22.53214,-33.18025 -56.52227,-51.32162 -91.23047,-52.02949 z m 23.57617,125.80859 c 9.61002,-0.45978 23.17687,1.79482 52.95703,7.44722 47.36917,8.9909 88.47843,17.4023 101.60352,20.7911 34.40097,8.882 59.85352,33.412 68.44335,65.9609 2.99401,11.3448 2.99895,31.2433 0.01,42.6445 -6.86675,26.1909 -22.1894,43.2069 -46.05664,51.1465 -5.5,1.8296 -14.33533,3.7467 -19.63477,4.2598 -9.58522,0.928 -9.64244,0.9143 -11,-2.6563 -2.64877,-6.9668 -1.75054,-10.6032 3.29493,-13.3203 7.43392,-4.0035 19.04334,-17.1644 23.45312,-26.5879 7.2985,-15.5966 7.22973,-36.7885 -0.16992,-52.293 -10.87588,-22.7884 -38.16484,-29.872 -58.45508,-15.1738 l -5.67578,4.1113 -6.90625,-2.2715 c -11.39571,-3.7458 -35.74577,-14.6117 -68.77539,-30.6914 -21.05893,-10.2521 -32.67221,-15.1894 -35.72656,-15.1894 -9.07192,0 -14.31574,10.7738 -8.96289,18.416 2.32431,3.3184 32.11783,18.538 73.22461,37.4063 14.66666,6.732 29.02956,13.5765 31.91796,15.2089 l 5.25196,2.9688 7.71093,30.666 c 4.24091,16.8667 7.72735,31.1449 7.74805,31.7285 0.0801,2.2591 -108.47444,-54.4483 -128.88281,-67.3262 -10.93011,-6.897 -21.92438,-18.9889 -27.3457,-30.0742 -4.20146,-8.5909 -4.40039,-9.684 -4.40039,-24.3554 0,-14.6595 0.1992,-15.7681 4.36523,-24.2305 5.46211,-11.0951 16.03562,-21.1193 26.33984,-24.9746 5.56379,-2.08167 9.90587,-3.33545 15.67188,-3.61132 z m 137.73437,100.76952 c 5.01346,-0.056 9.7015,3.377 12.67188,9.918 4.95618,10.9139 2.11631,25.7284 -6.89063,35.9609 -5.33792,6.0642 -7.16367,7.2079 -8.29882,5.1953 -0.3102,-0.55 -2.89016,-10.5043 -5.73243,-22.1211 l -5.16601,-21.1211 4.33984,-3.8789 c 2.94214,-2.6288 6.0681,-3.9192 9.07617,-3.9531 z m -257.74804,44.0879 c 0.56575,-0.01 4.76444,2.8956 9.33203,6.4511 8.7115,6.7812 26.418,17.5352 28.87109,17.5352 0.78872,0 1.4336,0.2957 1.4336,0.6582 0,0.3624 -7.7987,14.4436 -17.33204,31.291 -17.28287,30.5423 -19.21056,35.496 -15.625,40.166 4.47691,5.831 14.05397,6.9574 18.68555,2.1973 1.61667,-1.6615 10.73815,-17.0091 20.27149,-34.1055 l 17.33398,-31.084 6.66602,0.7598 c 3.66667,0.4182 10.90957,0.7615 16.09375,0.7715 l 9.42578,0.012 -9.70703,19 c -10.57369,20.6961 -11.96981,26.8427 -7.17969,31.6328 4.33354,4.3336 8.16284,4.4318 30.93164,0.791 33.0614,-5.2864 34.19408,-5.1177 39.72851,5.9102 3.00335,5.9845 7.16195,18.6583 6.37891,19.4414 -0.75704,0.757 -130.45627,19.2434 -209.00391,29.791 -42.09533,5.6526 -64.66956,8.0837 -77.70117,8.3672 l -18.36914,0.4004 0.8418,-4 c 1.16381,-5.5339 5.16565,-17.4204 8.42383,-25.0176 1.77072,-4.1289 3.89766,-6.7979 6.07812,-7.6269 3.04322,-1.157 35.54549,-5.1485 60.72656,-7.4571 5.5,-0.5043 11.58116,-1.7165 13.51368,-2.6953 4.07273,-2.0629 2.72542,0.201 34.59765,-58.1894 13.50524,-24.7418 25.01825,-44.99 25.58399,-45 z" /><path
       id="path6"
       style="display:inline;fill:#b3b3b3"
       d="m 905.38309,632.21102 c -8.50331,0.19917 -24.62331,2.27074 -25.18945,3.7461 -0.5492,1.43118 6.55672,44.08371 8.37305,50.25781 0.80931,2.751 2.75937,2.84001 17.83984,0.81445 6.23333,-0.83725 11.8564,-1.99107 12.49609,-2.56445 1.08551,-0.97299 -6.74821,-49.14258 -8.41406,-51.73828 -0.28332,-0.44146 -2.27103,-0.58201 -5.10547,-0.51563 z m -431.02148,21.17383 c -0.6728,-0.66595 -28.18672,1.65724 -29.00586,2.44922 -0.21163,0.20461 2.63707,16.36265 6.33203,35.90625 3.69496,19.5436 6.71875,35.82155 6.71875,36.17188 0,0.83176 -0.22541,0.84968 15.77344,-1.29102 7.57579,-1.01366 13.97442,-2.04459 14.21875,-2.29102 0.60229,-0.60747 -13.13866,-70.05602 -14.03711,-70.94531 z" /><path
       id="path5"
       style="display:inline;fill:#4d4d4d"
       d="m 411.68192,574.0743 c -18.98188,-0.58033 -32.81005,3.22002 -39.89648,11.29102 -4.68827,5.33965 -7.21799,13.77494 -6.375,21.25391 1.67188,14.83293 9.96104,20.48829 34.06054,23.23828 16.26105,1.85555 38.7066,0.35731 90.47071,-6.03906 68.43175,-8.45595 68.46484,-8.46301 68.46484,-16.03516 0,-6.95802 -3.49191,-13.35593 -8.61523,-15.78711 -3.03928,-1.44223 -13.46144,-2.7236 -33.5625,-4.125 -36.63748,-2.55428 -48.43947,-4.0018 -65.15625,-7.99609 -14.75698,-3.52603 -28.0015,-5.45258 -39.39063,-5.80079 z m 203.38281,664.1308 c -5.12917,-0.1886 -21.92422,0.1108 -37.32422,0.6661 l -28,1.0097 -0.40429,7.8164 -0.4043,7.8145 38.63281,-0.4883 c 21.24841,-0.2688 39.07007,-0.9255 39.60352,-1.459 0.53345,-0.5334 0.12603,-4.1295 -0.9043,-7.9922 l -1.87305,-7.0234 z" /><path
       id="path3"
       style="display:inline;fill:#4077bf;fill-opacity:1"
       d="m 1036.9885,502.17391 c -5.8352,0.11528 -17.3208,8.41586 -50.58197,33.76563 -44.59268,33.986 -56.51681,38.58396 -105.33398,40.61719 -48.28632,2.01112 -50.34793,2.34214 -56.44922,9.08398 -3.46373,3.82738 -4.25168,11.98262 -1.73828,17.99805 2.70016,6.46239 8.2712,8.95643 18.1875,8.14258 4.03333,-0.33102 19.03398,-1.53058 33.33398,-2.66602 51.10191,-4.05759 69.99814,-10.2241 100.66602,-32.85547 14.81091,-10.92972 47.12285,-38.22263 60.99995,-51.52344 10.007,-9.59145 11.1229,-13.12993 6.1367,-19.46875 -1.5187,-1.93079 -2.9373,-3.13885 -5.2207,-3.09375 z m 93.7774,15.83789 c -0.01,2.8e-4 -0.017,8.2e-4 -0.025,0.002 -0.55,0.073 -4.6,4.14916 -9,9.05664 -24.4102,27.22546 -40.8221,43.8199 -47.8067,48.33984 -13.995,9.05665 -29.8606,13.52408 -63.3398,17.83985 l -16.70114,2.15429 -10.74219,7.80078 c -18.08995,13.13679 -17.3356,11.91814 -7.41016,11.96485 4.76666,0.0224 16.76602,-0.8783 26.66599,-2.00196 54.9601,-6.23798 75.5069,-13.37858 94.9648,-33.00781 17.7254,-17.88147 34.3692,-46.13357 34.3692,-58.33984 0,-2.13279 -0.4364,-3.82583 -0.9746,-3.8086 z" /><path
       id="path16"
       style="display:inline;fill:#1a1a1a;fill-opacity:1"
       d="m 1040.2542,476.6622 c -6.6194,-0.33448 -14.0369,1.05605 -20.5137,4.08203 -5.7037,2.66479 -55.92508,38.33104 -68.34959,48.54101 -1.2917,1.06148 -2.59608,1.92969 -2.89844,1.92969 -0.30237,0 -5.54447,2.97744 -11.65039,6.61719 -14.44916,8.61319 -22.76253,10.48284 -53.76953,12.09179 -55.55475,2.88274 -62.67249,4.2735 -74.33985,14.51758 -16.76882,14.72322 -16.8215,45.57549 -0.10547,61.70703 8.18942,7.90308 16.27389,10.77139 31.7793,11.27344 l 13.33398,0.43164 1.56836,9.01367 c 0.86345,4.95763 3.05952,17.40217 4.87891,27.6543 l 3.30859,18.64063 -4.67578,5.17382 c -5.897,6.52728 -8.41406,12.51618 -8.41406,20.01563 v 5.88867 l -7.66602,0.94336 c -4.21666,0.51821 -54.16667,7.4998 -111,15.51563 -167.45606,23.61815 -197.7984,27.83022 -198.1289,27.49804 -0.1723,-0.17318 -1.60809,-7.18209 -3.19141,-15.57422 -3.26523,-17.30683 -5.05011,-21.4785 -12.00976,-28.07422 -4.91871,-4.6615 -4.93071,-4.69692 -9.90235,-32 -2.73743,-15.03333 -5.86341,-30.85064 -6.94726,-35.14843 -1.07961,-4.281 -1.7808,-7.91617 -1.56446,-8.10352 l 0.002,-0.002 c 0.22444,-0.16088 12.1082,-1.89282 26.4082,-3.84766 14.3,-1.95485 28.10882,-4.14603 30.68555,-4.86914 7.95693,-2.23298 19.0133,-9.74879 23.26172,-15.8125 3.64455,-5.20182 4.03892,-6.74405 3.92187,-15.33398 -0.20131,-14.77344 -7.65128,-30.53902 -17.64062,-37.32618 -7.60677,-5.16831 -15.72972,-7.26599 -34.36329,-8.87695 -52.39075,-4.52942 -62.33448,-5.69522 -80.89062,-9.47656 -23.8919,-4.86865 -54.16775,-6.61557 -68.01172,-3.92383 -18.62231,3.62082 -33.29731,14.58723 -40.72266,30.42969 -3.22653,6.88399 -3.57421,9.11216 -3.57421,22.95703 0,14.20944 0.28323,15.90833 3.85546,23.18359 9.45852,19.26341 26.36604,27.29211 62.36133,29.61133 l 14.2168,0.91602 2.90035,15.47661 c 4.80945,25.66745 7.6726,42.98189 8.69531,52.57812 0.95384,8.95016 0.90103,9.16939 -3.21875,13.41993 -5.29742,5.46555 -6.76804,10.59613 -5.42187,18.9082 1.62242,10.0178 14.57409,83.51943 15.27929,86.71094 0.59501,2.6928 -0.006,2.83644 -15.02343,3.61328 -23.99176,1.24104 -40.49133,6.14222 -60.66211,18.01758 -23.07593,13.58574 -45.89741,38.18565 -59.42774,64.05859 -28.78574,55.04462 -26.69264,127.25343 5.22852,180.36523 3.60255,5.9941 6.55078,11.5107 6.55078,12.2578 0,0.7471 -12.30239,24.2693 -27.33789,52.2715 l -27.33594,50.9121 -12.99609,0.9414 c -18.64847,1.3489 -45.2849,4.4883 -52.63867,6.2051 -8.22504,1.9201 -15.9968,7.6564 -20.28321,14.9707 -7.01914,11.9772 -14.07422,37.2192 -14.07422,50.3515 0,7.0978 0.45681,8.4354 4.33204,12.6543 2.57795,2.8065 6.27677,5.1524 9.13086,5.793 2.63862,0.5926 17.63927,0.6124 33.33398,0.043 25.0463,-0.9086 39.37917,-2.5199 117.20312,-13.166 48.76666,-6.6718 108.65387,-14.8254 133.08399,-18.1211 26.19467,-3.5338 46.04908,-6.835 48.39258,-8.0469 11.965,-6.1873 12.10434,-24.4289 0.38086,-49.8301 -5.87752,-12.7348 -9.87004,-17.8764 -17.23633,-22.1934 -7.80069,-4.5715 -18.00412,-5.422 -33.24219,-2.7753 -6.57492,1.1419 -12.17374,1.8555 -12.44141,1.5878 -0.26768,-0.2676 3.01118,-7.1041 7.28711,-15.1933 l 7.77539,-14.707 7.6504,-2.8067 c 4.20794,-1.5433 10.20808,-4.7585 13.33398,-7.1445 l 5.68359,-4.3379 46.125,22.7363 46.125,22.7383 -1.57422,4.666 -1.57421,4.668 -17.88477,1.0254 c -20.36502,1.1688 -22.69119,2.1537 -27.55273,11.6679 -2.61421,5.1162 -3,7.9118 -3,21.7403 0,13.8251 0.37363,16.5336 2.90039,21.0293 5.14827,9.1601 7.37672,9.4959 59.24609,8.9199 47.39184,-0.5262 49.8346,-0.8202 56.36328,-6.8047 12.13828,-11.1266 9.9457,-40.4385 -3.89648,-52.0859 -3.94988,-3.3236 -4.89017,-3.4922 -19.46094,-3.4922 -8.42034,0 -14.99453,-0.5096 -14.60938,-1.1328 0.38514,-0.6232 5.97064,-1.4805 12.41211,-1.9043 23.64716,-1.5558 41.6381,-10.0813 58.09766,-27.5293 13.64932,-14.469 22.9837,-33.9723 26.6582,-55.7012 l 1.62305,-9.5976 22,-27.7051 c 32.53741,-40.9753 148.1958,-184.18849 154.64062,-191.48242 0.51082,-0.57812 2.58737,7.82318 4.61524,18.66797 3.4717,18.56617 25.50402,118.96335 36.07422,164.38475 2.64518,11.3667 8.63912,39.2667 13.32031,62 4.68119,22.7334 10.93749,52.6961 13.90234,66.584 2.96485,13.888 5.25358,25.3605 5.08594,25.4961 -0.16763,0.1357 -14.10598,1.8463 -30.97265,3.8007 -37.39965,4.3337 -42.57334,5.673 -49.78125,12.8809 -6.44974,6.4497 -16.57805,26.4757 -23.45118,46.3672 -5.59946,16.2053 -6.16227,24.737 -1.98242,30.0508 5.39757,6.8619 9.30683,7.8293 35.21094,8.7207 27.91887,0.9606 20.87851,1.4206 80.00391,-5.2188 25.66667,-2.8822 58.06675,-6.495 71.99995,-8.0293 76.6261,-8.4377 152.5353,-17.5522 156.2676,-18.7636 2.3467,-0.7616 6.0954,-3.4702 8.332,-6.0176 5.2219,-5.9474 5.3801,-13.0283 0.6543,-29.3887 -7.572,-26.2135 -18.487,-41.7674 -32.664,-46.543 -4.9771,-1.6766 -10.9189,-2.4146 -18.9219,-2.3496 -9.3824,0.077 -11.668,-0.2843 -11.668,-1.8496 0,-1.0706 -2.9671,-12.5497 -6.5937,-25.5097 -3.6267,-12.96 -11.1605,-40.0638 -16.7422,-60.2305 -19.1009,-69.012 -61.6881,-201.51107 -84.1778,-261.89452 -11.2412,-30.18295 -22.6144,-47.19984 -37.47063,-56.06836 l -6.63672,-3.96093 -2.07226,-11.3711 c -9.68613,-53.13109 -20.18129,-102.6713 -22.73633,-107.32031 -2.5145,-4.57526 -8.86221,-10.26136 -12.99414,-11.63867 -0.7133,-0.23776 -2.76716,-8.52692 -4.56446,-18.42188 -1.7973,-9.89496 -3.55193,-19.54824 -3.89843,-21.45117 l -0.63086,-3.46094 25.98828,-0.89843 c 58.56115,-2.02792 97.66985,-8.95574 125.21285,-22.17774 11.7959,-5.66262 14.6841,-7.79116 24.791,-18.27539 15.7733,-16.36237 34.6727,-45.0142 39.2754,-59.54297 4.7513,-14.99781 5.334,-21.58951 2.709,-30.61914 -4.8731,-16.76284 -20.5121,-23.3613 -36.125,-15.24219 -4.1071,2.1358 -24.6926,22.79269 -44.5605,44.71289 -9.1696,10.11674 -12.9311,13.21095 -20.6583,16.99805 -5.1954,2.54661 -11.5485,5.0349 -14.1152,5.5293 -4.3824,0.84414 -3.7572,0.0275 10.2442,-13.39258 16.9566,-16.25259 20.4238,-21.88925 20.4238,-33.20898 0,-15.09521 -8.5517,-29.76285 -20.8106,-35.69727 -3.0197,-1.46184 -6.7041,-2.28369 -10.6757,-2.48437 z m -3.2657,25.51171 c 2.2834,-0.0451 3.702,1.16296 5.2207,3.09375 4.9862,6.33882 3.8703,9.8773 -6.1367,19.46875 -13.8769,13.30081 -46.18904,40.59372 -60.99995,51.52344 -30.66788,22.63137 -49.56411,28.79788 -100.66602,32.85547 -14.3,1.13544 -29.30065,2.335 -33.33398,2.66602 -9.9163,0.81385 -15.48734,-1.68019 -18.1875,-8.14258 -2.5134,-6.01543 -1.72545,-14.17067 1.73828,-17.99805 6.10129,-6.74184 8.1629,-7.07286 56.44922,-9.08398 48.81717,-2.03323 60.7413,-6.63119 105.33398,-40.61719 33.26117,-25.34977 44.74677,-33.65035 50.58197,-33.76563 z m 93.7774,15.8379 c 0.5382,-0.0172 0.9746,1.6758 0.9746,3.80859 0,12.20627 -16.6438,40.45837 -34.3692,58.33984 -19.4579,19.62923 -40.0047,26.76984 -94.9648,33.00781 -9.89997,1.12366 -21.89933,2.02436 -26.66599,2.00196 -9.92544,-0.0467 -10.67979,1.17194 7.41016,-11.96485 l 10.74219,-7.80078 16.70114,-2.15429 c 33.4792,-4.31577 49.3448,-8.7832 63.3398,-17.83985 6.9846,-4.51994 23.3965,-21.11438 47.8067,-48.33984 4.4,-4.90748 8.45,-8.98364 9,-9.05664 0.01,-0.001 0.017,-0.002 0.025,-0.002 z m -719.08398,56.0625 c 11.38913,0.3482 24.63365,2.27475 39.39063,5.80078 16.71678,3.99429 28.51877,5.44181 65.15625,7.99609 20.10106,1.4014 30.52322,2.68277 33.5625,4.125 5.12332,2.43118 8.61523,8.82909 8.61523,15.78711 0,7.57215 -0.0331,7.57921 -68.46484,16.03516 -51.76411,6.39637 -74.20966,7.89461 -90.47071,6.03906 -24.0995,-2.74999 -32.38866,-8.40535 -34.06054,-23.23828 -0.84299,-7.47897 1.68673,-15.91426 6.375,-21.25391 7.08643,-8.071 20.9146,-11.87137 39.89648,-11.29101 z m 493.70117,58.13671 c 2.83444,-0.0664 4.82215,0.0742 5.10547,0.51563 1.66585,2.5957 9.49957,50.76529 8.41406,51.73828 -0.63969,0.57338 -6.26276,1.7272 -12.49609,2.56445 -15.08047,2.02556 -17.03053,1.93655 -17.83984,-0.81445 -1.81633,-6.1741 -8.92225,-48.82663 -8.37305,-50.25781 0.56614,-1.47536 16.68614,-3.54693 25.18945,-3.7461 z m -431.02148,21.17383 c 0.89845,0.88929 14.6394,70.33784 14.03711,70.94531 -0.24433,0.24643 -6.64296,1.27736 -14.21875,2.29102 -15.99885,2.1407 -15.77344,2.12278 -15.77344,1.29102 0,-0.35033 -3.02379,-16.62828 -6.71875,-36.17188 -3.69496,-19.5436 -6.54366,-35.70164 -6.33203,-35.90625 0.81914,-0.79198 28.33306,-3.11517 29.00586,-2.44922 z m 461.61719,56.50391 c 3.23993,-0.007 3.70579,0.64319 5.00585,6.99219 0.78837,3.85 5.92885,30.10065 11.42383,58.33398 5.49499,28.23333 10.63967,52.91874 11.43164,54.85742 0.9676,2.36858 3.3983,4.2745 7.41016,5.80664 3.2837,1.25406 9.58941,5.63049 14.01367,9.72656 6.66556,6.17116 9.25996,9.97506 15.14255,22.19532 16.9913,35.29684 73.3861,210.27083 101.291,314.27343 14.8673,55.4108 16.9624,62.1335 20.2363,64.9629 3.5323,3.0528 4.1559,3.127 19.0625,2.2812 22.7802,-1.2924 26.2286,1.2334 34.2149,25.0508 2.4608,7.3387 3.071,10.7664 2.0293,11.4102 -0.8188,0.506 -21.1423,3.1878 -45.1621,5.9609 -24.0199,2.7731 -64.0726,7.4099 -89.0059,10.3027 -24.9332,2.8927 -63.63328,7.3239 -85.99995,9.8477 -22.36666,2.5237 -42.76537,4.7871 -45.33204,5.0293 -7.23494,0.6828 -38.33107,-0.9173 -39.43945,-2.0293 -1.90805,-1.9144 14.0839,-38.4522 18.39649,-42.0313 2.0675,-1.7159 21.29084,-4.3936 54.375,-7.5761 12.1,-1.164 23.98397,-2.4397 26.4082,-2.834 5.74373,-0.9342 9.5918,-4.9011 9.5918,-9.8887 0,-4.2247 -7.33938,-39.6341 -25.84375,-124.6797 -6.22283,-28.6 -18.85039,-86.7987 -28.0625,-129.33199 -9.2121,-42.53333 -17.38201,-79.73463 -18.1543,-82.66796 -0.77229,-2.93334 -1.7486,-13.13269 -2.16992,-22.66602 -0.72099,-16.31398 -0.5604,-17.92734 2.73242,-27.43359 4.30686,-12.43374 4.34355,-14.76775 0.30664,-19.46094 -2.50807,-2.91581 -4.3422,-3.71094 -8.56055,-3.71094 -6.08734,0 -10.19162,2.96256 -12.82031,9.25391 -0.92746,2.21972 -17.12256,22.93217 -35.98828,46.02734 -18.86573,23.09517 -48.75181,59.99024 -66.41406,81.99024 -77.64672,96.71625 -87.57588,107.98895 -87.67188,99.53705 -0.0427,-3.759 -10.96287,-23.9417 -18.0293,-33.3222 l -7.37109,-9.7871 5.68945,-6.877 c 25.9487,-31.357 56.73747,-67.60196 115.85743,-136.39255 37.89765,-44.09681 69.5637,-81.40714 70.36914,-82.91211 2.42313,-4.52767 1.70237,-10.48574 -1.75391,-14.50391 -2.7338,-3.17823 -4.18737,-3.72642 -9.66602,-3.64062 -3.54683,0.0556 -36.14921,4.10597 -72.44921,9 -63.36023,8.54234 -128.34575,16.40309 -206.66602,24.99804 -20.16667,2.21313 -38.88502,4.61064 -41.5957,5.32813 -5.19343,1.37464 -10.4043,6.67617 -10.4043,10.58594 0,1.27631 2.69418,13.94617 5.98828,28.15429 3.29411,14.20813 6.33371,27.33269 6.75391,29.16602 0.57963,2.5289 -1.3203,1.06138 -7.8711,-6.08398 -16.39573,-17.88384 -34.63847,-30.934 -52.5625,-37.59961 -6.92199,-2.57416 -9.93917,-4.40423 -10.39257,-6.30469 -1.0802,-4.52766 -16.58204,-90.53879 -16.58204,-92.00391 0,-1.33017 54.41393,-8.97039 56.1836,-7.88867 0.46826,0.28622 2.52976,9.55517 4.58008,20.59766 3.14945,16.96203 4.2555,20.60706 7.13476,23.48632 4.16265,4.16265 -6.31097,5.2142 99.4336,-9.99023 46.2,-6.64284 120.60065,-17.23385 165.33398,-23.53711 98.20257,-13.83746 89.82918,-12.38386 93.72266,-16.27734 3.03292,-3.03293 3.15884,-3.78183 2.2832,-13.67383 -0.83793,-9.46603 -0.69258,-10.5377 1.5332,-11.22656 3.82295,-1.18317 54.02077,-8.81622 58.03321,-8.82422 z M 820.63895,822.36141 c 0.2331,0.20951 -38.32206,45.96866 -122.10351,144.91797 -24.49613,28.93093 -44.89679,52.70432 -45.33399,52.82812 -0.43719,0.1238 -4.99557,-2.1241 -10.1289,-4.9941 -12.47496,-6.9747 -20.61976,-9.9566 -41.85743,-15.32425 -9.82231,-2.4825 -18.10757,-4.76186 -18.41015,-5.06445 -0.30258,-0.30258 -3.84018,-15.4666 -7.86133,-33.69727 -4.02116,-18.23066 -11.23926,-49.54289 -16.04102,-69.58398 -4.80175,-20.04108 -8.41978,-36.75014 -8.03906,-37.13086 0.38072,-0.38072 29.68344,-3.92899 65.11719,-7.88477 63.33346,-7.07045 147.04455,-16.92961 185.0918,-21.80078 10.63333,-1.36138 19.43819,-2.38087 19.5664,-2.26563 z m 129.7207,34.64258 c -3.64823,0.056 -7.26478,1.90248 -9.74218,5.22071 -2.69793,3.61357 -2.70361,3.78864 -0.37696,15.98828 6.07709,31.86491 30.94915,153.88632 38.66016,189.66792 9.07364,42.1047 12.98128,62.334 26.91603,139.334 7.3356,40.535 8.9722,47.6678 11.3926,49.666 3.5237,2.9091 8.6414,2.9421 36.3613,0.2305 23.6321,-2.3117 26.5922,-3.3914 29.7011,-10.832 1.8941,-4.5333 1.6929,-5.7243 -4.8808,-28.8965 -3.7709,-13.2925 -11.2686,-40.0687 -16.6602,-59.502 -10.266,-37.0024 -44.9127,-148.7981 -59.916,-193.33199 -20.73968,-61.56107 -38.76409,-102.78047 -46.56442,-106.48242 -1.5664,-0.74339 -3.23231,-1.08794 -4.89063,-1.0625 z m -520.48632,15.5586 c 34.7082,0.70787 68.69833,18.84924 91.23047,52.02929 7.35755,10.83447 17.76051,31.94113 21.05468,42.71485 3.26833,10.68919 4.95758,21.24497 3.39844,21.23437 -0.63326,-0.004 -18.25039,-3.35714 -39.15039,-7.44922 -35.21515,-6.89491 -39.02599,-7.39324 -52,-6.79883 -29.76592,1.36381 -51.74188,15.13564 -64.07422,40.15235 -15.96684,32.3894 -10.02732,68.2786 15.83984,95.6992 8.95547,9.4933 27.77103,22.8625 44.66211,31.7363 4.8856,2.5666 8.88854,5.0555 8.89454,5.5293 0.006,0.4738 -5.23958,1.8243 -11.65625,3.002 -14.07335,2.5829 -38.0924,2.6189 -48.59375,0.072 -52.14562,-12.645 -89.5686,-64.5754 -92.67774,-128.6035 -2.56222,-52.76489 21.94265,-104.52248 62.14063,-131.24605 19.02204,-12.64583 40.10672,-18.49699 60.93164,-18.07226 z m 23.57617,125.80859 c 9.61002,-0.45978 23.17687,1.79482 52.95703,7.44722 47.36917,8.9909 88.47866,17.4023 101.60352,20.7911 34.40097,8.882 59.85351,33.412 68.44336,65.9609 2.99423,11.3448 2.99894,31.2433 0.01,42.6445 -6.86675,26.1909 -22.1894,43.2069 -46.05664,51.1465 -5.5,1.8296 -14.33533,3.7468 -19.63477,4.2597 -9.58522,0.9282 -9.64244,0.9144 -11,-2.6562 -2.64877,-6.9668 -1.75054,-10.6032 3.29493,-13.3203 7.43392,-4.0035 19.04334,-17.1644 23.45312,-26.5879 7.2985,-15.5966 7.22973,-36.7885 -0.16992,-52.293 -10.87588,-22.7884 -38.16484,-29.872 -58.45508,-15.1738 l -5.67578,4.1113 -6.90625,-2.2715 c -11.39571,-3.7458 -35.74577,-14.6117 -68.77539,-30.6914 -21.05893,-10.2519 -32.67221,-15.1894 -35.72656,-15.1894 -9.07192,0 -14.31574,10.7738 -8.96289,18.416 2.32431,3.3184 32.11783,18.5381 73.22461,37.4062 14.66666,6.7322 29.02956,13.5766 31.91796,15.209 l 5.25196,2.9688 7.71094,30.666 c 4.2409,16.8667 7.72734,31.1449 7.74804,31.7285 0.0801,2.2591 -108.47444,-54.4483 -128.88281,-67.3262 -10.93011,-6.897 -21.92438,-18.9889 -27.3457,-30.0742 -4.20146,-8.5909 -4.40039,-9.684 -4.40039,-24.3554 0,-14.6595 0.1992,-15.7681 4.36523,-24.2305 5.46211,-11.0951 16.03562,-21.1193 26.33984,-24.9746 5.56379,-2.08167 9.90587,-3.33545 15.67188,-3.61132 z m 542.75,32.22852 c 0.49119,-1.3751 23.5359,67.5747 23.5449,70.4472 0,0.8262 1.8202,6.3013 4.0391,12.168 2.2187,5.8667 6.1633,18.766 8.7656,28.666 2.6023,9.9 8.8005,32.7014 13.7734,50.668 4.9729,17.9667 9.4237,34.2608 9.8906,36.209 0.8197,3.4209 0.6079,3.5703 -6.1464,4.4023 -3.8468,0.4739 -8.6449,1.1782 -10.6622,1.5645 -2.3747,0.4547 -3.8811,0.078 -4.2753,-1.0703 -0.3348,-0.9751 -4.2637,-22.1721 -8.7305,-47.1055 -4.4669,-24.9333 -9.9504,-54.0221 -12.1855,-64.6406 -2.2352,-10.6185 -4.2554,-21.1192 -4.4903,-23.334 -0.2348,-2.2148 -3.4857,-18.1031 -7.2226,-35.3086 -3.73696,-17.2056 -6.57268,-31.9049 -6.3008,-32.666 z m -405.01563,68.541 c 5.01346,-0.056 9.7015,3.3769 12.67188,9.918 4.95618,10.9139 2.11631,25.7284 -6.89063,35.9609 -5.33792,6.0642 -7.16367,7.2079 -8.29882,5.1953 -0.3102,-0.55 -2.89016,-10.5043 -5.73243,-22.1211 l -5.16601,-21.1211 4.33984,-3.8789 c 2.94214,-2.6288 6.0681,-3.9191 9.07617,-3.9531 z m -257.74804,44.0879 c 0.56575,-0.01 4.76444,2.8956 9.33203,6.4511 8.7115,6.7812 26.418,17.5352 28.87109,17.5352 0.78872,0 1.4336,0.2957 1.4336,0.6582 0,0.3624 -7.7987,14.4436 -17.33204,31.291 -17.28287,30.5423 -19.21056,35.496 -15.625,40.166 4.47691,5.831 14.05397,6.9574 18.68555,2.1973 1.61667,-1.6615 10.73815,-17.0091 20.27149,-34.1055 l 17.33398,-31.084 6.66602,0.7598 c 3.66667,0.4182 10.90957,0.7615 16.09375,0.7715 l 9.42578,0.012 -9.70703,19 c -10.57369,20.6961 -11.96981,26.8427 -7.17969,31.6328 4.33354,4.3336 8.16284,4.4318 30.93164,0.791 33.0614,-5.2864 34.19408,-5.1177 39.72851,5.9102 3.00335,5.9845 7.16195,18.6583 6.37891,19.4414 -0.75704,0.757 -130.45627,19.2434 -209.00391,29.791 -42.09533,5.6526 -64.66956,8.0837 -77.70117,8.3672 l -18.36914,0.4004 0.8418,-4 c 1.16381,-5.5339 5.16565,-17.4204 8.42383,-25.0176 1.77072,-4.1289 3.89766,-6.7979 6.07812,-7.6269 3.04322,-1.157 35.54549,-5.1485 60.72656,-7.4571 5.5,-0.5043 11.58116,-1.7165 13.51368,-2.6953 4.07273,-2.0629 2.72542,0.201 34.59765,-58.1894 13.50524,-24.7418 25.01825,-44.99 25.58399,-45 z m 281.6289,94.9765 9.32618,0.3438 1.87304,7.0234 c 1.03033,3.8627 1.43775,7.4588 0.9043,7.9922 -0.53345,0.5335 -18.35511,1.1902 -39.60352,1.459 l -38.63281,0.4883 0.4043,-7.8145 0.40429,-7.8164 28,-1.0098 c 15.4,-0.5547 32.19505,-0.8546 37.32422,-0.666 z" /></g></svg>
