<?xml version="1.0" encoding="UTF-8" standalone="no"?>
<!-- Created with Inkscape (http://www.inkscape.org/) -->

<svg
   version="1.1"
   id="svg1"
   width="360"
   height="360"
   viewBox="0 0 360 360"
   xml:space="preserve"
   xmlns="http://www.w3.org/2000/svg"
   xmlns:svg="http://www.w3.org/2000/svg"><defs
     id="defs1" /><g
     id="background"
     transform="matrix(1.0520845,0,0,1.0520845,-0.66436902,53.343559)"
     style="fill:#cd0000;fill-opacity:1"><path
       style="fill:#77b700;fill-opacity:1;stroke:none"
       d="M 12.411372,102.33637 121.00154,251.64785 322.8376,162.5331 295.69006,6.1396561 106.8376,-27.499689 Z"
       id="path2" /></g><g
     id="metric"
     transform="matrix(0.16135084,0,0,0.16135084,119.95495,253.63107)"><path
       style="fill:#f4f4f4;fill-opacity:1;stroke-width:0.591543"
       d="m 229.47667,169.99931 c -1.84862,-0.73498 -4.59234,-3.30385 -5.61232,-5.25462 -0.73007,-1.39634 -6.67454,-20.39037 -42.39192,-135.451597 -8.12847,-26.1853455 -14.8679,-47.698579 -14.97643,-47.807137 -0.25043,-0.250693 -0.6365,0.764287 -19.29388,50.743236 -15.08909,40.420311 -15.64108,41.766765 -18.10421,44.160643 -4.68114,4.549553 -2.2462,4.358042 -55.411228,4.358042 -46.840855,0 -47.353296,-0.01323 -49.888252,-1.239899 -3.512521,-1.700376 -5.50229,-5.143153 -5.50229,-9.520242 0,-3.75851 1.448946,-6.417329 4.686002,-8.598797 l 1.995928,-1.345036 h 43.869327 c 34.170043,0 44.089513,-0.163451 44.865083,-0.73942 0.7671,-0.569639 30.1362,-77.854637 40.95747,-107.779824 0.9355,-2.586995 2.5085,-5.623451 3.49563,-6.747725 4.55656,-5.189618 12.09244,-5.538759 17.0899,-0.791781 2.4818,2.357353 2.77681,3.101969 8.36799,21.118969 16.16848,52.101405 51.34921,164.526598 51.62782,164.984318 0.18008,0.29629 2.95382,-6.09258 6.16357,-14.19702 7.4947,-18.923746 30.62477,-77.590621 35.37349,-89.721005 3.94964,-10.089219 5.47521,-12.4406 9.1561,-14.112613 3.36326,-1.527704 6.62214,-1.393108 10.26892,0.424158 3.91145,1.949161 4.09021,2.257789 14.30095,24.695529 4.49836,9.88501 8.74059,19.073816 9.42714,20.419589 l 1.24827,2.446825 h 34.03104 c 37.68551,0 35.97769,-0.170631 39.08416,3.902251 1.22646,1.607994 1.68514,2.9775 1.87467,5.597658 0.33144,4.582621 -1.59505,8.126907 -5.42527,9.981097 -2.57545,1.246758 -2.89842,1.255488 -40.3811,1.092 -37.7255,-0.164585 -37.78874,-0.166852 -40.2354,-1.475363 -4.01814,-2.148985 -6.12255,-5.348155 -12.32686,-18.739526 -3.24732,-7.009038 -6.08321,-12.552333 -6.30195,-12.318438 -0.21868,0.233819 -6.52965,15.731415 -14.02431,34.438932 -34.23594,85.456966 -32.94536,82.307886 -34.5847,84.391966 -2.5431,3.23298 -9.2018,4.76325 -13.42334,3.08483 z"
       id="path1" /></g><g
     id="bike"
     transform="matrix(1.1864967,0,0,1.1864967,-29.099772,-81.41105)"><path
       style="display:inline;fill:#f4f4f4;fill-opacity:1;stroke-width:0.198135"
       d="m 210.17454,276.40727 c -2.71114,-0.47078 -4.08234,-0.89162 -4.36759,-1.34046 -0.28285,-0.44509 -0.16129,-1.37752 0.27366,-2.09888 2.13386,-3.53905 5.29048,-8.25906 6.01478,-8.99373 0.88614,-0.89884 0.91294,-0.90963 4.30564,-1.73296 1.87768,-0.45567 5.01885,-1.16027 6.98038,-1.56578 l 3.56642,-0.7373 0.76004,-1.07545 c 2.50329,-3.54215 2.99852,-6.32039 1.92287,-10.78724 -0.47223,-1.96101 -3.06847,-10.83844 -5.85155,-20.00837 -1.15758,-3.81408 -2.8202,-9.38661 -3.69473,-12.3834 -0.87452,-2.99678 -2.15705,-7.23191 -2.85004,-9.41138 -2.02957,-6.38298 -5.15147,-16.64705 -5.84564,-19.21904 -0.42965,-1.59191 -0.68209,-3.06112 -0.76391,-4.44596 l -0.1222,-2.06833 -2.27855,2.56326 c -1.25319,1.40978 -2.84996,3.18756 -3.54837,3.9506 -0.6984,0.76306 -2.4489,2.9031 -3.88998,4.75566 -1.44109,1.85255 -3.75763,4.70568 -5.14788,6.3403 -3.67238,4.31786 -8.65792,10.28934 -14.06078,16.84142 -6.35013,7.70082 -7.82747,9.40372 -11.09226,12.78569 -2.07432,2.14877 -3.0254,3.30459 -3.74986,4.55709 -0.53386,0.92297 -1.26879,2.16469 -1.63319,2.75938 -0.36439,0.59469 -0.5963,1.14475 -0.51535,1.22236 0.57242,0.54879 5.05697,2.06447 7.86774,2.65912 1.27705,0.27017 1.70263,0.45815 2.22902,0.98454 0.54881,0.54881 0.6506,0.79473 0.6506,1.57186 0,0.50669 -0.13054,1.17369 -0.29008,1.48222 -0.40392,0.78111 -1.42999,1.59884 -2.00617,1.59884 -0.26545,0 -1.12614,0.17831 -1.91263,0.39627 -3.23404,0.89619 -6.95765,0.11173 -9.49585,-2.00054 l -0.92508,-0.76983 -0.71661,1.28143 c -0.86991,1.55553 -1.47159,2.03281 -3.7459,2.97135 -7.00446,2.89054 -11.83593,1.97795 -15.77565,-2.97977 -0.64804,-0.81549 -1.49349,-2.147 -1.87877,-2.9589 -0.76434,-1.61068 -1.62221,-4.67646 -1.82387,-6.51792 l -0.12774,-1.16652 -1.40541,-0.64875 c -0.77297,-0.35682 -1.87633,-0.82745 -2.45193,-1.04587 l -1.04653,-0.3971 -0.2688,0.42917 c -1.24476,1.9874 -6.67838,10.9059 -7.0339,11.54514 -0.24869,0.44714 -0.42081,0.96722 -0.38249,1.15576 0.14884,0.73236 5.69307,2.25086 15.22695,4.17047 9.6729,1.94761 9.65972,1.94449 10.09661,2.3824 0.41629,0.41727 2.18772,5.71798 2.18772,6.54639 0,0.27689 -0.1867,0.59667 -0.4458,0.76356 -0.66821,0.43039 -3.30329,0.9108 -4.99584,0.9108 -1.91126,0 -5.49273,-0.53385 -5.6927,-0.84855 -0.0843,-0.13266 -0.15462,-0.53376 -0.15628,-0.89135 -0.002,-0.35758 -0.11449,-0.68877 -0.25071,-0.73597 -0.44536,-0.15433 -11.86359,-1.67361 -14.94445,-1.98847 -2.85059,-0.29133 -3.211,-0.28653 -6.93471,0.0924 -2.16032,0.21987 -7.44968,0.75644 -11.75416,1.1924 -4.30446,0.43594 -9.029956,0.9276 -10.501109,1.09255 -1.471148,0.16496 -2.825438,0.30078 -3.009528,0.30183 -0.26571,0.002 -0.32698,0.16974 -0.29721,0.81597 0.0538,1.16897 -0.45917,1.48688 -3.033557,1.87974 -2.480377,0.37852 -5.333176,0.27172 -8.090242,-0.30285 -2.505426,-0.52214 -2.807154,-0.7398 -2.807154,-2.02497 0,-0.90252 0.168352,-1.30336 1.55842,-3.71045 1.886136,-3.26612 6.402548,-11.84352 13.992403,-26.57383 1.824848,-3.54165 3.609291,-6.97433 3.965421,-7.62817 0.35612,-0.65384 0.87706,-1.63461 1.15763,-2.17948 l 0.51014,-0.99068 -0.58427,-1.64346 c -2.13189,-5.99667 -1.7483,-13.01414 1.011226,-18.49993 2.89569,-5.75652 7.57836,-9.65402 12.91715,-10.75129 4.78489,-0.98343 8.86015,-0.43892 12.41186,1.65838 0.67912,0.40102 1.22362,0.59288 1.48601,0.52359 0.22777,-0.0602 1.46301,-1.11387 2.74498,-2.34161 l 2.33083,-2.23225 -0.003,-1.08974 c -0.004,-1.27758 -0.54799,-3.59371 -2.0959,-8.91605 -1.01042,-3.47424 -1.12819,-4.07329 -1.16857,-5.94403 -0.0387,-1.79031 -0.29234,-2.66594 -1.15949,-6.43937 -1.76715,-7.68992 -1.41689,-8.54614 -3.16829,-14.35938 -0.21472,-0.62475 -0.37324,-0.73418 -1.72227,-1.18881 -1.78012,-0.59989 -2.18437,-1.12348 -1.71817,-2.22529 0.15198,-0.35916 0.47607,-0.83114 0.72021,-1.04883 0.24415,-0.21768 0.56852,-0.63677 0.72082,-0.93129 0.48546,-0.93878 -0.0808,-0.98178 -2.36512,-0.17959 -1.89298,0.66475 -2.16329,0.7075 -4.4943,0.71072 -2.3985,0.004 -2.52309,-0.0177 -3.7828,-0.63752 -2.49211,-1.22625 -4.46759,-3.84424 -4.68159,-6.20429 -0.26381,-2.90928 1.7197,-4.78168 5.66909,-5.35154 1.93821,-0.27966 3.32985,-0.20303 9.23817,0.50874 3.41166,0.411 5.58614,0.54588 10.00579,0.62061 6.03457,0.10205 7.35302,0.26826 9.08338,1.1451 1.26872,0.64291 2.75186,2.17095 3.03972,3.13174 0.38595,1.28817 0.0104,1.49053 -3.82631,2.06176 -1.7844,0.26568 -3.53739,0.5291 -3.89554,0.5854 -0.44362,0.0697 -1.07517,0.49898 -1.98135,1.34667 -0.73159,0.68438 -1.84284,1.54759 -2.46944,1.91823 -0.6266,0.37065 -1.13927,0.73021 -1.13927,0.79903 0,0.0688 0.16563,0.33776 0.36806,0.59764 0.20244,0.25989 0.48801,0.80737 0.6346,1.21661 0.26608,0.7428 0.26506,0.74559 -0.59018,1.61701 l -0.85671,0.87293 0.24364,1.01565 c 1.15768,4.82573 3.43626,12.33763 5.16451,17.66391 0.0667,0.20548 0.65393,0.5746 1.22666,0.85365 l 1.04133,0.50735 6.14216,-1.18175 c 5.87424,-1.13021 32.3685,-6.52278 39.42875,-8.02522 1.85256,-0.39424 6.35516,-1.33248 10.00579,-2.08498 3.65062,-0.7525 7.65314,-1.66172 8.89447,-2.02049 l 2.25697,-0.65229 0.0305,-1.18758 c 0.0196,-0.76122 0.16466,-1.41453 0.40409,-1.81976 l 0.37355,-0.63219 -1.15877,-5.11371 c -0.63731,-2.81254 -1.26319,-5.5595 -1.39085,-6.10438 -0.27175,-1.15995 -0.0391,-1.12179 -3.61401,-0.59289 -2.89266,0.42796 -4.10889,0.25799 -5.43638,-0.75974 -1.91962,-1.4717 -2.16404,-4.09117 -0.52458,-5.62193 1.56428,-1.46055 4.97469,-1.99758 16.61011,-2.61555 2.99844,-0.15924 3.11909,-0.18306 5.10006,-1.00661 1.11594,-0.46392 2.67624,-1.24664 3.46736,-1.73939 4.33172,-2.69799 12.72115,-7.69179 13.92085,-8.2864 3.46891,-1.71927 6.38293,-1.68135 7.88404,0.10261 0.40735,0.48411 0.53667,0.85006 0.53667,1.51863 0,1.50427 -0.65924,2.06602 -9.27765,7.90575 -1.28661,0.87179 -2.64437,1.74911 -3.01724,1.94959 -0.62902,0.33822 -0.65209,0.38344 -0.31969,0.6265 0.19706,0.14409 1.22129,0.32814 2.27607,0.40902 3.62239,0.27774 7.51673,-0.54812 9.95778,-2.11173 0.76235,-0.48831 2.74155,-2.29086 4.93782,-4.49708 4.34066,-4.36032 4.98837,-4.88588 6.41493,-5.20514 0.9761,-0.21844 1.15449,-0.20211 1.93839,0.17736 0.53668,0.25981 1.07441,0.73864 1.42112,1.26549 1.15724,1.75846 0.44521,3.52862 -2.96099,7.36136 -3.25093,3.65802 -3.84775,4.40673 -4.16306,5.22257 -0.2976,0.77002 -0.29876,0.98175 -0.0142,2.57575 0.41447,2.32165 0.50041,3.23256 0.74136,7.85803 0.21979,4.21923 0.41767,5.53735 1.00582,6.70003 0.45412,0.89774 0.46683,1.37947 0.0573,2.17144 -0.29216,0.56498 -0.37333,0.60067 -1.13927,0.50088 -0.68017,-0.0886 -0.99381,-0.29245 -1.78964,-1.16304 -1.22015,-1.33476 -2.15313,-2.76605 -2.62738,-4.03067 -0.32922,-0.87787 -0.36453,-1.49793 -0.31779,-5.58084 0.0522,-4.55962 0.0493,-4.59554 -0.39081,-4.90383 -0.59583,-0.41733 -2.25954,-0.39794 -3.12912,0.0365 l -0.69347,0.34643 -0.0128,3.66549 c -0.0146,4.17255 -0.19485,5.07925 -1.49097,7.49963 -1.97421,3.68664 -4.87209,6.16283 -9.20329,7.86405 -2.34725,0.92197 -3.53956,1.16919 -5.66774,1.17517 -1.63683,0.005 -1.97375,-0.0514 -2.34836,-0.39043 -0.68195,-0.61707 -0.99128,-1.38066 -0.99128,-2.44678 0,-1.46194 0.6705,-1.96745 3.68407,-2.7775 5.29916,-1.42443 6.69848,-2.11414 8.25163,-4.06717 1.87472,-2.35739 2.54777,-4.77679 2.16715,-7.79026 -0.39908,-3.15975 -0.57765,-3.3514 -3.60172,-3.86574 -1.85162,-0.31492 -18.20008,-0.33806 -19.11997,-0.0271 -0.55383,0.18725 -0.59406,0.26753 -0.58929,1.17612 0.003,0.53634 0.4748,3.02584 1.04887,5.53224 1.48506,6.48374 1.31192,5.97822 2.09804,6.1257 0.36948,0.0693 0.75855,0.23511 0.8646,0.36844 0.18499,0.23258 1.83225,6.4249 2.90037,10.90301 0.74008,3.10274 3.6577,13.69961 3.99256,14.50105 0.15677,0.3752 0.28504,0.93951 0.28504,1.25402 0,0.70721 0.48801,1.2458 2.43019,2.68212 0.82942,0.61337 1.79043,1.45161 2.1356,1.86275 1.43395,1.708 4.07388,7.24508 5.71662,11.99024 0.42344,1.22314 1.6335,4.54206 2.68901,7.37539 4.08975,10.97813 10.77883,29.70272 13.4837,37.7446 1.55776,4.63139 4.49589,13.27996 6.52919,19.21904 2.0333,5.93907 3.79403,11.26085 3.91276,11.82617 0.18152,0.8644 0.16486,1.10564 -0.10475,1.51713 -0.89598,1.36743 -5.4651,1.63894 -11.11552,0.6605 -1.73346,-0.30017 -3.2269,-0.59221 -3.31875,-0.64898 -0.25922,-0.1602 -0.19666,-1.07183 0.0807,-1.17553 0.13622,-0.0509 1.04526,-0.25647 2.02009,-0.45674 1.80158,-0.37013 2.02716,-0.50377 1.70654,-1.011 -0.1515,-0.23967 -0.8666,-0.10626 -4.50433,0.84036 -5.81143,1.51225 -10.85854,2.72174 -16.78067,4.02131 -2.71001,0.59469 -5.09533,1.17117 -5.30069,1.28108 -0.33685,0.18029 -0.36093,0.36201 -0.24599,1.85726 l 0.1274,1.65742 -0.57261,0.29582 c -0.31493,0.1627 -1.60868,0.52808 -2.875,0.81197 -2.851,0.63913 -4.52398,0.64246 -8.13059,0.0162 z m 33.84609,-19.03198 c 1.75034,-0.30089 1.83574,-0.34007 2.34602,-1.0764 1.01134,-1.45937 1.09888,-2.72628 0.40097,-5.80296 -0.52926,-2.33318 -4.02856,-14.42136 -4.23678,-14.63581 -0.0706,-0.0728 -2.15543,0.27426 -4.63276,0.77126 l -4.50425,0.90363 0.12299,0.51661 c 0.0677,0.28413 0.87814,3.10226 1.80111,6.26251 0.92297,3.16024 2.11517,7.26162 2.64935,9.11418 0.53417,1.85255 1.11543,3.64131 1.29167,3.97501 l 0.32046,0.60673 1.31238,-0.16124 c 0.72182,-0.0887 2.1298,-0.30177 3.12884,-0.47352 z m -139.718,-11.39091 c 5.1151,-0.45044 5.59231,-0.57975 6.41761,-1.73878 0.20989,-0.29475 1.91569,-3.07474 3.79067,-6.17773 l 3.40905,-5.64181 -0.86464,-0.16895 c -2.08158,-0.40676 -3.89495,-0.98886 -5.959,-1.91285 -1.21805,-0.54528 -2.27987,-0.92407 -2.35958,-0.84175 -0.24625,0.25429 -7.47754,11.30705 -9.019756,13.78635 -0.8016,1.28867 -1.45745,2.56324 -1.45745,2.8324 0,0.4413 0.0632,0.47917 0.64394,0.38562 0.35416,-0.0571 2.783776,-0.29219 5.399156,-0.5225 z m 132.98787,-15.18697 3.40797,-0.74896 -1.56339,-4.00741 c -1.84026,-4.71713 -3.29105,-8.0974 -5.83635,-13.59851 -2.55153,-5.51455 -4.73175,-10.61404 -6.44992,-15.08626 -1.72564,-4.49162 -4.40308,-10.47965 -5.546,-12.40347 -0.82375,-1.38657 -2.28753,-2.72683 -2.61763,-2.39674 -0.092,0.092 -0.0789,0.60655 0.0291,1.14344 0.76882,3.82312 1.32421,6.22286 1.89815,8.20146 0.36457,1.25684 1.29851,4.69249 2.07543,7.63479 1.43303,5.42705 4.3818,16.09977 7.3392,26.56328 l 1.62777,5.75916 1.11387,-0.1559 c 0.61264,-0.0857 2.64747,-0.49295 4.52185,-0.90488 z m -73.26033,-16.001 c 1.81467,-2.18185 4.67286,-5.66105 6.35152,-7.73155 5.56044,-6.85837 6.26233,-7.70634 8.61019,-10.40206 1.2813,-1.47115 4.0769,-4.81467 6.21245,-7.43004 2.13554,-2.61538 6.78863,-8.27707 10.34019,-12.58154 8.10126,-9.81866 8.0671,-9.77484 8.34472,-10.70144 0.28797,-0.96118 -0.034,-1.87533 -0.79498,-2.25737 -0.28433,-0.14273 -2.10961,-0.51008 -4.05618,-0.81632 l -3.53921,-0.5568 -2.30575,0.33973 c -5.78059,0.85172 -18.48224,2.80966 -25.88375,3.98994 -4.46793,0.71248 -10.66459,1.64927 -13.77034,2.08177 -7.85809,1.09429 -11.07915,1.57857 -11.89369,1.78819 -0.48999,0.12609 -0.91443,0.46266 -1.41897,1.12522 -1.32911,1.7454 -1.34035,1.3316 0.20634,7.59817 0.76447,3.09732 1.88835,7.45928 2.4975,9.69325 0.60917,2.23396 1.28993,4.99793 1.5128,6.14216 0.74973,3.84906 0.93041,4.32943 1.79419,4.7701 0.64295,0.32801 0.76339,0.48839 0.76339,1.01659 0,0.358 -0.173,0.81129 -0.40311,1.05624 l -0.40312,0.42909 1.19526,4.53704 c 0.65739,2.49537 1.19543,4.69306 1.19565,4.88376 2e-4,0.21114 0.15097,0.34674 0.38543,0.34674 0.50622,0 1.00114,0.72916 1.00494,1.48056 0.002,0.32992 0.0711,0.70688 0.15423,0.8377 0.0832,0.13082 1.53661,0.68643 3.2299,1.23469 2.4767,0.80191 3.34765,1.1857 4.45405,1.96269 0.75643,0.53122 1.49281,1.10741 1.6364,1.28042 0.48629,0.58595 1.20833,-0.0631 4.57995,-4.11693 z M 138.4884,204.53482 c -2.13764,-8.44364 -3.98441,-14.20135 -4.78844,-14.92898 -0.34087,-0.30849 -0.41199,-0.28317 -1.20848,0.43001 -0.46546,0.41678 -0.87588,0.82967 -0.91203,0.91753 -0.0361,0.0879 0.19301,0.41849 0.50926,0.73473 1.37021,1.37022 3.17484,4.4479 4.07875,6.95603 1.12154,3.11203 1.51481,5.13271 1.65815,8.51979 0.0622,1.47114 0.20179,2.78662 0.31005,2.92326 0.27208,0.34342 1.39103,0.62792 1.62694,0.41367 0.12179,-0.11062 -0.34427,-2.29282 -1.2742,-5.96604 z m -9.64259,-66.32916 c 1.92236,-0.71924 2.06978,-1.48978 0.17168,-0.89731 -1.26707,0.3955 -1.6322,0.6255 -1.6322,1.02812 0,0.36275 0.18588,0.3461 1.46052,-0.13081 z"
       id="path1-6" /></g></svg>
