<?xml version="1.0" encoding="UTF-8" standalone="no"?>
<!-- Created with Inkscape (http://www.inkscape.org/) -->

<svg
   version="1.1"
   id="svg1"
   width="360"
   height="360"
   viewBox="0 0 360 360"
   xml:space="preserve"
   xmlns="http://www.w3.org/2000/svg"
   xmlns:svg="http://www.w3.org/2000/svg"><defs
     id="defs1" /><g
     id="background2"
     style="fill:#cd0000;fill-opacity:1"
     transform="translate(3.0288461,4.1634616)"><path
       style="display:inline;fill:#d8d8d8;fill-opacity:0.735727;stroke:none;stroke-width:1.05208"
       d="M 335.4104,317.23016 286.14359,9.1135215 10.275055,255.01902 Z"
       id="path2-1" /></g><g
     id="background"
     transform="matrix(0.90597011,0,0,0.93440901,11.35684,90.470492)"
     style="fill:#cd0000;fill-opacity:1"><path
       style="fill:#77b700;fill-opacity:1;stroke:none"
       d="M 21.261352,119.15133 120.11654,260.49784 318.41261,168.72808 286.02947,15.984303 112.14759,-24.402196 Z"
       id="path2" /></g><g
     id="metric"
     transform="translate(-291.52785,-1256.8084)"
     style="fill:#cd0000;fill-opacity:1"><path
       d="m 442.99502,1567.4279 c -0.74148,-0.3228 -1.28353,-0.9338 -1.64913,-1.8589 -0.41867,-1.0594 -6.23878,-24.0102 -8.40071,-33.127 -0.19239,-0.8114 -0.41627,-1.1961 -0.51894,-0.8919 -1.23356,3.6555 -4.81787,12.9938 -5.40847,14.0909 -1.23036,2.2855 -1.75509,2.3606 -15.6589,2.2428 l -12.09149,-0.1024 -0.86057,-1.0009 c -1.16032,-1.3495 -1.15394,-3.1973 0.015,-4.3663 0.74034,-0.7403 1.22254,-0.8776 3.12138,-0.8886 1.23518,-0.01 6.25436,-0.047 11.15374,-0.089 l 8.90797,-0.076 1.35103,-3.5672 c 3.94078,-10.4053 6.93736,-17.5684 7.64819,-18.2825 1.14432,-1.1495 3.75121,-1.1259 4.92168,0.044 1.04378,1.0438 1.36728,2.1411 6.06009,20.5566 2.07491,8.1424 3.81637,14.9427 3.86989,15.1118 0.0535,0.1692 0.51023,-0.7137 1.01491,-1.962 4.96331,-12.2761 8.69255,-20.9449 9.26331,-21.5329 0.48419,-0.4989 1.16117,-0.7136 2.25044,-0.7136 2.12336,0 2.76196,0.67 5.10059,5.351 1.07824,2.1582 2.20873,4.205 2.5122,4.5483 0.49764,0.5631 1.42259,0.6244 9.43095,0.6244 h 8.87917 l 0.87562,0.8755 c 1.16891,1.1689 1.17533,3.0168 0.0152,4.3663 l -0.86046,1.0009 -10.34045,0.1091 c -12.50443,0.1318 -12.33864,0.1708 -14.04941,-3.2985 -0.63463,-1.287 -1.23981,-2.3342 -1.34485,-2.3272 -0.10504,0.01 -2.18661,4.7025 -4.6257,10.4344 -5.93973,13.9583 -6.01393,14.1102 -7.19086,14.7189 -1.22447,0.6331 -1.95471,0.6352 -3.39142,0.01 z"
       style="display:inline;fill:#ffcc00;stroke-width:0.267547"
       id="path1-9" /></g><g
     id="bike"
     transform="matrix(0.23011029,0,0,0.23011029,27.252912,-41.968303)"><path
       id="path8"
       style="display:inline;fill:#ffffff"
       d="m 935.57812,701.20703 c -4.55936,0.31341 -9.07785,1.05365 -13.60601,1.65241 -13.6847,1.97085 -27.36277,4.0088 -40.98545,6.37497 -3.08252,0.60766 -6.38086,0.92558 -9.01817,2.79449 -2.87121,1.96354 -4.46855,5.38273 -4.65208,8.80313 -0.24476,4.58804 0.46806,9.15504 0.75292,13.72557 0.0619,0.89936 0.12174,1.8003 0.11817,2.70217 -0.48786,0.4394 -0.82157,1.11711 -1.56445,1.11523 -6.18361,1.371 -12.47219,2.1923 -18.72746,3.15983 -1.77023,0.26024 -3.56499,0.53184 -5.2506,0.77189 -32.4969,4.66095 -65.01428,9.17351 -97.51676,13.79433 -59.80324,8.47395 -119.59587,17.02311 -179.37823,25.647 -12.34289,1.74176 -24.75711,3.59509 -37.16992,5.05664 -2.22335,0.2402 -4.44889,0.47639 -6.6836,0.58008 -1.04497,-1.07683 -1.24866,-2.66405 -1.71728,-4.03339 -1.94817,-7.65405 -3.11238,-15.47739 -4.71762,-23.20547 -0.94139,-4.43128 -1.76082,-8.90377 -3.10416,-13.23575 -0.50384,-1.29172 -1.07608,-2.60817 -2.12452,-3.55391 -0.68176,-0.65678 -1.17712,-1.59212 -2.18427,-1.76267 -1.30726,-0.53235 -2.64882,-0.99611 -4.07597,-1.02327 -3.9347,-0.1078 -7.8492,0.46759 -11.75663,0.85556 -12.69124,1.47628 -25.3507,3.24751 -37.94866,5.37974 -3.21022,0.61514 -6.49357,1.04204 -9.56968,2.18679 -1.03391,0.41741 -2.01329,1.02393 -2.8492,1.74826 -0.62452,0.79294 -1.45074,1.47463 -1.94798,2.33791 -0.29909,1.2004 -0.80967,2.38301 -0.97661,3.59465 0.57003,4.93443 1.59416,9.80221 2.3976,14.70155 4.43776,25.04443 8.9211,50.0811 13.5949,75.08277 0.50746,2.26672 0.69133,4.64339 1.63406,6.78476 1.65568,3.70979 5.20132,6.08527 8.75378,7.77496 4.36871,2.103 9.0475,3.47346 13.39766,5.62197 13.72021,6.49509 25.88195,15.91699 36.61467,26.57828 4.1216,4.00296 7.76015,8.47825 11.97728,12.38357 1.81473,1.6884 4.01142,3.07764 6.50831,3.41234 0.92118,0.0519 1.88858,0.0989 2.79971,-0.0219 0.95895,-0.38697 2.04375,-0.54249 2.92024,-1.0823 0.96573,-0.86172 2.22274,-1.46352 2.78887,-2.68294 0.57879,-0.83195 1.06625,-1.70602 1.26868,-2.70875 0.70598,-2.20232 0.26697,-4.543 -0.30281,-6.72497 -3.5787,-15.6279 -7.34044,-31.21518 -10.69658,-46.89309 -0.43833,-2.16174 -0.94009,-4.33387 -1.29121,-6.49909 1.2333,-1.53466 2.99606,-2.76855 5.00796,-2.91492 5.94068,-0.94115 11.91399,-1.65833 17.88071,-2.41125 0.44212,-0.0561 1.25815,-0.15158 1.84347,-0.22275 18.61038,-2.23723 37.25674,-4.16012 55.87811,-6.29979 58.13641,-6.55379 116.21535,-13.6297 174.19286,-21.47083 7.39397,-0.995 14.89619,-1.98171 22.22814,-2.94023 3.9095,-0.50476 7.95424,-1.02344 11.7793,-1.51953 10.7469,-1.33681 21.48632,-2.75306 32.26177,-3.84335 1.23591,-0.13202 2.48311,-0.14282 3.7226,-0.059 1.32869,1.22759 2.03302,3.3038 1.29678,5.00962 -6.87603,8.44525 -13.97314,16.70771 -20.99736,25.02949 -33.59749,39.56542 -67.57631,78.80443 -101.26124,118.29504 -23.31222,27.30884 -46.51982,54.70882 -69.36753,82.40832 -1.26651,1.5318 -2.53303,3.0636 -3.79955,4.5954 4.25635,5.6932 8.5929,11.3274 12.79737,17.0587 4.57433,6.65 8.60451,13.6684 12.23636,20.8731 0.99304,2.0923 2.09006,4.1666 2.77472,6.3808 0.13775,2.8996 1.2929,5.8375 3.55721,7.7224 0.74728,0.8043 1.82069,1.1821 2.76034,1.7034 1.14382,0.3233 2.28722,0.6501 3.48818,0.5948 3.43837,0.037 6.52607,-1.8731 9.04338,-4.0599 4.54611,-3.9857 8.49882,-8.5858 12.49503,-13.1072 11.21552,-12.9459 21.98816,-26.2669 32.79863,-39.5507 22.36361,-27.5593 44.47481,-55.32207 66.83428,-82.88493 15.27485,-18.90078 30.63499,-37.73269 45.96813,-56.58603 8.63316,-10.73275 17.28245,-21.45832 25.55421,-32.47359 1.71319,-2.37482 3.58783,-4.69157 4.68004,-7.43761 0.64801,-1.34692 1.66072,-2.82408 3.30313,-2.91877 0.83039,-0.0608 1.75275,-0.17063 2.53718,0.0632 0.48649,0.5356 1.01649,1.08148 1.37689,1.69853 -0.40065,3.0455 -1.5267,5.93671 -2.47026,8.84445 -1.72336,4.91629 -3.41408,9.92632 -3.7231,15.16788 -0.40008,5.99965 0.036,12.01338 0.27192,18.01111 0.37901,6.92179 0.83229,13.85622 1.89995,20.71094 0.73143,3.60712 1.64789,7.17583 2.4108,10.77726 3.19927,14.41934 6.36726,28.91288 9.50912,43.30282 12.59215,57.98064 25.14882,115.96894 37.75132,173.94744 5.66494,26.12 11.32013,52.2426 16.77212,78.408 1.65692,8.0871 3.38282,16.3569 4.87338,24.5521 0.32084,1.9542 0.75809,3.9145 0.89811,5.8835 -0.70067,1.0041 -2.10847,1.0974 -3.22085,1.2634 -17.16814,2.0522 -34.41261,3.3917 -51.58226,5.4322 -8.24406,1.0048 -16.51318,1.9431 -24.65456,3.6162 -3.16042,0.6963 -6.53599,1.5845 -8.77726,4.0849 -2.63013,2.8778 -4.40484,6.4 -6.24079,9.8072 -4.10377,7.9758 -7.74845,16.1881 -10.98334,24.5531 -1.37498,3.7731 -2.89066,7.5637 -3.38574,11.5752 -0.19857,1.7769 0.0816,3.5637 0.70901,5.2304 0.45497,0.9693 1.17179,1.8146 1.72758,2.7362 1.30556,0.9588 2.62965,1.9563 4.23451,2.3408 3.21606,0.8612 6.57292,0.98 9.87317,1.2967 9.4099,0.6742 18.84334,1.1353 28.2794,1.0866 4.34396,-0.02 8.64374,-0.7115 12.95889,-1.1297 70.79475,-7.8403 141.53772,-16.1459 212.29512,-24.3166 13.8781,-1.6371 27.7628,-3.2483 41.5882,-5.29 2.2638,-0.4 4.6731,-0.6083 6.6645,-1.8422 2.0306,-1.2889 3.5439,-3.3415 4.1735,-5.6633 0.9933,-3.6852 -0.046,-7.5072 -1.0379,-11.0789 -1.7543,-5.7529 -3.6914,-11.4621 -6.0489,-16.9985 -2.3433,-5.3949 -5.4618,-10.726 -10.3572,-14.1812 -4.5906,-3.3395 -10.3349,-4.5628 -15.913,-4.8152 -7.7433,-0.4002 -15.4639,0.639 -23.2028,0.6326 -0.6777,0.01 -1.4938,0.02 -1.8088,-0.7092 -1.6542,-3.3977 -2.6449,-7.0685 -3.784,-10.6596 -4.1431,-13.908 -7.8395,-27.9439 -11.6315,-41.9504 -6.2544,-23.451 -12.8404,-46.8122 -19.6777,-70.0996 -12.3287,-42.0232 -25.2751,-83.8647 -38.739,-125.53778 -9.4683,-29.2248 -19.1475,-58.38591 -29.5126,-87.30625 -4.5097,-12.4159 -9.0162,-24.84727 -14.3012,-36.9593 -2.4202,-5.32916 -4.9706,-10.61587 -7.974,-15.64451 -2.86806,-4.84818 -6.61336,-9.11758 -10.76791,-12.9012 -4.33017,-3.94259 -9.04498,-7.51196 -14.20041,-10.3082 -1.66515,-0.97094 -3.59614,-1.40057 -5.1963,-2.48655 -1.88561,-7.89323 -3.46142,-15.85664 -5.11524,-23.80078 -0.21431,-1.08095 -0.48859,-2.41788 -0.72595,-3.59721 -0.45866,-2.27603 -0.92609,-4.55856 -1.36587,-6.7641 -0.68354,-3.4448 -1.38301,-6.91293 -2.04351,-10.29416 -4.42917,-22.49295 -8.74018,-45.00917 -13.23118,-67.48967 -0.728,-3.57659 -1.61141,-7.39303 -4.29849,-10.04993 -2.27856,-2.33904 -5.59465,-3.37584 -8.80723,-3.32012 -0.23139,-0.003 -0.4627,-0.009 -0.69379,0.007 z m -509.68164,162.6582 c -18.56952,0.28515 -36.99964,5.34074 -53.22496,14.34925 -19.81953,10.95466 -36.34349,27.37311 -48.56962,46.34684 -18.81059,29.19939 -27.88076,64.46621 -25.9043,99.11548 1.48788,26.8765 8.94811,53.5981 22.84549,76.7363 10.64015,17.7645 25.17576,33.3484 42.79664,44.3293 10.77973,6.7321 22.66862,11.7343 35.07673,14.5192 7.37203,1.4368 14.9115,1.7283 22.40424,1.7984 9.49054,-0.01 19.02084,-0.4586 28.38047,-2.1108 4.18455,-0.8207 8.41153,-1.5821 12.44231,-3.004 1.26095,-0.4641 2.43938,-1.1658 3.47082,-2.0113 0.63809,-0.8271 1.46585,-1.5529 1.97883,-2.4482 0.34677,-1.3061 0.82929,-2.6085 1.09143,-3.9171 -0.31718,-1.1966 -0.48425,-2.4526 -0.89428,-3.6127 -0.68037,-1.2964 -1.50064,-2.5264 -2.64184,-3.4637 -2.80957,-2.3021 -6.05672,-3.9931 -9.22325,-5.7449 -11.39394,-5.9793 -22.26014,-12.9694 -32.43252,-20.8487 -5.10583,-3.9837 -10.01698,-8.2695 -14.17238,-13.2573 -9.11685,-10.6501 -15.75578,-23.5979 -18.10503,-37.4797 -2.29771,-13.0899 -0.63261,-26.7624 4.32682,-39.0639 4.11257,-10.3482 10.41123,-19.9999 19.1044,-27.0684 8.54149,-7.03883 19.14623,-11.26488 30.01764,-13.00848 6.14401,-0.99829 12.38935,-1.28973 18.60666,-1.17882 7.22069,0.27162 14.33388,1.67364 21.43112,2.93257 19.4957,3.65213 38.92767,7.64036 58.44263,11.19027 1.23865,0.21115 2.49085,0.43757 3.73956,0.17383 1.0204,-0.11045 1.99899,-0.52892 2.95547,-0.86692 0.8252,-0.7016 1.83471,-1.22818 2.54234,-2.04046 0.7036,-1.03087 1.45157,-2.03859 1.8064,-3.25251 1.14778,-3.46441 0.53046,-7.18167 0.0123,-10.70521 -1.08009,-6.27178 -2.66286,-12.46208 -4.71768,-18.48493 -3.06411,-8.48184 -6.94556,-16.64495 -11.06579,-24.65836 -4.20611,-8.09456 -8.76691,-16.04525 -14.33427,-23.29204 -12.49983,-16.57429 -28.88082,-30.32807 -47.74107,-39.09996 -15.71771,-7.35076 -33.08375,-11.17651 -50.44532,-10.87305 z m 524.75782,1.83594 c 0.73477,-0.0637 0.98702,0.79786 1.4366,1.21643 3.22072,4.37783 5.64332,9.27347 8.07512,14.1156 6.59424,13.63577 12.19977,27.72279 17.59341,41.86816 2.83112,7.45993 5.56123,14.95784 8.23471,22.47559 0.17788,0.49164 0.46573,1.32075 0.68575,1.94173 7.46062,21.08033 14.29741,42.37354 21.10531,63.67152 1.2593,3.9813 2.58,8.134 3.863,12.1812 4.4472,14.0611 8.8957,28.2819 13.2835,42.4241 1.7762,5.7529 3.6088,11.6671 5.3776,17.4159 7.558,24.6653 15.1154,49.3334 22.1906,74.1425 6.6457,23.8959 13.3344,47.7792 20.0748,71.6485 1.0905,4.1152 2.365,8.2037 2.9961,12.4221 0.2475,0.9837 -0.4545,1.8348 -0.7692,2.7129 -0.2556,0.6892 -0.7328,1.28 -1.4823,1.4434 -3.5202,1.2043 -7.2564,1.5633 -10.9266,2.0465 -8.9482,1.0259 -17.9186,1.8636 -26.8973,2.5724 -4.0436,0.2415 -8.1145,0.6468 -12.1595,0.2405 -1.6028,-5.2176 -2.5494,-10.6073 -3.6469,-15.9468 -0.6007,-3.0732 -1.1846,-6.1496 -1.7632,-9.227 -0.2544,-1.3567 -0.5476,-2.9496 -0.817,-4.3971 -6.5182,-35.5322 -12.786,-71.1119 -19.73986,-106.5622 -3.79665,-19.4719 -8.01705,-38.8568 -12.14272,-58.2607 -6.53881,-31.0964 -12.89365,-62.20413 -19.24689,-93.36029 -4.75219,-23.36993 -9.48511,-46.7438 -14.12386,-70.1365 -1.20301,-6.10742 -2.43917,-12.3633 -3.60093,-18.53861 -0.3667,-1.98258 -0.76087,-3.96368 -0.9811,-5.9692 0.75885,-1.12779 1.93474,-2.19209 3.38086,-2.14063 z M 455.2832,989.625 c -6.11148,0.008 -12.18245,1.19662 -17.92233,3.26894 -4.96326,1.61686 -9.6655,4.00328 -13.89669,7.0604 -8.97658,6.45466 -16.28812,15.24436 -20.86838,25.31796 -1.94416,3.9385 -3.44126,8.1511 -3.81997,12.5522 -0.53612,5.5465 -0.35517,11.1297 -0.38315,16.6942 0.0424,6.0527 0.002,12.2967 2.22908,18.026 1.43597,3.7193 3.19807,7.315 5.16633,10.7807 5.15148,8.795 11.94068,16.5895 19.67968,23.2005 4.0991,3.5374 8.62968,6.5299 13.31707,9.2247 12.72614,7.4123 25.71326,14.3637 38.68352,21.3364 21.78578,11.6365 43.66696,23.0986 65.7358,34.19 6.44322,3.1823 12.84739,6.4651 19.46967,9.264 1.84778,0.7848 3.83195,1.3065 5.85312,1.1563 1.09414,0.018 2.07918,-0.6155 3.12506,-0.8854 0.86209,-0.2973 1.72418,-0.5947 2.58627,-0.892 0.81075,-1.9817 1.62164,-3.9633 2.43164,-5.9453 -0.59687,-4.3585 -1.84917,-8.5868 -2.82031,-12.8691 -4.61287,-18.7837 -9.38362,-37.5276 -14.08594,-56.2891 -4.64185,-2.5877 -9.19337,-5.3492 -14.01041,-7.6077 -17.82688,-8.6896 -35.98434,-16.6764 -53.85084,-25.2834 -0.72937,-0.3481 -1.40296,-0.6669 -2.04627,-0.9811 -11.99713,-5.8014 -23.9944,-11.6284 -35.6374,-18.12 -1.88931,-1.1078 -3.84928,-2.1575 -5.59375,-3.4687 -0.65048,-1.5127 0.10989,-3.7292 1.82812,-4.086 4.44286,1.3233 8.65932,3.2929 12.89972,5.1447 2.89431,1.2985 5.7712,2.6352 8.6413,3.9862 0.43936,0.2039 1.20534,0.5712 1.76984,0.8377 1.02243,0.4828 1.82217,0.8669 2.81853,1.3461 19.38091,9.3822 38.76386,18.785 58.55739,27.2742 6.97015,2.9841 14.01614,5.8135 21.25751,8.0769 2.4414,0.8026 4.88236,1.6064 7.32329,2.4104 3.64173,-2.595 7.20306,-5.3059 10.89929,-7.8225 6.65051,-4.3243 15.02712,-6.0044 22.79235,-4.2408 7.97149,1.7091 15.00477,6.9322 19.24991,13.8533 4.19358,6.8876 6.07901,14.9655 6.51588,22.9567 0.40803,8.8742 -0.97468,17.9694 -4.88443,26.0022 -2.78531,5.3181 -6.55886,10.06 -10.62694,14.4494 -2.9346,3.0614 -6.03613,6.0833 -9.81988,8.0782 -3.87066,2.2583 -6.96639,6.0272 -7.85721,10.4777 -1.07484,4.9659 0.40558,10.0423 2.32283,14.6071 1.3129,3.1458 4.02723,5.716 7.35207,6.5918 3.67439,1.0122 7.51792,0.3258 11.2443,0.039 6.32377,-0.6123 12.55323,-1.9854 18.67795,-3.6444 13.33155,-3.7544 25.88805,-10.7559 35.42259,-20.8847 9.51102,-9.9779 15.8223,-22.6509 19.44886,-35.8692 2.29475,-8.1536 2.88837,-16.6785 2.93431,-25.115 -0.0494,-7.9315 -0.59268,-15.9311 -2.58098,-23.6355 -4.35838,-16.5496 -13.11316,-31.9186 -25.1797,-44.0602 -12.90726,-13.0895 -29.44463,-22.3842 -47.11414,-27.3031 -7.99733,-2.1606 -16.11693,-3.8297 -24.21013,-5.584 -27.31933,-5.7757 -54.73275,-11.0968 -82.16321,-16.31507 -12.26669,-2.28382 -24.52095,-4.69599 -36.89768,-6.31715 -4.63048,-0.58026 -9.29225,-1.0213 -13.96354,-0.98418 z m 135.57032,100.8301 c -5.65636,0.1013 -10.99461,2.8004 -15.06098,6.6247 -2.56911,2.296 -5.13797,4.5924 -7.7066,6.889 3.71321,15.0413 7.26049,30.1251 11.19715,45.1101 0.65377,2.2219 1.05186,4.6133 2.50029,6.4905 1.93875,2.7855 5.34075,4.4759 8.73769,4.2405 3.46154,-0.1895 6.44901,-2.2671 8.83379,-4.6374 3.98453,-3.9347 7.64669,-8.2738 10.2428,-13.2643 4.98232,-9.4005 6.83743,-20.6629 4.09605,-31.0318 -1.77801,-6.5772 -5.39786,-12.9235 -11.09146,-16.8522 -3.42292,-2.3706 -7.57737,-3.6802 -11.74873,-3.5691 z m -262.5,45.7226 c -1.70317,1.0846 -2.68258,2.933 -3.76368,4.5801 -5.34808,8.8839 -10.34978,17.9705 -15.40607,27.022 -10.16901,18.357 -20.11492,36.8366 -30.26775,55.2026 -0.23447,0.4275 -0.65,1.1648 -0.95384,1.7109 -2.54323,4.4735 -4.95554,9.0357 -7.83627,13.3052 -0.52563,0.8812 -1.71856,0.8121 -2.59085,1.1183 -6.04189,1.382 -12.25907,1.5901 -18.39834,2.2855 -14.82847,1.5299 -29.65239,3.1538 -44.40862,5.2804 -2.99733,0.5115 -6.07066,0.7963 -8.95045,1.8173 -4.56853,1.8105 -7.74069,5.916 -9.86784,10.1975 -2.26621,4.7945 -4.04324,9.8042 -5.79692,14.804 -1.91217,5.5874 -3.6758,11.2429 -4.76603,17.0557 -0.81281,3.8618 -1.62578,7.7236 -2.43866,11.5854 10.79819,-0.2551 21.59881,-0.4288 32.39538,-0.7387 12.6144,-0.5798 25.16689,-2.0382 37.70414,-3.4942 25.49134,-3.0549 50.91758,-6.6155 76.35465,-10.0847 42.17315,-5.8092 84.33118,-11.7336 126.46509,-17.8191 14.10447,-2.0715 28.22282,-4.0602 42.29285,-6.3565 1.68709,-0.2552 3.3528,-0.6321 4.91795,-1.3259 0.59667,-0.2761 1.32407,-0.4021 1.8436,-0.7668 0.73762,-1.397 1.55577,-2.7657 2.24328,-4.1805 0.38593,-1.6993 0.55517,-3.4515 0.24595,-5.1789 -0.86565,-4.7188 -2.51062,-9.2522 -4.17021,-13.7397 -1.71057,-4.4635 -3.67083,-8.8707 -6.29983,-12.8756 -2.3604,-3.6147 -6.00511,-6.4038 -10.20523,-7.4924 -5.26638,-1.3993 -10.78526,-0.8012 -16.12611,-0.223 -11.49456,1.3775 -22.85779,3.6821 -34.35959,5.0021 -2.49649,0.2217 -5.0467,0.5851 -7.53629,0.143 -0.46449,-0.2246 -1.0648,-0.6486 -0.87142,-1.2302 0.5633,-3.5213 2.10277,-6.7887 3.50725,-10.037 3.69213,-8.0546 7.89977,-15.8581 11.88507,-23.7687 3.19695,-6.2558 6.39248,-12.5124 9.58847,-18.7688 -8.85398,-0.034 -17.70884,0.025 -26.56226,-0.071 -5.50242,-0.1097 -11.00146,-0.4495 -16.4603,-1.1629 -2.70798,-0.3088 -5.41595,-0.6177 -8.12392,-0.9265 -8.28233,14.8034 -16.48266,29.6529 -24.82229,44.4241 -4.4374,7.75 -8.85746,15.5175 -13.66404,23.0466 -0.3649,0.5044 -0.62002,1.2282 -1.35547,1.2226 -1.54272,0.2326 -3.19219,-0.2404 -4.37304,-1.2617 1.07704,-3.7782 2.9731,-7.2548 4.72228,-10.7528 6.29528,-11.987 13.15372,-23.665 19.71858,-35.504 3.04723,-5.5126 6.196,-10.9727 9.06499,-16.5811 0.37742,-1.0464 0.90555,-2.0818 1.1836,-3.1367 -0.34368,-1.4479 -0.59517,-2.9356 -0.99963,-4.358 -0.83008,-1.1306 -1.44501,-2.4574 -2.64537,-3.2531 -1.48168,-1.3178 -3.42913,-1.9939 -5.35893,-2.3016 -5.41281,-2.6404 -10.50169,-5.8907 -15.56248,-9.142 -4.15097,-2.6847 -8.15286,-5.5889 -12.05402,-8.6233 -2.66112,-1.9264 -5.26281,-4.0002 -8.22767,-5.4458 -1.58598,-0.7621 -3.38135,-0.8605 -5.07019,-1.296 -0.64726,-0.3485 -1.1246,0.1057 -1.61655,0.4909 -0.74099,0.5342 -1.48198,1.0685 -2.22297,1.6027 z" /><path
       id="path6"
       style="display:inline;fill:#b3b3b3"
       d="m 905.25,623.51953 c -7.12834,0.24677 -14.24348,0.99645 -21.26944,2.22372 -3.30238,0.64648 -6.83559,1.27564 -9.46036,3.54599 -1.05061,0.8997 -1.7838,2.09815 -2.4099,3.32138 -0.38161,0.83447 -0.4718,1.80282 -0.59856,2.71045 -0.14407,3.00223 0.47574,5.97608 0.82929,8.94631 1.83537,12.49019 3.92748,24.944 6.30825,37.34196 0.63072,2.88008 1.0415,5.8422 2.13122,8.59536 1.39026,3.38384 4.58242,5.86401 8.15711,6.54486 3.90502,0.7755 7.90523,0.15873 11.81864,-0.23649 6.50573,-0.83251 13.06393,-1.53972 19.41563,-3.23346 1.66942,-0.42645 3.17752,-1.26023 4.58259,-2.23769 0.95873,-0.41338 1.17579,-1.52757 1.72795,-2.32512 0.47436,-0.73993 0.8501,-1.51706 0.9398,-2.40211 0.59635,-2.74027 0.0754,-5.56143 -0.184,-8.31296 -1.31607,-10.72196 -3.07527,-21.38506 -4.9563,-32.02082 -0.9389,-4.98137 -1.76301,-9.99915 -3.128,-14.88633 -0.51053,-1.60764 -1.17306,-3.23928 -2.41865,-4.41895 -0.6918,-0.88672 -1.7154,-1.43665 -2.69082,-1.95429 -2.73121,-1.28895 -5.84229,-1.23086 -8.79445,-1.20181 z m -432.4707,21.05664 c -6.89733,0.17536 -13.7744,0.81555 -20.63845,1.48546 -3.03686,0.36416 -6.12203,0.55788 -9.08421,1.35634 -1.93393,0.49912 -3.43326,1.8784 -5.10084,2.90316 -0.70529,0.22619 -0.73954,0.87724 -0.79752,1.51325 -0.24267,1.88611 -0.7406,3.77602 -0.38999,5.68207 1.19518,8.08082 2.74159,16.10535 4.1946,24.1429 2.76673,14.92949 5.63769,29.83955 8.36719,44.7762 0.0666,0.39439 0.21104,1.182 0.30743,1.72691 0.22654,1.24714 0.21374,2.57211 0.90741,3.68129 0.39606,1.10038 1.22677,1.95408 1.95604,2.83593 1.29672,0.98211 2.6975,1.94953 4.34082,2.19153 2.76303,0.59994 5.59639,-0.022 8.36394,-0.29914 7.96771,-1.07639 15.96416,-1.99379 23.87443,-3.44876 1.61149,-0.24279 3.08799,-0.91688 4.53458,-1.63518 0.77556,-0.36193 1.55112,-0.72386 2.32668,-1.08579 0.37589,-1.81247 0.87719,-3.6117 1.17542,-5.4324 0.0101,-3.19938 -0.7821,-6.32956 -1.2667,-9.47635 -3.05303,-16.77414 -6.38168,-33.49725 -9.8391,-50.19223 -1.0308,-4.76227 -1.93766,-9.55911 -3.23863,-14.25711 -0.42054,-1.43386 -1.29382,-2.66448 -1.97552,-3.9798 -1.39826,-0.71332 -2.64549,-1.78535 -4.2129,-2.09765 -1.22495,-0.36885 -2.53404,-0.38778 -3.80468,-0.39063 z" /><path
       id="path5"
       style="display:inline;fill:#4d4d4d"
       d="m 406.42969,565.33594 c -9.74489,0.15381 -19.67723,1.36544 -28.66407,5.33789 -6.36355,2.81259 -12.11754,7.30727 -15.71506,13.32996 -4.79685,7.91135 -6.5786,17.61474 -4.824,26.70715 1.01405,5.83583 3.48989,11.53959 7.72371,15.76304 4.89916,4.98585 11.57738,7.71406 18.24849,9.39339 6.5691,1.62442 13.30163,2.52579 20.04091,3.06258 12.57606,0.86638 25.1892,0.009 37.72914,-1.01337 24.28161,-2.11953 48.45283,-5.29588 72.63861,-8.27986 11.04839,-1.43717 22.12441,-2.72487 33.09963,-4.66275 4.49757,-0.87419 9.11774,-1.69551 13.20856,-3.85835 3.45723,-1.79803 6.14769,-5.11757 6.8532,-8.9873 0.56003,-3.23168 0.38637,-6.56788 -0.17701,-9.78848 -1.31148,-7.05998 -5.36077,-13.83629 -11.68284,-17.46507 -3.70406,-2.15868 -8.05852,-2.64658 -12.2186,-3.29448 -13.35984,-1.73741 -26.82927,-2.35137 -40.25057,-3.42885 -4.47663,-0.34199 -8.95084,-0.71513 -13.42221,-1.12019 -0.30022,-0.0261 -1.19489,-0.11486 -1.72333,-0.16502 -10.47827,-0.97325 -20.93738,-2.35863 -31.1964,-4.74325 -11.90689,-2.88329 -23.97104,-5.2571 -36.19404,-6.27032 -4.48016,-0.37806 -8.97768,-0.57084 -13.47412,-0.51672 z m 198.56054,664.16016 c -19.79633,0.2506 -39.57517,1.1682 -59.36002,1.8362 -1.38651,0.05 -2.77301,0.1001 -4.15951,0.1501 -0.56423,10.9461 -1.13196,21.8919 -1.69726,32.8379 19.24973,-0.2621 38.5008,-0.4464 57.74958,-0.7653 9.16149,-0.1999 18.32901,-0.3701 27.47566,-0.9538 2.20518,-0.186 4.53428,-0.2948 6.4728,-1.4745 0.74857,-0.4552 1.74349,-0.6336 2.11127,-1.5167 0.71965,-1.1603 1.68491,-2.2015 1.96786,-3.5742 1.03219,-3.2066 0.39694,-6.6412 -0.22002,-9.8664 -1.01987,-4.5141 -2.34303,-8.9542 -3.49516,-13.4358 -0.23421,-0.878 -0.46841,-1.756 -0.70262,-2.634 -6.3016,-0.1984 -12.59991,-0.5353 -18.9039,-0.6352 -2.41304,-0.013 -4.82577,0.01 -7.23868,0.032 z" /><path
       id="path3"
       style="display:inline;fill:#4077bf;fill-opacity:1"
       d="m 1036.4473,493.5 c -4.9273,0.24611 -9.3786,2.69422 -13.5326,5.15337 -7.5343,4.63121 -14.6089,9.9576 -21.7159,15.20801 -8.09178,6.0261 -16.09875,12.17461 -24.13435,18.25581 -0.31175,0.23849 -0.96014,0.72099 -1.40076,1.05289 -9.58063,7.15595 -19.22853,14.28829 -29.6034,20.26628 -7.81113,4.50571 -16.19731,8.07877 -24.99492,10.12782 -11.29186,2.6693 -22.91841,3.41958 -34.47085,4.03627 -14.00703,0.68342 -28.03283,1.06187 -42.01841,2.1284 -5.80791,0.53807 -11.74878,1.00763 -17.21673,3.19303 -4.08525,1.64235 -7.44916,4.66331 -10.15788,8.07494 -3.57632,4.79358 -4.76794,10.99974 -4.41506,16.87898 0.40787,6.48024 2.93467,13.08951 7.96942,17.37029 4.27081,3.69309 9.99374,5.21336 15.54516,5.35374 4.52739,0.11973 9.02841,-0.51126 13.53882,-0.80028 12.16917,-1.00569 24.35057,-1.86961 36.50838,-3.00573 14.8867,-1.45318 29.81756,-3.35973 44.2299,-7.49109 11.39071,-3.23891 22.27884,-8.14291 32.37104,-14.32541 14.59097,-8.88593 27.83657,-19.74131 40.98534,-30.59277 12.0779,-10.06398 24.0469,-20.26991 35.5849,-30.95205 4.209,-4.01519 8.6302,-7.97096 11.6915,-12.97742 2.1702,-3.5696 3.1844,-7.94611 2.2071,-12.06055 -0.9348,-4.11559 -3.4483,-7.69583 -6.3262,-10.70312 -2.7656,-2.81113 -6.69,-4.43069 -10.6445,-4.19141 z m 93.6523,15.8457 c -0.8558,0.0308 -1.7029,0.0969 -2.4578,0.54136 -2.5571,0.94238 -4.3991,3.0683 -6.3147,4.91227 -5.429,5.55481 -10.4635,11.47651 -15.7436,17.17036 -9.2144,10.03489 -18.4846,20.03891 -28.3765,29.41508 -3.2361,2.98188 -6.4837,6.02958 -10.3496,8.1914 -9.4611,5.68452 -20.2254,8.67973 -30.9622,10.86307 -14.9369,3.01245 -30.1063,4.59744 -45.19678,6.61389 -1.24822,0.73985 -2.40082,1.7204 -3.61244,2.55198 -6.6648,4.87857 -13.4036,9.65655 -20.03226,14.58365 -2.46686,1.88003 -5.08656,3.88513 -6.29341,6.8456 -0.50411,1.29973 -0.74738,2.72448 -0.67251,4.11548 0.12753,1.12203 0.35861,2.21574 0.86207,3.23412 0.37195,0.87923 0.98735,1.66818 1.62209,2.37322 0.70561,0.72124 1.44908,1.3912 2.38702,1.7936 2.68611,1.51115 5.8854,1.31285 8.86443,1.31367 7.43825,0.0378 14.85559,-0.65174 22.25818,-1.30393 11.99161,-1.19336 23.95641,-2.69037 35.85591,-4.59894 13.5563,-2.25253 27.1375,-5.0583 39.9107,-10.25194 9.5122,-3.84798 18.3788,-9.28857 26.0549,-16.10359 9.1338,-8.10366 16.9474,-17.59393 23.9133,-27.59433 5.9188,-8.63559 11.31,-17.70849 15.2074,-27.44896 2.1016,-5.4813 3.9097,-11.33734 3.2712,-17.27706 -0.3062,-2.91125 -1.3752,-5.90171 -3.6798,-7.82264 -0.7752,-0.78785 -1.8707,-1.14272 -2.789,-1.7365 -1.2411,-0.16637 -2.4682,-0.60476 -3.7266,-0.38086 z" /><path
       id="path16"
       style="display:inline;fill:#1a1a1a;fill-opacity:1"
       d="m 1040.2542,476.6622 c -6.6194,-0.33448 -14.0369,1.05605 -20.5137,4.08203 -5.7037,2.66479 -55.92508,38.33104 -68.34959,48.54101 -1.2917,1.06148 -2.59608,1.92969 -2.89844,1.92969 -0.30237,0 -5.54447,2.97744 -11.65039,6.61719 -14.44916,8.61319 -22.76253,10.48284 -53.76953,12.09179 -55.55475,2.88274 -62.67249,4.2735 -74.33985,14.51758 -16.76882,14.72322 -16.8215,45.57549 -0.10547,61.70703 8.18942,7.90308 16.27389,10.77139 31.7793,11.27344 l 13.33398,0.43164 1.56836,9.01367 c 0.86345,4.95763 3.05952,17.40217 4.87891,27.6543 l 3.30859,18.64063 -4.67578,5.17382 c -5.897,6.52728 -8.41406,12.51618 -8.41406,20.01563 v 5.88867 l -7.66602,0.94336 c -4.21666,0.51821 -54.16667,7.4998 -111,15.51563 -167.45606,23.61815 -197.7984,27.83022 -198.1289,27.49804 -0.1723,-0.17318 -1.60809,-7.18209 -3.19141,-15.57422 -3.26523,-17.30683 -5.05011,-21.4785 -12.00976,-28.07422 -4.91871,-4.6615 -4.93071,-4.69692 -9.90235,-32 -2.73743,-15.03333 -5.86341,-30.85064 -6.94726,-35.14843 -1.07961,-4.281 -1.7808,-7.91617 -1.56446,-8.10352 l 0.002,-0.002 c 0.22444,-0.16088 12.1082,-1.89282 26.4082,-3.84766 14.3,-1.95485 28.10882,-4.14603 30.68555,-4.86914 7.95693,-2.23298 19.0133,-9.74879 23.26172,-15.8125 3.64455,-5.20182 4.03892,-6.74405 3.92187,-15.33398 -0.20131,-14.77344 -7.65128,-30.53902 -17.64062,-37.32618 -7.60677,-5.16831 -15.72972,-7.26599 -34.36329,-8.87695 -52.39075,-4.52942 -62.33448,-5.69522 -80.89062,-9.47656 -23.8919,-4.86865 -54.16775,-6.61557 -68.01172,-3.92383 -18.62231,3.62082 -33.29731,14.58723 -40.72266,30.42969 -3.22653,6.88399 -3.57421,9.11216 -3.57421,22.95703 0,14.20944 0.28323,15.90833 3.85546,23.18359 9.45852,19.26341 26.36604,27.29211 62.36133,29.61133 l 14.2168,0.91602 2.90035,15.47661 c 4.80945,25.66745 7.6726,42.98189 8.69531,52.57812 0.95384,8.95016 0.90103,9.16939 -3.21875,13.41993 -5.29742,5.46555 -6.76804,10.59613 -5.42187,18.9082 1.62242,10.0178 14.57409,83.51943 15.27929,86.71094 0.59501,2.6928 -0.006,2.83644 -15.02343,3.61328 -23.99176,1.24104 -40.49133,6.14222 -60.66211,18.01758 -23.07593,13.58574 -45.89741,38.18565 -59.42774,64.05859 -28.78574,55.04462 -26.69264,127.25343 5.22852,180.36523 3.60255,5.9941 6.55078,11.5107 6.55078,12.2578 0,0.7471 -12.30239,24.2693 -27.33789,52.2715 l -27.33594,50.9121 -12.99609,0.9414 c -18.64847,1.3489 -45.2849,4.4883 -52.63867,6.2051 -8.22504,1.9201 -15.9968,7.6564 -20.28321,14.9707 -7.01914,11.9772 -14.07422,37.2192 -14.07422,50.3515 0,7.0978 0.45681,8.4354 4.33204,12.6543 2.57795,2.8065 6.27677,5.1524 9.13086,5.793 2.63862,0.5926 17.63927,0.6124 33.33398,0.043 25.0463,-0.9086 39.37917,-2.5199 117.20312,-13.166 48.76666,-6.6718 108.65387,-14.8254 133.08399,-18.1211 26.19467,-3.5338 46.04908,-6.835 48.39258,-8.0469 11.965,-6.1873 12.10434,-24.4289 0.38086,-49.8301 -5.87752,-12.7348 -9.87004,-17.8764 -17.23633,-22.1934 -7.80069,-4.5715 -18.00412,-5.422 -33.24219,-2.7753 -6.57492,1.1419 -12.17374,1.8555 -12.44141,1.5878 -0.26768,-0.2676 3.01118,-7.1041 7.28711,-15.1933 l 7.77539,-14.707 7.6504,-2.8067 c 4.20794,-1.5433 10.20808,-4.7585 13.33398,-7.1445 l 5.68359,-4.3379 46.125,22.7363 46.125,22.7383 -1.57422,4.666 -1.57421,4.668 -17.88477,1.0254 c -20.36502,1.1688 -22.69119,2.1537 -27.55273,11.6679 -2.61421,5.1162 -3,7.9118 -3,21.7403 0,13.8251 0.37363,16.5336 2.90039,21.0293 5.14827,9.1601 7.37672,9.4959 59.24609,8.9199 47.39184,-0.5262 49.8346,-0.8202 56.36328,-6.8047 12.13828,-11.1266 9.9457,-40.4385 -3.89648,-52.0859 -3.94988,-3.3236 -4.89017,-3.4922 -19.46094,-3.4922 -8.42034,0 -14.99453,-0.5096 -14.60938,-1.1328 0.38514,-0.6232 5.97064,-1.4805 12.41211,-1.9043 23.64716,-1.5558 41.6381,-10.0813 58.09766,-27.5293 13.64932,-14.469 22.9837,-33.9723 26.6582,-55.7012 l 1.62305,-9.5976 22,-27.7051 c 32.53741,-40.9753 148.1958,-184.18849 154.64062,-191.48242 0.51082,-0.57812 2.58737,7.82318 4.61524,18.66797 3.4717,18.56617 25.50402,118.96335 36.07422,164.38475 2.64518,11.3667 8.63912,39.2667 13.32031,62 4.68119,22.7334 10.93749,52.6961 13.90234,66.584 2.96485,13.888 5.25358,25.3605 5.08594,25.4961 -0.16763,0.1357 -14.10598,1.8463 -30.97265,3.8007 -37.39965,4.3337 -42.57334,5.673 -49.78125,12.8809 -6.44974,6.4497 -16.57805,26.4757 -23.45118,46.3672 -5.59946,16.2053 -6.16227,24.737 -1.98242,30.0508 5.39757,6.8619 9.30683,7.8293 35.21094,8.7207 27.91887,0.9606 20.87851,1.4206 80.00391,-5.2188 25.66667,-2.8822 58.06675,-6.495 71.99995,-8.0293 76.6261,-8.4377 152.5353,-17.5522 156.2676,-18.7636 2.3467,-0.7616 6.0954,-3.4702 8.332,-6.0176 5.2219,-5.9474 5.3801,-13.0283 0.6543,-29.3887 -7.572,-26.2135 -18.487,-41.7674 -32.664,-46.543 -4.9771,-1.6766 -10.9189,-2.4146 -18.9219,-2.3496 -9.3824,0.077 -11.668,-0.2843 -11.668,-1.8496 0,-1.0706 -2.9671,-12.5497 -6.5937,-25.5097 -3.6267,-12.96 -11.1605,-40.0638 -16.7422,-60.2305 -19.1009,-69.012 -61.6881,-201.51107 -84.1778,-261.89452 -11.2412,-30.18295 -22.6144,-47.19984 -37.47063,-56.06836 l -6.63672,-3.96093 -2.07226,-11.3711 c -9.68613,-53.13109 -20.18129,-102.6713 -22.73633,-107.32031 -2.5145,-4.57526 -8.86221,-10.26136 -12.99414,-11.63867 -0.7133,-0.23776 -2.76716,-8.52692 -4.56446,-18.42188 -1.7973,-9.89496 -3.55193,-19.54824 -3.89843,-21.45117 l -0.63086,-3.46094 25.98828,-0.89843 c 58.56115,-2.02792 97.66985,-8.95574 125.21285,-22.17774 11.7959,-5.66262 14.6841,-7.79116 24.791,-18.27539 15.7733,-16.36237 34.6727,-45.0142 39.2754,-59.54297 4.7513,-14.99781 5.334,-21.58951 2.709,-30.61914 -4.8731,-16.76284 -20.5121,-23.3613 -36.125,-15.24219 -4.1071,2.1358 -24.6926,22.79269 -44.5605,44.71289 -9.1696,10.11674 -12.9311,13.21095 -20.6583,16.99805 -5.1954,2.54661 -11.5485,5.0349 -14.1152,5.5293 -4.3824,0.84414 -3.7572,0.0275 10.2442,-13.39258 16.9566,-16.25259 20.4238,-21.88925 20.4238,-33.20898 0,-15.09521 -8.5517,-29.76285 -20.8106,-35.69727 -3.0197,-1.46184 -6.7041,-2.28369 -10.6757,-2.48437 z m -3.2657,25.51171 c 2.2834,-0.0451 3.702,1.16296 5.2207,3.09375 4.9862,6.33882 3.8703,9.8773 -6.1367,19.46875 -13.8769,13.30081 -46.18904,40.59372 -60.99995,51.52344 -30.66788,22.63137 -49.56411,28.79788 -100.66602,32.85547 -14.3,1.13544 -29.30065,2.335 -33.33398,2.66602 -9.9163,0.81385 -15.48734,-1.68019 -18.1875,-8.14258 -2.5134,-6.01543 -1.72545,-14.17067 1.73828,-17.99805 6.10129,-6.74184 8.1629,-7.07286 56.44922,-9.08398 48.81717,-2.03323 60.7413,-6.63119 105.33398,-40.61719 33.26117,-25.34977 44.74677,-33.65035 50.58197,-33.76563 z m 93.7774,15.8379 c 0.5382,-0.0172 0.9746,1.6758 0.9746,3.80859 0,12.20627 -16.6438,40.45837 -34.3692,58.33984 -19.4579,19.62923 -40.0047,26.76984 -94.9648,33.00781 -9.89997,1.12366 -21.89933,2.02436 -26.66599,2.00196 -9.92544,-0.0467 -10.67979,1.17194 7.41016,-11.96485 l 10.74219,-7.80078 16.70114,-2.15429 c 33.4792,-4.31577 49.3448,-8.7832 63.3398,-17.83985 6.9846,-4.51994 23.3965,-21.11438 47.8067,-48.33984 4.4,-4.90748 8.45,-8.98364 9,-9.05664 0.01,-0.001 0.017,-0.002 0.025,-0.002 z m -719.08398,56.0625 c 11.38913,0.3482 24.63365,2.27475 39.39063,5.80078 16.71678,3.99429 28.51877,5.44181 65.15625,7.99609 20.10106,1.4014 30.52322,2.68277 33.5625,4.125 5.12332,2.43118 8.61523,8.82909 8.61523,15.78711 0,7.57215 -0.0331,7.57921 -68.46484,16.03516 -51.76411,6.39637 -74.20966,7.89461 -90.47071,6.03906 -24.0995,-2.74999 -32.38866,-8.40535 -34.06054,-23.23828 -0.84299,-7.47897 1.68673,-15.91426 6.375,-21.25391 7.08643,-8.071 20.9146,-11.87137 39.89648,-11.29101 z m 493.70117,58.13671 c 2.83444,-0.0664 4.82215,0.0742 5.10547,0.51563 1.66585,2.5957 9.49957,50.76529 8.41406,51.73828 -0.63969,0.57338 -6.26276,1.7272 -12.49609,2.56445 -15.08047,2.02556 -17.03053,1.93655 -17.83984,-0.81445 -1.81633,-6.1741 -8.92225,-48.82663 -8.37305,-50.25781 0.56614,-1.47536 16.68614,-3.54693 25.18945,-3.7461 z m -431.02148,21.17383 c 0.89845,0.88929 14.6394,70.33784 14.03711,70.94531 -0.24433,0.24643 -6.64296,1.27736 -14.21875,2.29102 -15.99885,2.1407 -15.77344,2.12278 -15.77344,1.29102 0,-0.35033 -3.02379,-16.62828 -6.71875,-36.17188 -3.69496,-19.5436 -6.54366,-35.70164 -6.33203,-35.90625 0.81914,-0.79198 28.33306,-3.11517 29.00586,-2.44922 z m 461.61719,56.50391 c 3.23993,-0.007 3.70579,0.64319 5.00585,6.99219 0.78837,3.85 5.92885,30.10065 11.42383,58.33398 5.49499,28.23333 10.63967,52.91874 11.43164,54.85742 0.9676,2.36858 3.3983,4.2745 7.41016,5.80664 3.2837,1.25406 9.58941,5.63049 14.01367,9.72656 6.66556,6.17116 9.25996,9.97506 15.14255,22.19532 16.9913,35.29684 73.3861,210.27083 101.291,314.27343 14.8673,55.4108 16.9624,62.1335 20.2363,64.9629 3.5323,3.0528 4.1559,3.127 19.0625,2.2812 22.7802,-1.2924 26.2286,1.2334 34.2149,25.0508 2.4608,7.3387 3.071,10.7664 2.0293,11.4102 -0.8188,0.506 -21.1423,3.1878 -45.1621,5.9609 -24.0199,2.7731 -64.0726,7.4099 -89.0059,10.3027 -24.9332,2.8927 -63.63328,7.3239 -85.99995,9.8477 -22.36666,2.5237 -42.76537,4.7871 -45.33204,5.0293 -7.23494,0.6828 -38.33107,-0.9173 -39.43945,-2.0293 -1.90805,-1.9144 14.0839,-38.4522 18.39649,-42.0313 2.0675,-1.7159 21.29084,-4.3936 54.375,-7.5761 12.1,-1.164 23.98397,-2.4397 26.4082,-2.834 5.74373,-0.9342 9.5918,-4.9011 9.5918,-9.8887 0,-4.2247 -7.33938,-39.6341 -25.84375,-124.6797 -6.22283,-28.6 -18.85039,-86.7987 -28.0625,-129.33199 -9.2121,-42.53333 -17.38201,-79.73463 -18.1543,-82.66796 -0.77229,-2.93334 -1.7486,-13.13269 -2.16992,-22.66602 -0.72099,-16.31398 -0.5604,-17.92734 2.73242,-27.43359 4.30686,-12.43374 4.34355,-14.76775 0.30664,-19.46094 -2.50807,-2.91581 -4.3422,-3.71094 -8.56055,-3.71094 -6.08734,0 -10.19162,2.96256 -12.82031,9.25391 -0.92746,2.21972 -17.12256,22.93217 -35.98828,46.02734 -18.86573,23.09517 -48.75181,59.99024 -66.41406,81.99024 -77.64672,96.71625 -87.57588,107.98895 -87.67188,99.53705 -0.0427,-3.759 -10.96287,-23.9417 -18.0293,-33.3222 l -7.37109,-9.7871 5.68945,-6.877 c 25.9487,-31.357 56.73747,-67.60196 115.85743,-136.39255 37.89765,-44.09681 69.5637,-81.40714 70.36914,-82.91211 2.42313,-4.52767 1.70237,-10.48574 -1.75391,-14.50391 -2.7338,-3.17823 -4.18737,-3.72642 -9.66602,-3.64062 -3.54683,0.0556 -36.14921,4.10597 -72.44921,9 -63.36023,8.54234 -128.34575,16.40309 -206.66602,24.99804 -20.16667,2.21313 -38.88502,4.61064 -41.5957,5.32813 -5.19343,1.37464 -10.4043,6.67617 -10.4043,10.58594 0,1.27631 2.69418,13.94617 5.98828,28.15429 3.29411,14.20813 6.33371,27.33269 6.75391,29.16602 0.57963,2.5289 -1.3203,1.06138 -7.8711,-6.08398 -16.39573,-17.88384 -34.63847,-30.934 -52.5625,-37.59961 -6.92199,-2.57416 -9.93917,-4.40423 -10.39257,-6.30469 -1.0802,-4.52766 -16.58204,-90.53879 -16.58204,-92.00391 0,-1.33017 54.41393,-8.97039 56.1836,-7.88867 0.46826,0.28622 2.52976,9.55517 4.58008,20.59766 3.14945,16.96203 4.2555,20.60706 7.13476,23.48632 4.16265,4.16265 -6.31097,5.2142 99.4336,-9.99023 46.2,-6.64284 120.60065,-17.23385 165.33398,-23.53711 98.20257,-13.83746 89.82918,-12.38386 93.72266,-16.27734 3.03292,-3.03293 3.15884,-3.78183 2.2832,-13.67383 -0.83793,-9.46603 -0.69258,-10.5377 1.5332,-11.22656 3.82295,-1.18317 54.02077,-8.81622 58.03321,-8.82422 z M 820.63895,822.36141 c 0.2331,0.20951 -38.32206,45.96866 -122.10351,144.91797 -24.49613,28.93093 -44.89679,52.70432 -45.33399,52.82812 -0.43719,0.1238 -4.99557,-2.1241 -10.1289,-4.9941 -12.47496,-6.9747 -20.61976,-9.9566 -41.85743,-15.32425 -9.82231,-2.4825 -18.10757,-4.76186 -18.41015,-5.06445 -0.30258,-0.30258 -3.84018,-15.4666 -7.86133,-33.69727 -4.02116,-18.23066 -11.23926,-49.54289 -16.04102,-69.58398 -4.80175,-20.04108 -8.41978,-36.75014 -8.03906,-37.13086 0.38072,-0.38072 29.68344,-3.92899 65.11719,-7.88477 63.33346,-7.07045 147.04455,-16.92961 185.0918,-21.80078 10.63333,-1.36138 19.43819,-2.38087 19.5664,-2.26563 z m 129.7207,34.64258 c -3.64823,0.056 -7.26478,1.90248 -9.74218,5.22071 -2.69793,3.61357 -2.70361,3.78864 -0.37696,15.98828 6.07709,31.86491 30.94915,153.88632 38.66016,189.66792 9.07364,42.1047 12.98128,62.334 26.91603,139.334 7.3356,40.535 8.9722,47.6678 11.3926,49.666 3.5237,2.9091 8.6414,2.9421 36.3613,0.2305 23.6321,-2.3117 26.5922,-3.3914 29.7011,-10.832 1.8941,-4.5333 1.6929,-5.7243 -4.8808,-28.8965 -3.7709,-13.2925 -11.2686,-40.0687 -16.6602,-59.502 -10.266,-37.0024 -44.9127,-148.7981 -59.916,-193.33199 -20.73968,-61.56107 -38.76409,-102.78047 -46.56442,-106.48242 -1.5664,-0.74339 -3.23231,-1.08794 -4.89063,-1.0625 z m -520.48632,15.5586 c 34.7082,0.70787 68.69833,18.84924 91.23047,52.02929 7.35755,10.83447 17.76051,31.94113 21.05468,42.71485 3.26833,10.68919 4.95758,21.24497 3.39844,21.23437 -0.63326,-0.004 -18.25039,-3.35714 -39.15039,-7.44922 -35.21515,-6.89491 -39.02599,-7.39324 -52,-6.79883 -29.76592,1.36381 -51.74188,15.13564 -64.07422,40.15235 -15.96684,32.3894 -10.02732,68.2786 15.83984,95.6992 8.95547,9.4933 27.77103,22.8625 44.66211,31.7363 4.8856,2.5666 8.88854,5.0555 8.89454,5.5293 0.006,0.4738 -5.23958,1.8243 -11.65625,3.002 -14.07335,2.5829 -38.0924,2.6189 -48.59375,0.072 -52.14562,-12.645 -89.5686,-64.5754 -92.67774,-128.6035 -2.56222,-52.76489 21.94265,-104.52248 62.14063,-131.24605 19.02204,-12.64583 40.10672,-18.49699 60.93164,-18.07226 z m 23.57617,125.80859 c 9.61002,-0.45978 23.17687,1.79482 52.95703,7.44722 47.36917,8.9909 88.47866,17.4023 101.60352,20.7911 34.40097,8.882 59.85351,33.412 68.44336,65.9609 2.99423,11.3448 2.99894,31.2433 0.01,42.6445 -6.86675,26.1909 -22.1894,43.2069 -46.05664,51.1465 -5.5,1.8296 -14.33533,3.7468 -19.63477,4.2597 -9.58522,0.9282 -9.64244,0.9144 -11,-2.6562 -2.64877,-6.9668 -1.75054,-10.6032 3.29493,-13.3203 7.43392,-4.0035 19.04334,-17.1644 23.45312,-26.5879 7.2985,-15.5966 7.22973,-36.7885 -0.16992,-52.293 -10.87588,-22.7884 -38.16484,-29.872 -58.45508,-15.1738 l -5.67578,4.1113 -6.90625,-2.2715 c -11.39571,-3.7458 -35.74577,-14.6117 -68.77539,-30.6914 -21.05893,-10.2519 -32.67221,-15.1894 -35.72656,-15.1894 -9.07192,0 -14.31574,10.7738 -8.96289,18.416 2.32431,3.3184 32.11783,18.5381 73.22461,37.4062 14.66666,6.7322 29.02956,13.5766 31.91796,15.209 l 5.25196,2.9688 7.71094,30.666 c 4.2409,16.8667 7.72734,31.1449 7.74804,31.7285 0.0801,2.2591 -108.47444,-54.4483 -128.88281,-67.3262 -10.93011,-6.897 -21.92438,-18.9889 -27.3457,-30.0742 -4.20146,-8.5909 -4.40039,-9.684 -4.40039,-24.3554 0,-14.6595 0.1992,-15.7681 4.36523,-24.2305 5.46211,-11.0951 16.03562,-21.1193 26.33984,-24.9746 5.56379,-2.08167 9.90587,-3.33545 15.67188,-3.61132 z m 542.75,32.22852 c 0.49119,-1.3751 23.5359,67.5747 23.5449,70.4472 0,0.8262 1.8202,6.3013 4.0391,12.168 2.2187,5.8667 6.1633,18.766 8.7656,28.666 2.6023,9.9 8.8005,32.7014 13.7734,50.668 4.9729,17.9667 9.4237,34.2608 9.8906,36.209 0.8197,3.4209 0.6079,3.5703 -6.1464,4.4023 -3.8468,0.4739 -8.6449,1.1782 -10.6622,1.5645 -2.3747,0.4547 -3.8811,0.078 -4.2753,-1.0703 -0.3348,-0.9751 -4.2637,-22.1721 -8.7305,-47.1055 -4.4669,-24.9333 -9.9504,-54.0221 -12.1855,-64.6406 -2.2352,-10.6185 -4.2554,-21.1192 -4.4903,-23.334 -0.2348,-2.2148 -3.4857,-18.1031 -7.2226,-35.3086 -3.73696,-17.2056 -6.57268,-31.9049 -6.3008,-32.666 z m -405.01563,68.541 c 5.01346,-0.056 9.7015,3.3769 12.67188,9.918 4.95618,10.9139 2.11631,25.7284 -6.89063,35.9609 -5.33792,6.0642 -7.16367,7.2079 -8.29882,5.1953 -0.3102,-0.55 -2.89016,-10.5043 -5.73243,-22.1211 l -5.16601,-21.1211 4.33984,-3.8789 c 2.94214,-2.6288 6.0681,-3.9191 9.07617,-3.9531 z m -257.74804,44.0879 c 0.56575,-0.01 4.76444,2.8956 9.33203,6.4511 8.7115,6.7812 26.418,17.5352 28.87109,17.5352 0.78872,0 1.4336,0.2957 1.4336,0.6582 0,0.3624 -7.7987,14.4436 -17.33204,31.291 -17.28287,30.5423 -19.21056,35.496 -15.625,40.166 4.47691,5.831 14.05397,6.9574 18.68555,2.1973 1.61667,-1.6615 10.73815,-17.0091 20.27149,-34.1055 l 17.33398,-31.084 6.66602,0.7598 c 3.66667,0.4182 10.90957,0.7615 16.09375,0.7715 l 9.42578,0.012 -9.70703,19 c -10.57369,20.6961 -11.96981,26.8427 -7.17969,31.6328 4.33354,4.3336 8.16284,4.4318 30.93164,0.791 33.0614,-5.2864 34.19408,-5.1177 39.72851,5.9102 3.00335,5.9845 7.16195,18.6583 6.37891,19.4414 -0.75704,0.757 -130.45627,19.2434 -209.00391,29.791 -42.09533,5.6526 -64.66956,8.0837 -77.70117,8.3672 l -18.36914,0.4004 0.8418,-4 c 1.16381,-5.5339 5.16565,-17.4204 8.42383,-25.0176 1.77072,-4.1289 3.89766,-6.7979 6.07812,-7.6269 3.04322,-1.157 35.54549,-5.1485 60.72656,-7.4571 5.5,-0.5043 11.58116,-1.7165 13.51368,-2.6953 4.07273,-2.0629 2.72542,0.201 34.59765,-58.1894 13.50524,-24.7418 25.01825,-44.99 25.58399,-45 z m 281.6289,94.9765 9.32618,0.3438 1.87304,7.0234 c 1.03033,3.8627 1.43775,7.4588 0.9043,7.9922 -0.53345,0.5335 -18.35511,1.1902 -39.60352,1.459 l -38.63281,0.4883 0.4043,-7.8145 0.40429,-7.8164 28,-1.0098 c 15.4,-0.5547 32.19505,-0.8546 37.32422,-0.666 z" /></g></svg>
