<?xml version="1.0" encoding="UTF-8" standalone="no"?>
<!-- Created with Inkscape (http://www.inkscape.org/) -->

<svg
   version="1.1"
   id="svg1"
   width="541.76318"
   height="538.43848"
   viewBox="0 0 541.76318 538.43848"
   xmlns="http://www.w3.org/2000/svg"
   xmlns:svg="http://www.w3.org/2000/svg">
  <defs
     id="defs1" />
  <path
     style="fill:#000000"
     d="M 22.5,537.08716 C 8.198116,533.39702 0,524.05205 0,511.43958 c 0,-3.33595 0.673349,-7.67692 1.496331,-9.64659 2.083765,-4.98715 34.657553,-45.46718 38.298019,-47.59363 1.637522,-0.95651 6.375886,-2.24457 10.5297,-2.86238 7.37821,-1.09737 7.65182,-1.24154 11.86417,-6.25147 3.38293,-4.02347 29.62129,-33.19054 65.1857,-72.4617 l 2.09617,-2.31465 -2.23505,-3.88347 C 126.00577,364.28978 125,362.15262 125,361.67644 c 0,-0.47617 1.99287,-3.83725 4.4286,-7.46907 l 4.4286,-6.6033 -3.41967,-6.44003 c -14.02559,-26.41342 -16.72447,-62.31749 -6.76804,-90.03758 10.41531,-28.99771 29.13457,-50.59439 54.83051,-63.25876 16.56553,-8.16441 27.32006,-10.66479 46.5,-10.81105 8.525,-0.065 17.58241,0.20314 20.12758,0.59589 l 4.62758,0.71409 3.2089,-10.21409 c 4.32789,-13.77587 4.77708,-14.36578 12.02455,-15.79163 L 271,151.17824 v -14.7389 c 0,-23.96061 4.36549,-42.820122 14.53624,-62.798622 C 304.58357,36.225898 339.96967,9.9049685 382,1.8889185 c 12.97587,-2.47476004 37.20175,-2.52618004 49.374,-0.10479 28.93167,5.75529 52.20861,18.2241095 71.87284,38.5003195 22.3386,23.03381 34.30799,49.18574 37.82962,82.654002 4.03566,38.35345 -9.91075,79.53739 -36.69886,108.3722 -18.52568,19.94111 -46.65341,35.50974 -72.74758,40.26561 -6.09942,1.11167 -6.97762,1.56087 -7.82959,4.00484 -1.16618,3.34531 -2.00225,3.66889 -31.80043,12.30751 -12.375,3.58757 -30.32886,8.89158 -39.89747,11.78668 l -17.39748,5.26382 -1.86844,6.8207 c -1.02764,3.75139 -2.72925,8.50803 -3.78135,10.57031 l -1.9129,3.74961 40.17882,38.04781 c 22.09835,20.9263 55.44852,52.50701 74.11148,70.17936 l 33.93266,32.13155 h 15.73675 15.73676 l 5.61644,5.13311 c 3.08904,2.82321 6.80029,7.15321 8.24722,9.62221 2.95052,5.03468 6.27785,17.63214 6.28971,23.81318 0.0187,9.769 -5.542,19.3201 -12.20372,20.96107 -2.45926,0.60579 -2.77362,1.21691 -3.37916,6.56918 l -0.66765,5.90125 h -17.49103 -17.49102 l 0.434,-6 0.434,-6 h -4.86347 c -7.68068,0 -13.09571,-3.76262 -16.23785,-11.28281 l -1.56915,-3.75552 -178.18174,0.685 -178.18174,0.685 -13.97317,10.89442 c -7.68524,5.99193 -15.58131,11.61239 -17.54683,12.48991 -4.82819,2.15558 -36.229132,2.82773 -43.57367,0.93271 z m 401.40253,-61.64871 c -0.0526,-0.275 -4.46113,-4.55 -9.79681,-9.5 -5.33568,-4.95 -30.98091,-29.25 -56.9894,-54 -26.00849,-24.75 -48.82907,-46.28482 -50.71241,-47.85515 l -3.42424,-2.85515 -6.33254,5.92379 c -26.50481,24.79395 -65.88669,35.08608 -102.42915,26.76902 l -7.28202,-1.65738 -3.97086,3.58743 c -2.18397,1.97309 -4.83968,3.58744 -5.90156,3.58744 -1.36284,0 -2.02376,0.80883 -2.24712,2.75 -0.27816,2.41747 -0.8001,2.79265 -4.31642,3.10273 -3.82508,0.3373 -5.01785,1.47066 -27.27547,25.91681 l -23.27548,25.56408 3.38705,2.79189 c 4.25559,3.50782 5.99279,7.62855 5.48053,13.00012 l -0.39954,4.18954 147.7905,-0.40758 c 81.28478,-0.22418 147.7475,-0.63259 147.69494,-0.90759 z m 3.03521,-239.57351 c 4.09075,-0.77108 7.75268,-1.74498 8.1376,-2.16423 2.38071,-2.59295 1.35636,-5.79884 -8.3914,-26.26226 -10.17604,-21.36252 -10.26052,-21.49778 -13.21273,-21.15275 -1.63417,0.19099 -3.16693,0.53671 -3.40615,0.76827 -0.33207,0.32144 -6.81981,44.25772 -7.02329,47.56305 -0.023,0.37322 0.70962,1.42996 1.62798,2.34832 1.86383,1.86383 8.20434,1.55051 22.26799,-1.1004 z m -37.02283,-0.82396 c 1.07552,-1.29593 2.98493,-28.88622 3.05663,-44.16732 0.0278,-5.91595 -0.0545,-6.10434 -3.35121,-7.67644 l -3.37967,-1.61165 -14.22585,19.47195 c -7.82422,10.70958 -14.45648,20.35387 -14.73836,21.43177 -1.00739,3.85229 2.36854,5.94852 17.72355,11.00514 9.6565,3.18002 13.25,3.55264 14.91491,1.54655 z m 70.72521,-12.44832 c 7.26622,-4.69639 19.80471,-15.37728 22.01921,-18.75703 1.25741,-1.91906 1.38517,-3.00409 0.56555,-4.80297 -0.6287,-1.37983 -9.00741,-7.45977 -20.62534,-14.96658 l -19.56651,-12.64271 -5.44268,4.21124 c -4.05786,3.13973 -5.23861,4.60467 -4.6406,5.75754 0.44115,0.85046 4.0849,10.9963 8.09723,22.5463 4.01232,11.55 7.78066,21.33061 8.37408,21.73469 2.24198,1.52664 5.45657,0.64399 11.21906,-3.08048 z m -113.86679,-8.40421 c 0.56002,-0.6875 6.38544,-10.52549 12.94538,-21.86221 l 11.92716,-20.6122 -3.68314,-4.3193 -3.68315,-4.3193 -21.38979,7.92762 c -21.61702,8.01184 -26.69519,10.8533 -25.43118,14.22986 1.64884,4.40455 7.7408,13.15001 14.82084,21.27638 6.3843,7.32783 8.29021,8.92915 10.62755,8.92915 1.56646,0 3.30631,-0.5625 3.86633,-1.25 z m 150.91052,-34.75 c 3.29511,-6.72716 7.55934,-20.34056 8.68914,-27.73981 0.53848,-3.52659 0.28698,-4.60022 -1.49506,-6.38226 -1.9106,-1.9106 -2.85855,-2.07479 -8.76018,-1.51729 -3.63976,0.34383 -14.29509,0.62834 -23.6785,0.63225 l -17.06075,0.007 -1.81079,6.04512 c -0.99594,3.32482 -1.64361,6.17871 -1.43926,6.34199 43.76816,34.97148 40.3363,33.26797 45.5554,22.61289 z M 336.09481,157.30428 c 11.77286,-6.1238 21.5291,-11.23521 21.68054,-11.35868 0.15144,-0.12348 -0.0134,-2.6506 -0.36636,-5.61583 l -0.64169,-5.39132 -14.63365,-3.72479 c -8.04851,-2.04864 -18.47812,-4.79299 -23.17691,-6.09856 -11.49978,-3.19523 -12.57763,-2.73025 -13.49339,5.82097 -0.81506,7.61096 -0.006,17.92033 2.19746,28.00238 1.4429,6.60194 3.23516,9.5 5.87513,9.5 0.63453,0 10.78602,-5.01038 22.55887,-11.13417 z m 78.33947,-4.85099 c 5.69085,-2.77867 8.79649,-7.70559 8.79649,-13.95516 0,-9.35742 -6.43877,-16.05968 -15.42831,-16.05968 -6.02044,0 -9.84913,1.88357 -13.46505,6.62428 -5.72014,7.49949 -2.61016,19.53104 6.06713,23.47184 5.28507,2.40022 8.99147,2.37874 14.02974,-0.0813 z m -12.52094,-6.29664 c -4.44167,-3.41021 -5.1456,-10.17409 -1.49992,-14.41244 2.004,-2.32979 3.20617,-2.80576 7.08658,-2.80576 3.88041,0 5.08258,0.47597 7.08658,2.80576 3.25379,3.78275 3.18648,8.62206 -0.17547,12.61751 -2.13984,2.54305 -3.31067,3.07121 -6.75,3.04493 -2.28861,-0.0175 -4.87511,-0.58 -5.74777,-1.25 z m 103.25902,-15.81044 c 1.86132,-0.99615 1.97821,-1.67799 1.32862,-7.75 -0.84055,-7.85692 -4.6205,-21.48015 -8.05135,-29.017752 -2.31463,-5.08523 -2.60654,-5.33891 -5.69466,-4.9488 -2.12864,0.26889 -9.85001,4.99778 -22.31399,13.666002 l -19.05902,13.25483 1.94218,5.92365 c 2.29241,6.99185 0.34386,6.38135 25.67586,8.04451 9.625,0.63193 17.6875,1.3224 17.91667,1.53438 0.86987,0.80464 6.30021,0.33972 8.25569,-0.70682 z M 362.519,113.40096 c 1.40398,-2.77062 2.2193,-5.58312 1.81181,-6.25 -2.40592,-3.93751 -30.76221,-34.714662 -32.48904,-35.262732 -2.78806,-0.8849 -5.51063,1.96817 -11.64767,12.20597 -9.99749,16.677812 -12.28737,25.553782 -6.92887,26.857512 3.07429,0.74798 42.82166,7.28646 44.96792,7.39726 1.12001,0.0578 2.63624,-1.69266 4.28585,-4.94801 z m 99.70033,-23.364222 c 11.15437,-6.27094 21.06817,-12.12094 22.03067,-13 3.36528,-3.07354 2.15873,-5.95578 -5.56412,-13.29172 -7.83073,-7.43843 -21.98195,-17.30657 -24.81815,-17.30657 -0.94868,0 -2.31952,0.59556 -3.0463,1.32347 -0.72679,0.72791 -5.09517,11.35039 -9.70753,23.60552 l -8.38609,22.28204 4.38609,3.85185 c 2.41236,2.11851 4.4848,3.871032 4.60543,3.894482 0.12064,0.0235 9.34564,-5.088132 20.5,-11.359072 z m -79.35999,2.78484 c 4.45403,-2.31084 4.98798,-2.92482 4.5657,-5.25 -0.26302,-1.44822 -1.76986,-12.20613 -3.34855,-23.90647 -1.57868,-11.70033 -3.42182,-21.93783 -4.09586,-22.75 -0.67403,-0.81216 -2.35585,-1.47666 -3.73737,-1.47666 -3.52969,0 -20.22999,8.10139 -27.72415,13.44911 -6.43599,4.59263 -8.09001,6.78313 -6.7707,8.96678 0.41337,0.68421 7.27659,7.33833 15.25159,14.78694 7.975,7.4486 15.59094,14.72513 16.92431,16.17005 1.33338,1.44491 2.75435,2.62712 3.15772,2.62712 0.40337,0 3.00316,-1.17759 5.77731,-2.61687 z m 44.6129,-27.03766 c 5.79027,-11.90999 10.52087,-22.37249 10.51245,-23.25 -0.0303,-3.15844 -1.86179,-4.34157 -9.6104,-6.20829 -8.64127,-2.08177 -26.58315,-3.55354 -30.70589,-2.5188 -5.31985,1.3352 -5.26936,2.87474 0.93965,28.65089 l 5.75247,23.8809 3.06974,0.38988 c 1.68836,0.21443 4.51975,0.46189 6.29198,0.54991 l 3.22223,0.16004 z"
     id="path1" />
</svg>
